<?xml version="1.0" encoding="UTF-8"?>
<svg id="Capa_2" data-name="Capa 2" xmlns="http://www.w3.org/2000/svg" viewBox="0 0 25.85 19.35">
  <defs>
    <style>
      .cls-1 {
        fill: #030204;
      }

      .cls-2 {
        fill: #fff;
      }

      .cls-3 {
        fill: #e7e000;
      }

      .cls-4 {
        fill: #10110e;
      }

      .cls-5 {
        fill: #fdfdfd;
      }

      .cls-6, .cls-7, .cls-8 {
        fill: none;
      }

      .cls-7 {
        stroke: #1d1e1c;
        stroke-dasharray: 0 .37;
        stroke-width: .08px;
      }

      .cls-7, .cls-8 {
        stroke-miterlimit: 10;
      }

      .cls-8 {
        stroke: #fff;
        stroke-dasharray: 0 0 .37 .37;
        stroke-width: .04px;
      }
    </style>
  </defs>
  <g id="Capa_1-2" data-name="Capa 1">
    <circle class="cls-1" cx="12.93" cy="9.68" r="9.68"/>
    <path class="cls-8" d="M22.06,9.68c0,5.04-4.09,9.13-9.13,9.13-12.11-.48-12.11-17.79,0-18.27,5.04,0,9.13,4.09,9.13,9.13h0Z"/>
    <path class="cls-2" d="M24.51,9.68l1.34,3.43h-1.96s-.43,0-.43,0h0s-6.46,0-6.46,0c-.98,1.16-2.44,1.9-4.07,1.9s-3.1-.74-4.07-1.9H2.78S0,13.12,0,13.12l1.34-3.43L0,6.26H8.85c.98-1.16,2.44-1.9,4.07-1.9s3.08,.73,4.05,1.87c0,0,.01,.02,.02,.02h6.46s2.39,0,2.39,0l-1.34,3.43Z"/>
    <path class="cls-7" d="M12.93,14.6c-1.45,0-2.82-.64-3.76-1.75l-.12-.14H2.37s-1.78,0-1.78,0l1.18-3.02L.59,6.67H9.04l.12-.14c.94-1.11,2.31-1.75,3.76-1.75s2.81,.63,3.74,1.73h0s0,.02,.01,.02l.12,.14h7.06s1.39,0,1.39,0l-1.18,3.02,1.18,3.02h-1.77s-.02,0-.02,0h-6.65l-.12,.14c-.94,1.11-2.31,1.75-3.76,1.75Z"/>
    <g>
      <path class="cls-3" d="M8.86,5.14c0,.09-.03,.16-.08,.22l.13,.14-.07,.06-.57-.61s0,0,.01-.01c0,0,0,0,.01-.01,0,0,0,0,.01-.01,0,0,0,0,.01-.01,.07-.06,.14-.09,.23-.09,.09,0,.16,.04,.22,.1,.06,.06,.08,.13,.09,.22Zm-.3-.23c-.06,0-.11,.01-.16,.05l.31,.33s.06-.1,.06-.15c0-.06-.02-.11-.06-.15-.04-.04-.09-.07-.15-.07Z"/>
      <path class="cls-3" d="M9.23,5.21l-.52-.66,.07-.06,.46,.59,.21-.17,.06,.07-.29,.22Z"/>
      <path class="cls-3" d="M10.05,4.64l-.16-.14-.25,.15,.05,.21-.08,.05-.05-.21-.04,.03-.05-.08,.07-.04-.14-.54,.07-.05,.66,.57-.08,.05Zm-.53-.46l.1,.37,.19-.12-.29-.25Z"/>
      <path class="cls-3" d="M10.09,3.78l.33,.67-.08,.04-.33-.67-.15,.07-.04-.08,.38-.19,.04,.08-.15,.07Z"/>
      <path class="cls-3" d="M11.26,3.99c-.05,.11-.13,.18-.24,.21-.11,.04-.22,.03-.32-.02-.11-.05-.18-.13-.22-.24-.04-.11-.03-.21,.02-.32,.05-.11,.13-.18,.24-.22,.11-.04,.22-.03,.32,.02,.11,.05,.18,.13,.21,.24,.04,.11,.03,.22-.02,.32Zm-.24-.48c-.08-.04-.16-.04-.25-.01-.08,.03-.15,.09-.19,.17-.04,.08-.04,.17-.01,.25,.03,.08,.09,.15,.17,.19,.08,.04,.16,.04,.25,.01,.09-.03,.15-.09,.19-.17,.04-.08,.04-.17,.01-.25-.03-.09-.09-.15-.17-.19Z"/>
      <path class="cls-3" d="M11.73,3.92c-.04,.06-.09,.1-.17,.12l-.02-.09s.08-.04,.11-.08c.03-.04,.03-.09,.02-.13,0,0,0,0,0,0,0,0,0,0,0,0,0-.02-.01-.04-.03-.05-.01-.02-.03-.03-.04-.04-.02-.01-.05-.03-.07-.04-.02-.01-.05-.02-.07-.04-.02-.02-.04-.03-.06-.06-.02-.02-.03-.05-.03-.07-.01-.06,0-.11,.03-.15,.03-.05,.07-.08,.13-.09l.02,.09s-.05,.02-.07,.05c-.02,.03-.02,.05-.01,.08,0,0,0,0,0,0,0,0,0,0,0,0,0,.01,0,.02,.02,.03,0,.01,.01,.02,.03,.02,.02,.01,.05,.03,.07,.04,.02,.01,.05,.02,.07,.04,.03,.02,.06,.04,.08,.07s.04,.06,.04,.09c0,0,0,0,0,0h0c.02,.07,0,.14-.03,.2Z"/>
      <path class="cls-3" d="M12.86,3.87l-.08-.2-.29,.02-.05,.21h-.1s.05-.2,.05-.2h-.05s0-.09,0-.09h.08s.14-.55,.14-.55h.09s.31,.82,.31,.82h-.1Zm-.24-.65l-.09,.37h.23s-.13-.37-.13-.37Z"/>
      <path class="cls-3" d="M13.48,3.89l.1-.83h.09s-.09,.75-.09,.75l.27,.03v.09s-.37-.04-.37-.04Z"/>
      <path class="cls-3" d="M14.45,4.06l-.02-.21-.28-.06-.11,.19-.09-.02,.11-.19h-.05s.02-.1,.02-.1l.08,.02,.28-.49,.08,.02,.07,.87-.09-.02Zm-.05-.7l-.19,.33,.22,.05-.03-.38Z"/>
      <path class="cls-3" d="M15.21,4.19c-.04-.11-.04-.21,0-.32,.04-.11,.12-.18,.23-.22,.11-.04,.21-.04,.32,0l-.04,.09c-.08-.04-.17-.04-.25,0s-.14,.09-.18,.17c-.04,.08-.04,.17,0,.25,.03,.08,.09,.14,.17,.18l-.04,.08c-.11-.05-.18-.12-.22-.23Z"/>
      <path class="cls-3" d="M16,4.73l.04-.21-.25-.14-.16,.15-.08-.05,.16-.15-.04-.02,.05-.08,.07,.04,.41-.38,.08,.04-.18,.86-.08-.05Zm.15-.68l-.28,.26,.2,.11,.08-.38Z"/>
      <path class="cls-3" d="M16.4,4.95c-.03-.05-.05-.11-.05-.16l-.08,.11-.07-.05,.49-.68s.01,0,.01,.01c0,0,0,0,.01,.01,0,0,0,0,.01,0,0,0,0,0,.01,0,.07,.05,.12,.12,.13,.21,.02,.09,0,.17-.05,.24-.04,.06-.1,.1-.17,.12-.07,.02-.14,.02-.2,0,0,.05,.02,.09,.04,.13,.02,.04,.05,.08,.09,.1l-.05,.08s-.09-.08-.12-.13Zm.38-.51c0-.06-.03-.11-.08-.15l-.27,.37c.05,.03,.11,.04,.16,.02s.1-.04,.14-.09c.03-.05,.05-.1,.04-.16Z"/>
      <path class="cls-3" d="M17.25,4.72l-.48,.57-.07-.06,.48-.57-.12-.11,.06-.07,.32,.27-.06,.07-.12-.11Z"/>
      <path class="cls-3" d="M17.31,5.82l.1-.19-.2-.21-.19,.1-.07-.07,.19-.1-.04-.04,.07-.07,.05,.06,.5-.25,.06,.06-.42,.77-.07-.07Zm.34-.61l-.34,.17,.16,.17,.19-.34Z"/>
    </g>
    <g>
      <path class="cls-5" d="M8.46,3.88c-.14-.02-.25-.09-.33-.2-.08-.11-.12-.24-.1-.38,.02-.14,.08-.25,.2-.33l.07,.09c-.09,.06-.14,.15-.15,.26-.01,.11,0,.21,.07,.29,.07,.09,.15,.14,.26,.15,.11,.01,.21,0,.29-.07l.07,.09c-.11,.08-.24,.12-.38,.1Z"/>
      <path class="cls-5" d="M9.56,3.17c-.04,.14-.11,.24-.23,.31-.12,.07-.25,.09-.38,.05-.14-.04-.24-.11-.31-.23-.07-.12-.09-.25-.05-.38,.04-.14,.11-.24,.23-.31,.12-.07,.25-.09,.38-.05,.14,.04,.24,.11,.31,.23,.07,.12,.09,.25,.05,.39Zm-.39-.51c-.11-.03-.21-.01-.3,.04-.09,.05-.16,.14-.18,.24-.03,.11-.01,.21,.04,.3,.05,.09,.14,.15,.24,.18,.11,.03,.21,.02,.3-.04,.09-.05,.16-.14,.18-.24,.03-.11,.01-.21-.04-.3-.05-.09-.14-.15-.24-.18Z"/>
      <path class="cls-5" d="M10.43,2.95l-.31-.76-.13,.24-.26-.07,.31,.76-.1,.04-.39-.97,.4,.11,.2-.36,.39,.97-.1,.04Z"/>
      <path class="cls-5" d="M10.74,2.85l-.31-.97,.11-.03,.31,.97-.11,.03Z"/>
      <path class="cls-5" d="M11.39,2.51c-.07,.12-.18,.2-.31,.23,0,0,0,0-.01,0,0,0,0,0-.01,0,0,0,0,0-.01,0,0,0,0,0-.01,0l-.23-.99s0,0,.01,0c0,0,0,0,.01,0,0,0,0,0,.01,0,0,0,0,0,.01,0,.13-.03,.26,0,.38,.07,.12,.07,.19,.18,.22,.31,.03,.13,.01,.26-.06,.38Zm-.2-.58c-.08-.06-.17-.08-.26-.08l.18,.76c.09-.04,.16-.1,.2-.19,.04-.09,.05-.18,.03-.27-.02-.09-.07-.17-.15-.23Z"/>
      <path class="cls-5" d="M12.34,2.52l-.11-.24-.35,.04-.05,.26h-.12s.05-.24,.05-.24h-.06s-.01-.11-.01-.11h.09s.12-.68,.12-.68h.11s.44,.95,.44,.95h-.12Zm-.35-.76l-.08,.46,.28-.03-.19-.42Z"/>
      <path class="cls-5" d="M12.87,2.4c-.06,.07-.14,.1-.23,.1v-.11c.06,0,.1-.02,.14-.07,.04-.04,.06-.09,.06-.15h0s0-.02,0-.02c0-.02,0-.04-.02-.07-.01-.02-.02-.04-.04-.06-.02-.02-.05-.04-.07-.06-.02-.02-.05-.04-.08-.06-.03-.02-.04-.05-.06-.08-.01-.03-.02-.06-.02-.1,0-.07,.02-.12,.07-.17,.05-.05,.1-.08,.17-.08v.11s-.07,.01-.09,.04c-.03,.03-.04,.06-.04,.1,0,0,0,0,0,0s0,0,0,0c0,.01,0,.03,.01,.04,0,.01,.01,.02,.03,.03,.02,.02,.05,.04,.07,.06,.02,.02,.05,.04,.07,.06,.03,.03,.06,.06,.07,.1,.02,.04,.03,.08,.03,.12h0c0,.1-.03,.18-.09,.24Z"/>
      <path class="cls-5" d="M13.85,2.51c-.06-.04-.11-.08-.15-.14l-.02,.17h-.11s.12-1.02,.12-1.02c0,0,.01,0,.02,0,0,0,.01,0,.02,0,0,0,.01,0,.02,0,0,0,.01,0,.02,0,.11,.01,.19,.06,.26,.15,.07,.08,.09,.18,.08,.29,0,.09-.05,.16-.11,.22-.06,.06-.13,.1-.22,.11,.03,.05,.07,.09,.12,.12,.05,.03,.1,.05,.16,.06v.11c-.08,0-.15-.03-.21-.07Zm.1-.76c-.04-.06-.1-.1-.17-.11l-.07,.55c.07,0,.13-.02,.19-.07,.05-.05,.08-.11,.09-.18,0-.07,0-.14-.05-.19Z"/>
      <path class="cls-5" d="M14.82,2.74l-.02-.26-.34-.08-.13,.22-.11-.03,.13-.22h-.06s.03-.13,.03-.13l.09,.02,.34-.59,.1,.02,.08,1.06-.11-.03Zm-.07-.84l-.23,.4,.27,.06-.04-.46Zm0-.23v-.05s.21,0,.21,0v.05s-.21-.01-.21-.01Z"/>
      <path class="cls-5" d="M15.54,2.59c-.09,.05-.18,.06-.28,.03l-.08,.23-.11-.04,.33-.96s.01,0,.02,0c0,0,.01,0,.02,0,0,0,.01,0,.02,0,0,0,.01,0,.02,0,.1,.03,.17,.1,.22,.2,.05,.1,.05,.19,.02,.3-.03,.09-.09,.17-.18,.22Zm.07-.45c-.03-.07-.07-.11-.14-.14l-.18,.52c.07,.02,.13,0,.2-.03,.06-.04,.11-.09,.13-.15,.02-.07,.02-.13,0-.2Z"/>
      <path class="cls-5" d="M15.67,3.02l.39-.94,.1,.04-.39,.94-.1-.04Z"/>
      <path class="cls-5" d="M16.41,3.2c-.13,.04-.26,.04-.38-.02,0,0,0,0-.01,0,0,0,0,0-.01,0,0,0,0,0-.01,0,0,0,0,0-.01,0l.46-.91s0,0,.01,0c0,0,0,0,.01,0,0,0,0,0,.01,0,0,0,0,0,.01,0,.12,.06,.2,.16,.25,.3,.04,.13,.03,.26-.03,.38-.06,.12-.16,.21-.29,.25Zm.22-.57c-.02-.1-.07-.17-.15-.23l-.35,.7c.09,.03,.18,.03,.27-.01,.09-.04,.16-.1,.2-.19,.04-.09,.05-.18,.03-.27Z"/>
      <path class="cls-5" d="M17.12,3.82l.07-.25-.29-.19-.2,.16-.1-.06,.2-.16-.05-.03,.06-.1,.08,.05,.52-.43,.09,.06-.29,1.02-.1-.06Zm.23-.81l-.36,.3,.23,.15,.13-.45Z"/>
      <path class="cls-5" d="M17.6,4.07c-.09,.01-.17-.01-.24-.07l.07-.09s.1,.05,.16,.04c.06,0,.11-.03,.14-.08h0s0-.02,0-.02c.01-.02,.02-.04,.03-.06,0-.02,0-.04,0-.07,0-.03-.01-.06-.02-.09,0-.03-.01-.06-.02-.09,0-.03,0-.07,0-.1,0-.03,.02-.06,.04-.09,.04-.05,.1-.08,.16-.09,.07,0,.13,0,.18,.05l-.07,.09s-.06-.03-.1-.03c-.04,0-.07,.02-.09,.05,0,0,0,0,0,0,0,0,0,0,0,0,0,.01-.01,.02-.02,.04,0,.01,0,.03,0,.04,0,.03,.01,.06,.02,.09,0,.03,.01,.06,.02,.09,0,.04,0,.08,0,.12-.01,.04-.03,.08-.06,.11,0,0,0,0,0,0,0,0,0,0,0,0-.05,.07-.13,.11-.22,.12Z"/>
    </g>
    <g>
      <path class="cls-3" d="M9.45,15.31c-.04-.14-.02-.26,.05-.38s.17-.2,.31-.23c.14-.03,.26-.02,.38,.05l-.06,.1c-.09-.06-.19-.07-.3-.04-.11,.03-.19,.09-.24,.18-.05,.09-.07,.19-.04,.3,.03,.11,.09,.19,.18,.24l-.06,.1c-.12-.07-.2-.17-.23-.31Z"/>
      <path class="cls-3" d="M10.59,15.88c-.13,.05-.26,.05-.39,0-.13-.06-.22-.15-.27-.28-.05-.13-.05-.26,0-.39,.06-.13,.15-.21,.28-.27,.13-.05,.26-.05,.39,0,.13,.06,.22,.15,.27,.28,.05,.13,.05,.26,0,.39-.05,.13-.15,.22-.28,.27Zm.18-.61c-.04-.1-.11-.17-.21-.22-.1-.04-.2-.04-.3,0-.1,.04-.17,.11-.22,.21-.04,.1-.04,.2,0,.3,.04,.1,.11,.17,.21,.22,.1,.04,.2,.05,.3,0,.1-.04,.17-.11,.22-.21,.04-.1,.04-.2,0-.3Z"/>
      <path class="cls-3" d="M11.38,16.27l.21-.79-.25,.11-.16-.21-.21,.79-.11-.03,.27-1.01,.25,.33,.38-.16-.27,1.01-.11-.03Z"/>
      <path class="cls-3" d="M11.66,16.32l.18-1,.11,.02-.18,1-.11-.02Z"/>
      <path class="cls-3" d="M12.34,16.27c-.11,.09-.23,.13-.37,.11,0,0,0,0-.01,0,0,0,0,0-.01,0,0,0-.01,0-.02,0,0,0,0,0-.01,0l.11-1.01s0,0,.01,0c0,0,0,0,.01,0,0,0,0,0,.01,0,0,0,0,0,.01,0,.14,.02,.25,.08,.33,.19,.09,.11,.12,.23,.11,.37-.01,.14-.08,.25-.18,.34Zm0-.61c-.05-.08-.13-.13-.22-.16l-.08,.78c.1,0,.18-.04,.25-.11,.07-.07,.11-.15,.12-.25,0-.09-.01-.18-.07-.26Z"/>
      <path class="cls-3" d="M13.27,16.44l-.08-.25h-.35s-.07,.25-.07,.25h-.12s.08-.25,.08-.25h-.06s0-.11,0-.11h.09s.19-.65,.19-.65h.11s.33,1,.33,1h-.12Zm-.26-.8l-.13,.44h.28s-.14-.44-.14-.44Z"/>
      <path class="cls-3" d="M14.46,16.27s-.02,0-.03,0c-.13,.02-.26,0-.37-.08-.11-.08-.18-.18-.21-.32-.03-.13,0-.26,.07-.37s.18-.19,.32-.22l.02,.11c-.1,.02-.18,.08-.24,.17-.06,.09-.08,.19-.06,.29,.02,.1,.07,.17,.14,.23,.08,.06,.16,.09,.26,.09l-.1-.54-.15,.03-.02-.11,.26-.05,.15,.76s-.02,0-.03,0Z"/>
      <path class="cls-3" d="M14.93,16.09c-.07-.01-.14-.03-.19-.07l.05,.16-.1,.03-.3-.97s.01,0,.02,0c0,0,.01,0,.02,0,0,0,.01,0,.02,0,0,0,.01,0,.02,0,.1-.03,.2-.02,.29,.03,.09,.05,.16,.13,.19,.23,.03,.08,.02,.17,0,.25-.03,.08-.08,.14-.16,.19,.05,.03,.1,.05,.16,.06s.11,0,.17-.01l.03,.11c-.07,.02-.14,.03-.21,.02Zm-.21-.73c-.06-.04-.13-.05-.2-.03l.16,.52c.06-.03,.11-.07,.14-.14,.03-.06,.04-.13,.01-.2s-.06-.12-.12-.16Z"/>
      <path class="cls-3" d="M15.27,16.03l-.36-.95,.1-.04,.36,.95-.1,.04Z"/>
      <path class="cls-3" d="M15.63,15.72c-.13-.05-.22-.14-.28-.26-.01-.02-.02-.05-.03-.07-.01-.02-.02-.05-.03-.07l-.06,.03-.05-.1,.06-.03-.1-.21,.45-.2,.05,.1-.35,.16,.05,.11,.35-.16,.05,.1-.35,.16s.02,.05,.03,.07c.01,.02,.02,.05,.03,.07,.04,.1,.12,.17,.22,.2,.1,.04,.2,.04,.3,0l.05,.1c-.13,.05-.25,.06-.38,0Z"/>
      <path class="cls-3" d="M16.59,15.37s-.02,0-.02,.01c-.12,.07-.25,.08-.38,.05-.13-.04-.24-.11-.31-.23-.07-.12-.09-.24-.06-.38,.03-.13,.11-.24,.22-.31l.06,.1c-.09,.06-.15,.14-.17,.24-.03,.1-.01,.2,.04,.29,.05,.08,.12,.14,.21,.17,.09,.03,.18,.03,.27,0l-.28-.47-.13,.08-.06-.1,.23-.13,.4,.67s-.02,0-.02,.01Z"/>
      <path class="cls-3" d="M17.25,14.89l-.21-.15-.28,.21,.09,.24-.09,.07-.09-.24-.05,.04-.07-.09,.08-.06-.23-.64,.08-.06,.86,.61-.09,.07Zm-.69-.48l.16,.44,.22-.17-.38-.27Z"/>
    </g>
    <g>
      <path class="cls-5" d="M11.91,17.59c-.08,.07-.18,.1-.29,.09l-.04,.25-.12-.02,.16-1.07s.01,0,.02,0c0,0,.01,0,.02,0,0,0,.01,0,.02,0,0,0,.01,0,.02,0,.11,.02,.2,.07,.27,.16,.07,.09,.09,.19,.08,.31-.02,.11-.07,.19-.15,.26Zm-.01-.49c-.04-.06-.1-.1-.17-.12l-.09,.58c.07,0,.14-.02,.2-.07,.06-.05,.09-.11,.1-.18s0-.14-.05-.21Z"/>
      <path class="cls-5" d="M12.19,18.01l.09-1.07h.12s-.09,1.08-.09,1.08h-.12Z"/>
      <path class="cls-5" d="M12.72,17.92h.38s0,.12,0,.12h-.57s.47-.96,.47-.96h-.37s0-.12,0-.12h.56s-.47,.96-.47,.96Z"/>
      <path class="cls-5" d="M13.54,17.91l.38-.04v.12s-.55,.05-.55,.05l.37-1-.37,.03v-.12s.54-.05,.54-.05l-.37,1Z"/>
      <path class="cls-5" d="M14.88,17.82l-.13-.24-.36,.08-.03,.27-.12,.02,.03-.27h-.06s-.02-.11-.02-.11l.1-.02,.07-.72,.11-.02,.55,.98-.12,.02Zm-.44-.78l-.05,.49,.29-.06-.24-.43Z"/>
    </g>
    <g>
      <g>
        <path class="cls-4" d="M10.57,9.05c0-.4,0-.8,0-1.21,0-.17-.09-.29-.25-.3-.35,0-.69,0-1.04,0-.15,0-.23,.09-.25,.25,0,.04,0,.08,0,.12v.1s0,.09,0,.09v.27h0v.26c-.01-.13-.05-.23-.08-.3,0,0,0,0,0,0-.02-.02-.03-.05-.05-.07-.01-.02-.03-.04-.04-.07,0,0,0,0,0,0h0s-.04-.07-.07-.11c-.26-.29-.59-.43-.97-.46-.5-.04-1.01-.05-1.51-.07-.24,0-.33,.09-.33,.32,0,.37,.01,.74,.02,1.11,0,.23,0,.45,0,.68,0,0-.02,.01-.03,.02-.13-.17-.32-.14-.49-.14-.2,0-.39,0-.59,0-.28,0-.37,.09-.37,.37,0,.12-.01,.24-.02,.36-.02,0-.05,0-.07,.01-.04-.1-.09-.21-.1-.31-.02-.24,.12-.42,.3-.58,.23-.2,.51-.31,.8-.38,.21-.05,.28-.16,.24-.38-.06-.3-.11-.61-.17-.91-.04-.21-.18-.31-.38-.25-.54,.15-1.05,.37-1.46,.77-.03,.03-.05,.05-.08,.08,0,0,0,0,0,0,0,0,0,0,0,0h0s0,0-.01,.01c-.01,.01-.03,.03-.05,.06-.1,.12-.28,.35-.44,.64,0,.02-.02,.04-.03,.05v.54s.05-.03,.06-.05c.02-.07,.04-.14,.07-.2,0,0,0,0,0-.01,0,0,0-.02,0-.02s0-.01,0-.02c0,0,0-.01,0-.02,0,0,0-.01,0-.02,0,0,0,0,0,0,0,0,0,0,0,0,0,0,0,0,0,0,0-.02,.02-.04,.02-.05,0,0,0-.02,.01-.03,0-.02,.02-.03,.02-.05,.01-.03,.03-.06,.05-.09,0-.01,.02-.03,.02-.04,.02-.04,.05-.08,.07-.11,.01-.02,.02-.03,.03-.05,.01-.02,.02-.03,.03-.05,0,0,0-.01,.01-.02,.02-.02,.03-.04,.05-.06,.04-.05,.09-.11,.14-.16,0,0,.01-.01,.02-.02,0,0,.01-.01,.02-.02,.02-.02,.05-.05,.07-.07,0,0,.02-.01,.02-.02,.02-.02,.04-.04,.06-.06,.02-.02,.04-.04,.07-.05,.02-.02,.04-.03,.06-.05,0,0,.01,0,.02-.01,.02-.01,.04-.03,.06-.04,0,0,0,0,0,0,.02-.01,.04-.03,.06-.04,0,0,0,0,0,0,.02-.01,.03-.02,.05-.03,0,0,0,0,0,0,.02,0,.03-.02,.05-.03,.01,0,.02-.01,.03-.02,0,0,.02-.01,.03-.02,.01,0,.03-.02,.04-.02,.04-.02,.07-.04,.11-.06,.02-.01,.05-.02,.07-.03,.03-.01,.05-.03,.08-.04,.06-.02,.11-.05,.17-.07,.03-.01,.06-.02,.09-.03,.09-.03,.18-.06,.27-.09,.01,0,.03,0,.06,0,.06,.32,.12,.64,.19,.97-.42,.1-.79,.26-1.08,.56-.18,.2-.29,.43-.28,.7,0,.41,.33,.7,.77,.68,0-.16,0-.32,0-.48q0-.35,.36-.35c.14,0,.28,0,.42,0,.04,0,.07,.05,.11,.09,0,0,0,.03,0,.04v1.48c-.74,.14-1.47,.22-2.13-.28-.01,0-.03-.02-.04-.03-.02-.01-.03-.03-.05-.04-.01,0-.02-.02-.03-.03,0,0-.02-.02-.03-.03,0,0,0,0-.01-.01,0,0-.01-.01-.02-.02,0,0-.02-.02-.02-.03,0,0,0,0-.01-.01,0,0,0,0,0-.01,0,0,0,0,0,0,0,0,0,0,0,0,0,0-.01-.01-.02-.02,0,0,0,0,0,0,0,0-.01-.02-.02-.03,0,0-.01-.02-.02-.03-.02-.03-.04-.07-.06-.1,0,0,0-.02-.01-.03,0-.02-.02-.03-.02-.05,0-.01-.01-.02-.02-.04,0,0,0,0,0,0,0-.02-.01-.03-.02-.05,0,0,0,0,0,0,0-.02-.01-.03-.02-.05,0,0,0,0,0,0,0,0,0,0,0-.01,0-.03-.04-.05-.07-.07v.57s.05,.08,.09,.13c0,0,0,0,0,0,.01,.02,.03,.03,.04,.05,0,0,0,0,0,0,.03,.03,.06,.06,.09,.09,.2,.2,.45,.35,.72,.43,.31,.09,.64,.15,.97,.11,.35-.04,.72-.04,1-.21,.12,.05,.21,.11,.3,.12,.31,.01,.62,0,.92,0,.21,0,.3-.11,.3-.32,0-.18-.01-.36-.02-.55,0-.05,0-.09,0-.14,.21,.31,.4,.62,.56,.95,.14,.28,.37,.27,.56,.08,.13-.14,.28-.26,.42-.39,.09,.34,.12,.37,.47,.37,.25,0,.5,0,.76,0,.24,0,.34-.1,.33-.34,0-.78,0-1.56-.01-2.34Zm-1.61,1.97c-.21,.19-.42,.38-.64,.59-.09-.17-.18-.32-.27-.48-.23-.41-.45-.83-.68-1.24-.05-.09-.05-.14,.03-.22,.12-.12,.24-.26,.32-.42,.19-.41-.07-.76-.53-.73v2.93h-.9v-3.64c.12,0,.24,0,.36,0,.44,.03,.87,.06,1.31,.12,.21,.03,.4,.12,.56,.27,.21,.2,.2,.44,.18,.7-.03,.35-.2,.6-.44,.83-.02,.02,0,.11,.03,.15,.23,.31,.46,.61,.7,.91,.08,.1,.07,.15-.02,.23Zm.09-.64c-.14-.18-.27-.34-.4-.51-.02-.02-.02-.09,0-.11,.14-.17,.26-.36,.32-.57,.01-.04,.02-.07,.03-.11,0,0,0,0,0,0,.02-.08,.03-.16,.04-.23,0-.02,0-.03,0-.05v.27h0v1.31Zm1.22,1.08h-.94v-.25c0-1.08,0-2.16,0-3.24,0-.12,.03-.16,.15-.16,.26,.01,.52,0,.79,0v3.64Z"/>
        <path class="cls-6" d="M9.06,9.16v1.22c-.14-.18-.27-.34-.4-.51-.02-.02-.02-.09,0-.11,.14-.17,.26-.36,.32-.57,.01-.04,.02-.08,.03-.11,.02-.08,.03-.16,.04-.23,0-.02,0-.03,0-.05v.27s0,.09,0,.09Z"/>
        <polygon class="cls-6" points="9.06 9.07 9.06 9.16 9.05 9.07 9.06 9.07"/>
        <path class="cls-6" d="M9.05,8.37v.26c-.01-.13-.05-.23-.08-.3,.01,.02,.02,.04,.04,.06,.01,0,.03,0,.04-.01Z"/>
        <path class="cls-5" d="M3.07,9.63s.05-.03,.06-.05c.31-1.02,1.06-1.55,2.03-1.84,.01,0,.03,0,.06,0,.06,.32,.12,.64,.19,.97-.42,.1-.79,.26-1.08,.56-.18,.2-.29,.43-.28,.7,0,.41,.33,.7,.77,.68,0-.16,0-.32,0-.48q0-.35,.36-.35c.14,0,.28,0,.42,0,.04,0,.07,.05,.11,.09,0,0,0,.03,0,.04,0,.49,0,.97,0,1.48-.74,.14-1.47,.22-2.13-.28-.22-.16-.35-.39-.43-.64,0-.03-.04-.05-.07-.07,0-.27,0-.54,0-.81Z"/>
        <path class="cls-4" d="M22.32,9.03c-.06-.03-.11-.07-.17-.1,.13-.04,.24-.05,.36-.05,.22,0,.33-.13,.31-.34-.03-.27-.07-.54-.11-.81-.03-.2-.14-.3-.34-.26-.28,.06-.56,.11-.82,.22-.23,.09-.44,.25-.67,.39-.02-.03-.04-.07-.06-.12-.05-.11-.09-.21-.15-.32-.1-.18-.28-.22-.45-.09-.07,.05-.13,.1-.19,.16-.2,.18-.4,.35-.61,.54-.06-.07-.13-.17-.21-.26-.71-.74-2.05-.71-2.79,.05-.37,.38-.56,.85-.64,1.37-.01,.1-.05,.12-.14,.12-.24,0-.48,0-.71,0-.27,0-.35,.09-.35,.36,0,.12,0,.25,0,.37-.01,0-.03,.01-.04,.02-.04-.06-.1-.11-.12-.17-.06-.18-.03-.35,.08-.51,.23-.33,.57-.5,.96-.57,.22-.04,.32-.18,.28-.4-.05-.31-.11-.62-.17-.92-.04-.22-.18-.31-.39-.24-.31,.1-.64,.2-.92,.36-.5,.28-.9,.68-1.16,1.21-.03,.07-.08,.13-.12,.21-.05-.23-.13-.3-.34-.29-.1,0-.2,.01-.29,.02-.04,0-.08-.01-.12-.02,0-.02,0-.03,0-.05,.04-.01,.08-.03,.12-.03,.16,0,.32,0,.48-.02,.19,0,.29-.11,.29-.3,0-.27,0-.53-.01-.8,0-.22-.12-.31-.35-.3-.57,.03-1.15,.06-1.72,.08-.18,0-.29,.11-.29,.29,0,1.2,0,2.39,0,3.59,0,.19,.11,.31,.3,.31,.61,.02,1.21,.03,1.82,.04,.22,0,.32-.1,.32-.32,0-.11,0-.22,0-.33,.02-.01,.03-.02,.05-.04,.02,.04,.04,.09,.07,.12,.13,.11,.26,.24,.42,.32,.66,.35,1.36,.34,2.06,.17,.27-.06,.3-.13,.3-.41v-.36s.05,.04,.06,.06c.44,.66,1.07,.88,1.83,.8,.66-.07,1.16-.39,1.48-.97,.3-.53,.39-1.1,.31-1.7,0-.06,0-.13,0-.21,.34,.07,.53-.2,.81-.28-.06,.26-.09,.51,0,.75,.1,.29,.3,.49,.53,.67,.1,.08,.21,.15,.31,.23,0,.02,0,.03,0,.05-.15,.02-.3,.04-.45,.05-.21,.01-.32,.13-.3,.33,.03,.28,.07,.56,.11,.83,.03,.21,.16,.3,.37,.26,.11-.02,.22-.04,.33-.07,.46-.12,.88-.31,1.21-.67,.5-.56,.71-1.48-.3-2.05Zm-9.48,2.42s-.09,.06-.13,.05c-.37,0-.75-.03-1.12-.04-.2,0-.39,0-.6,0,0-.14,0-.25,0-.37,0-1.04,0-2.07,0-3.11,0-.14,.03-.18,.18-.18,.47-.01,.94-.04,1.41-.06,.06,0,.12,0,.19,0v.83h-.85v.7c.25-.01,.49-.02,.73-.03v.79h-.73v.6h.94c0,.28,0,.55,0,.82Zm2.89-.03c-.47,.12-.95,.16-1.43,.05-1.03-.23-1.48-1.21-1.02-2.22,.31-.68,.84-1.1,1.51-1.38,.14-.06,.29-.1,.45-.16,.07,.34,.13,.66,.19,.99-.33,.08-.63,.19-.89,.4-.3,.24-.48,.52-.46,.92,.02,.37,.37,.66,.75,.61v-.82h.89v1.59Zm3.58-1.06c-.39,1.01-1.28,1.38-2.24,1.07-.51-.16-.8-.56-.94-1.07-.06-.2-.07-.41-.09-.53,.04-.74,.22-1.32,.74-1.74,.44-.36,.96-.45,1.5-.31,.74,.19,1.06,.68,1.17,1.41,.06,.4,.02,.79-.13,1.17Zm1.24-2.07c-.21,.12-.43,.24-.66,.37-.04-.09-.09-.17-.12-.26-.01-.03,0-.09,.02-.11,.19-.17,.39-.33,.61-.52,.07,.16,.14,.3,.2,.45,0,.01-.03,.06-.05,.07Zm2.03,2.36c-.35,.59-.93,.78-1.58,.89-.04-.29-.07-.57-.11-.85,.16-.02,.3-.03,.44-.07,.11-.03,.22-.08,.31-.15,.13-.09,.13-.23,0-.33-.14-.12-.29-.22-.43-.33-.28-.21-.48-.47-.45-.85,.02-.3,.19-.54,.41-.73,.35-.3,.76-.44,1.21-.5,.01,0,.03,0,.05,.01,.04,.27,.07,.54,.11,.82-.15,.02-.28,.03-.42,.05-.06,0-.12,.02-.18,.04-.22,.09-.25,.28-.06,.42,.12,.09,.25,.16,.38,.24,.51,.34,.63,.8,.32,1.33Z"/>
        <path class="cls-5" d="M6.3,7.81c.12,0,.24,0,.36,0,.44,.03,.87,.06,1.31,.12,.21,.03,.4,.12,.56,.27,.21,.2,.2,.44,.18,.7-.03,.35-.2,.6-.44,.83-.02,.02,0,.11,.03,.15,.23,.31,.46,.61,.7,.91,.08,.1,.07,.15-.02,.23-.21,.19-.42,.38-.64,.59-.09-.17-.18-.32-.27-.48-.23-.41-.45-.83-.68-1.24-.05-.09-.05-.14,.03-.22,.12-.12,.24-.26,.32-.42,.19-.41-.07-.76-.53-.73v2.93h-.9v-3.64Z"/>
        <path class="cls-5" d="M10.27,11.45h-.94c0-.09,0-.17,0-.25,0-1.08,0-2.16,0-3.24,0-.12,.03-.16,.15-.16,.26,.01,.52,0,.79,0v3.64Z"/>
        <path class="cls-5" d="M19.44,9.2c-.1-.73-.42-1.22-1.17-1.41-.54-.14-1.06-.04-1.5,.31-.52,.42-.7,1-.74,1.74,.02,.12,.04,.33,.09,.53,.14,.51,.44,.9,.94,1.07,.96,.31,1.86-.06,2.24-1.07,.14-.38,.19-.77,.13-1.17Zm-1.12,1.1c-.09,.22-.22,.41-.5,.45-.27,.04-.49-.06-.62-.3-.14-.25-.16-.52-.16-.8-.01,0-.02,0-.04-.01,.06-.23,.11-.46,.19-.68,.1-.28,.36-.45,.62-.43,.26,.01,.47,.2,.56,.5,.12,.43,.11,.86-.05,1.28Z"/>
        <path class="cls-5" d="M14.84,9.83h.89v1.59c-.47,.12-.95,.16-1.43,.05-1.03-.23-1.48-1.21-1.02-2.22,.31-.68,.84-1.1,1.51-1.38,.14-.06,.29-.1,.45-.16,.07,.34,.13,.66,.19,.99-.33,.08-.63,.19-.89,.4-.3,.24-.48,.52-.46,.92,.02,.37,.37,.66,.75,.61v-.82Z"/>
        <path class="cls-5" d="M10.99,11.47c0-.14,0-.25,0-.37,0-1.04,0-2.07,0-3.11,0-.14,.03-.18,.18-.18,.47-.01,.94-.04,1.41-.06,.06,0,.12,0,.19,0v.83h-.85v.7c.25-.01,.48-.02,.73-.03v.79h-.73v.6h.94c0,.28,0,.55,0,.82,0,.02-.09,.05-.13,.05-.37,0-.75-.03-1.12-.04-.2,0-.39,0-.6,0Z"/>
        <path class="cls-5" d="M22.44,7.75c.04,.27,.07,.54,.11,.82-.15,.02-.28,.03-.42,.05-.06,0-.12,.02-.18,.04-.22,.09-.25,.28-.06,.42,.12,.09,.25,.16,.37,.24,.51,.34,.63,.8,.32,1.33-.35,.59-.93,.78-1.58,.89-.04-.29-.07-.57-.11-.85,.16-.02,.3-.03,.44-.07,.11-.03,.22-.08,.31-.15,.13-.09,.13-.23,0-.33-.14-.12-.29-.22-.43-.33-.28-.21-.48-.47-.45-.85,.02-.3,.19-.54,.41-.73,.35-.3,.76-.44,1.21-.5,.01,0,.03,0,.05,.01Z"/>
        <path class="cls-5" d="M19.9,8.66c-.04-.09-.09-.17-.12-.26-.01-.03,0-.09,.02-.11,.19-.17,.39-.33,.61-.52,.07,.16,.14,.3,.2,.45,0,.01-.03,.06-.05,.07-.21,.12-.43,.24-.66,.37Z"/>
        <path class="cls-4" d="M18.38,9.02c-.08-.3-.3-.48-.56-.5-.25-.01-.51,.15-.62,.43-.08,.22-.13,.45-.19,.68,.01,0,.02,0,.04,.01,0,.28,.02,.55,.16,.8,.13,.24,.35,.34,.62,.3,.27-.04,.41-.23,.5-.45,.17-.42,.17-.85,.05-1.28Zm-.25,.97s0,0,0,0h0c-.03,.11-.07,.22-.14,.33-.14,.2-.41,.2-.52-.01-.06-.11-.09-.23-.11-.36-.05-.29-.02-.57,.1-.83,.03-.06,.06-.13,.11-.18,.11-.13,.26-.15,.38-.08h0s0,0,0,0c0,0,.04,.02,.08,.08,.05,.07,.12,.21,.13,.46,.01,.06,.03,.13,.04,.19-.01,0-.03,0-.04,0h0c0,.1,0,.2-.01,.29,0,.04-.01,.07-.02,.11Z"/>
        <path class="cls-4" d="M3.4,10.99l-.2,.2s0,0,0,0c0-.01-.06-.09-.13-.22-.12-.23-.27-.63-.25-1.09,.03-.28,.13-.55,.25-.78,0-.02,.02-.04,.03-.05l.14,.25s0,0,0,0c0,0,0,0,0,0,0,0,0,0,0,.02,0,0,0,.02-.02,.04-.07,.17-.23,.67-.07,1.18,.04,.14,.11,.28,.21,.41,0,0,0,0,0,0,0,0,.01,.02,.02,.03,0,0,.01,.02,.02,.03Z"/>
      </g>
      <path class="cls-4" d="M9.05,8.8s0,.03,0,.05c0,.07-.02,.15-.04,.23,0,.04-.02,.07-.03,.11l-.09-1.01s0,0,0,0c0,0,.05,.05,.08,.14,0,0,0,0,0,0,.03,.07,.07,.17,.08,.3,0,.01,0,.02,0,.04,0,.04,0,.09,0,.13Z"/>
      <polyline class="cls-6" points="9.05 7.91 9.05 8.02 9.05 8.11 9.05 8.67 9.05 8.8"/>
      <line class="cls-6" x1="9.06" y1="9.25" x2="9.06" y2="9.16"/>
      <path class="cls-4" d="M18.28,9.85l-.13,.03h0c.01-.09,.02-.18,.01-.28h0s0-.01,0-.01c0-.07,0-.14,0-.2-.02-.25-.08-.39-.13-.46-.07-.2,.13-.03,.13-.03l.17,.33s0,.33,0,.34c0,.02-.03,.28-.03,.28Z"/>
      <polygon class="cls-4" points="17.94 8.85 17.94 8.85 17.94 8.85 17.94 8.85"/>
      <path class="cls-4" d="M18.16,9.59s0,0,0,.01h0s0-.01,0-.01Z"/>
      <path class="cls-5" d="M17.06,9.98s-.07-.48,.1-.91-.23-.37-.23-.37c0,0-.56,.5-.54,.54s.28,.84,.28,.87,.2,.14,.2,.14l.19-.27Z"/>
      <path class="cls-4" d="M17.38,8.69s-.35,.28-.33,.95,.21-.48,.21-.48l.08-.18,.05-.3Z"/>
    </g>
  </g>
</svg>