<?xml version="1.0" encoding="UTF-8"?>
<svg id="Capa_2" data-name="Capa 2" xmlns="http://www.w3.org/2000/svg" viewBox="0 0 51.83 38.8">
  <defs>
    <style>
      .cls-1 {
        fill: #030204;
      }

      .cls-2 {
        fill: #e7e000;
      }

      .cls-3 {
        fill: #10110e;
      }

      .cls-4 {
        fill: #fdfdfd;
      }

      .cls-5, .cls-6, .cls-7 {
        fill: none;
      }

      .cls-6 {
        stroke: #fff;
        stroke-dasharray: 0 0 .74 .74;
        stroke-width: .08px;
      }

      .cls-6, .cls-7 {
        stroke-miterlimit: 10;
      }

      .cls-7 {
        stroke: #1d1e1c;
        stroke-dasharray: 0 .73;
        stroke-width: .16px;
      }
    </style>
  </defs>
  <g id="Capa_1-2" data-name="Capa 1">
    <circle class="cls-1" cx="25.91" cy="19.4" r="19.4"/>
    <path class="cls-6" d="M44.22,19.4c0,10.11-8.2,18.31-18.31,18.31-24.29-.96-24.28-35.66,0-36.62,10.11,0,18.31,8.2,18.31,18.31h0Z"/>
    <path class="cls-2" d="M49.14,19.42l2.69,6.87h-3.94s-.85,.01-.85,.01h0s-12.96,0-12.96,0c-1.96,2.32-4.89,3.8-8.16,3.8s-6.21-1.48-8.16-3.8H5.58S0,26.31,0,26.31l2.69-6.88L0,12.55H17.75c1.96-2.32,4.89-3.8,8.16-3.8s6.17,1.46,8.13,3.75c.01,.02,.03,.03,.04,.05h12.96s4.79,0,4.79,0l-2.69,6.87Z"/>
    <path class="cls-7" d="M25.91,29.28c-2.91,0-5.66-1.28-7.54-3.51l-.24-.29H4.76s-3.57,.01-3.57,.01l2.37-6.06L1.19,13.37H18.13l.24-.29c1.88-2.23,4.63-3.51,7.54-3.51s5.63,1.26,7.51,3.47h.01s.02,.03,.03,.04l.24,.29h14.15s2.78,0,2.78,0l-2.37,6.06,2.37,6.06h-3.56s-.04,0-.04,0h-13.34l-.24,.29c-1.88,2.23-4.63,3.51-7.54,3.51Z"/>
    <g>
      <g>
        <path class="cls-3" d="M21.2,18.15c0-.81,.02-1.61,.02-2.42,0-.35-.18-.59-.49-.59-.69-.01-1.39-.01-2.08,0-.31,0-.47,.18-.49,.49,0,.08,0,.15,0,.23v.2s0,.18,0,.18v.54h0v.52c-.03-.26-.09-.46-.16-.61,0,0,0,0,0,0-.03-.05-.06-.1-.09-.14-.03-.04-.05-.09-.08-.13,0,0,0,0,0,0h0c-.04-.08-.09-.15-.14-.21-.52-.58-1.19-.86-1.94-.92-1.01-.09-2.02-.11-3.03-.14-.48-.02-.67,.17-.66,.65,0,.74,.02,1.48,.03,2.22,0,.45,0,.9,0,1.36-.02,.01-.04,.03-.06,.04-.27-.35-.63-.28-.99-.29-.39,0-.79,0-1.18,0-.57,0-.74,.18-.74,.74,0,.24-.02,.48-.04,.72-.05,0-.09,.02-.14,.03-.07-.21-.19-.42-.2-.63-.03-.49,.25-.85,.6-1.15,.46-.4,1.02-.62,1.61-.76,.43-.1,.57-.33,.49-.76-.11-.61-.23-1.21-.34-1.82-.08-.43-.35-.62-.77-.51-1.09,.29-2.11,.74-2.93,1.53-.05,.05-.1,.1-.15,.15,0,0,0,0,0,0,0,0,0,0-.01,.01h0s-.01,.02-.02,.02c-.03,.03-.06,.07-.11,.12-.2,.23-.56,.69-.88,1.29-.02,.04-.04,.07-.06,.11v1.08s.1-.06,.12-.1c.04-.14,.09-.28,.14-.41,0,0,0-.01,0-.02,0-.02,.01-.03,.02-.05s.01-.03,.02-.04c0-.01,0-.02,.01-.03,0-.01,0-.02,.01-.03,0,0,0-.01,0-.02,0,0,0,0,0,0,0,0,0-.01,0-.02,.02-.04,.03-.07,.05-.11,0-.02,.02-.04,.02-.05,.02-.03,.03-.06,.05-.1,.03-.06,.06-.12,.09-.17,.02-.03,.03-.06,.05-.08,.04-.08,.09-.15,.14-.23,.02-.03,.04-.07,.07-.1,.02-.03,.04-.06,.07-.09,0-.01,.01-.02,.02-.03,.03-.04,.06-.08,.09-.12,.09-.11,.18-.22,.27-.32,.01-.01,.03-.03,.04-.04,.01-.01,.03-.03,.04-.04,.04-.05,.09-.09,.14-.13,.02-.02,.03-.03,.05-.04,.04-.04,.09-.08,.13-.11,.04-.04,.09-.07,.13-.11,.04-.03,.08-.06,.12-.09,.01,0,.02-.02,.03-.02,.04-.03,.08-.06,.11-.08,0,0,.01,0,.02-.01,.04-.03,.08-.06,.13-.08,0,0,.01,0,.02-.01,.03-.02,.06-.04,.09-.06,0,0,0,0,.01,0,.03-.02,.06-.04,.09-.06,.02-.01,.04-.03,.06-.04,.02-.01,.04-.02,.05-.03,.03-.02,.06-.03,.09-.05,.07-.04,.14-.08,.22-.11,.05-.02,.09-.05,.14-.07,.05-.03,.11-.05,.16-.07,.11-.05,.22-.1,.34-.14,.06-.02,.11-.04,.17-.06,.17-.06,.35-.12,.54-.18,.03,0,.05,0,.12,0,.12,.64,.25,1.29,.37,1.94-.84,.19-1.58,.52-2.16,1.13-.37,.39-.57,.85-.57,1.39,0,.81,.67,1.41,1.54,1.36,0-.32,0-.64,0-.96q0-.71,.71-.71c.28,0,.56-.01,.84,0,.08,0,.15,.11,.21,.17,.01,.01,0,.05,0,.08v2.96c-1.48,.28-2.95,.44-4.26-.56-.03-.02-.05-.04-.08-.06-.03-.03-.06-.05-.09-.08-.02-.02-.04-.04-.06-.06-.02-.02-.04-.04-.06-.06,0,0-.02-.02-.03-.03-.01-.01-.03-.03-.04-.04-.02-.02-.03-.04-.05-.06,0,0-.01-.02-.02-.03,0,0-.01-.01-.02-.02,0,0,0,0,0,0,0,0,0,0,0,0-.01-.01-.02-.03-.03-.04,0,0,0,0,0-.01-.01-.02-.03-.04-.04-.06-.01-.02-.03-.04-.04-.06-.04-.06-.08-.13-.12-.2,0-.02-.02-.03-.03-.05-.02-.03-.03-.06-.04-.09-.01-.02-.02-.05-.03-.07,0,0,0-.01,0-.02-.01-.03-.03-.06-.04-.1,0,0,0,0,0,0-.01-.03-.03-.07-.04-.1,0,0,0,0,0,0,0,0,0-.02,0-.02-.02-.05-.09-.09-.14-.14v1.14c.05,.09,.11,.17,.17,.25,0,0,0,0,.01,.01,.03,.03,.05,.06,.08,.09,0,0,0,0,0,0,.06,.06,.12,.13,.18,.19,.41,.41,.9,.7,1.45,.86,.62,.18,1.28,.3,1.95,.22,.71-.09,1.43-.08,2.01-.42,.24,.1,.42,.23,.6,.24,.62,.03,1.24,.02,1.85,0,.41,0,.61-.22,.6-.64,0-.36-.02-.73-.03-1.09,0-.09,0-.18,0-.28,.42,.63,.8,1.25,1.12,1.9,.27,.57,.75,.55,1.11,.17,.26-.27,.56-.52,.85-.79,.18,.69,.24,.73,.94,.73,.51,0,1.01,0,1.52,0,.49,0,.67-.2,.67-.69,0-1.56-.02-3.13-.02-4.69Zm-3.22,3.94c-.43,.38-.84,.77-1.29,1.19-.19-.34-.36-.65-.53-.97-.46-.83-.91-1.66-1.37-2.48-.1-.18-.09-.29,.07-.45,.25-.25,.49-.53,.63-.84,.38-.82-.13-1.52-1.07-1.45v5.87h-1.8v-7.3c.24,0,.48-.02,.72,0,.88,.07,1.75,.13,2.62,.23,.42,.05,.8,.25,1.11,.55,.43,.4,.39,.89,.36,1.41-.05,.7-.4,1.2-.88,1.66-.04,.04,0,.23,.05,.3,.46,.61,.93,1.22,1.41,1.82,.16,.19,.14,.3-.04,.46Zm.18-1.29c-.29-.36-.55-.68-.8-1.01-.04-.05-.04-.17,0-.22,.28-.35,.52-.72,.65-1.15,.02-.07,.04-.14,.05-.22,0,0,0,0,.01,0,.04-.17,.07-.32,.08-.46,0-.04,0-.07,0-.1v.54h0v2.62Zm2.44,2.16h-1.88v-.51c0-2.16,0-4.32-.02-6.49,0-.25,.05-.33,.31-.32,.52,.02,1.05,0,1.59,0v7.3Z"/>
        <path class="cls-5" d="M18.16,18.36v2.45c-.29-.36-.55-.68-.8-1.01-.04-.05-.04-.17,0-.22,.28-.35,.52-.72,.65-1.15,.03-.08,.05-.15,.07-.22,.04-.17,.07-.32,.08-.46,0-.04,0-.07,0-.1v.54s0,.17,0,.17Z"/>
        <polygon class="cls-5" points="18.16 18.19 18.16 18.36 18.15 18.19 18.16 18.19"/>
        <path class="cls-5" d="M18.15,16.79v.52c-.03-.26-.09-.46-.16-.61,.02,.04,.05,.08,.07,.11,.03,0,.06-.01,.09-.02Z"/>
        <path class="cls-4" d="M6.15,19.32s.1-.06,.11-.1c.62-2.04,2.13-3.11,4.07-3.69,.02,0,.05,0,.12,0,.12,.64,.25,1.29,.37,1.94-.84,.19-1.58,.52-2.16,1.13-.37,.39-.57,.85-.57,1.39,0,.81,.67,1.41,1.54,1.37,0-.32,0-.64,0-.96q0-.71,.71-.71c.28,0,.56-.01,.84,0,.08,0,.15,.11,.21,.17,.01,.01,0,.05,0,.08,0,.97,0,1.95,0,2.96-1.48,.28-2.95,.44-4.26-.56-.43-.33-.69-.78-.87-1.28-.02-.05-.09-.09-.14-.14,0-.54,0-1.09,0-1.63Z"/>
        <path class="cls-3" d="M44.76,18.11c-.11-.07-.23-.14-.34-.21,.25-.08,.49-.09,.72-.1,.44-.02,.67-.26,.62-.69-.06-.54-.14-1.08-.22-1.61-.06-.4-.29-.59-.68-.52-.56,.11-1.12,.22-1.65,.43-.47,.19-.88,.5-1.35,.78-.03-.06-.08-.14-.12-.23-.1-.21-.19-.43-.29-.64-.19-.37-.57-.44-.89-.19-.13,.1-.26,.21-.39,.32-.4,.35-.81,.71-1.22,1.07-.12-.14-.26-.34-.42-.51-1.42-1.48-4.11-1.42-5.6,.11-.75,.77-1.13,1.71-1.27,2.75-.03,.19-.09,.25-.28,.25-.48-.01-.96,0-1.43,0-.54,0-.71,.18-.71,.73,0,.25,0,.5,0,.74-.03,.01-.05,.02-.08,.03-.08-.11-.2-.21-.24-.34-.12-.36-.06-.71,.15-1.01,.47-.67,1.14-1.01,1.93-1.15,.44-.08,.63-.37,.56-.81-.11-.62-.22-1.23-.35-1.85-.09-.44-.36-.62-.78-.47-.63,.21-1.28,.4-1.85,.72-1.01,.56-1.8,1.37-2.33,2.42-.07,.13-.15,.26-.25,.42-.1-.47-.26-.6-.69-.59-.2,0-.39,.03-.59,.03-.08,0-.16-.02-.24-.03,0-.03,0-.06,0-.09,.08-.02,.16-.05,.24-.06,.32-.02,.64-.02,.95-.03,.38-.02,.59-.23,.59-.6,0-.53,0-1.07-.03-1.6-.02-.44-.24-.62-.69-.6-1.15,.06-2.3,.11-3.45,.16-.36,.02-.58,.23-.58,.58,0,2.4,0,4.8,0,7.19,0,.39,.22,.61,.61,.62,1.22,.03,2.43,.06,3.65,.09,.44,0,.63-.2,.63-.64,0-.22,0-.44,0-.66,.03-.02,.07-.05,.1-.07,.05,.08,.07,.18,.14,.24,.27,.23,.53,.49,.84,.65,1.32,.7,2.72,.68,4.13,.35,.54-.13,.6-.25,.6-.82v-.73c.08,.07,.1,.09,.12,.11,.88,1.32,2.15,1.77,3.67,1.61,1.32-.14,2.32-.79,2.98-1.94,.61-1.06,.77-2.2,.63-3.41-.02-.13,0-.26,0-.42,.68,.14,1.06-.41,1.62-.56-.13,.52-.17,1.02,0,1.51,.19,.57,.59,.99,1.07,1.34,.2,.15,.41,.3,.62,.45,0,.03-.01,.07-.02,.1-.3,.03-.6,.08-.9,.09-.42,.03-.64,.26-.6,.67,.06,.56,.14,1.11,.21,1.67,.06,.41,.32,.6,.74,.53,.22-.04,.44-.08,.66-.13,.92-.24,1.77-.61,2.42-1.34,1-1.11,1.41-2.96-.59-4.12Zm-19.01,4.86s-.17,.11-.26,.11c-.75-.02-1.5-.06-2.24-.08-.39-.01-.78,0-1.2,0,0-.28,0-.51,0-.74,0-2.08,0-4.16-.02-6.24,0-.28,.07-.36,.35-.37,.94-.02,1.89-.08,2.83-.13,.12,0,.24,0,.39,0v1.67h-1.71v1.41c.49-.02,.97-.04,1.47-.06v1.58h-1.47v1.21h1.88c0,.56,0,1.1-.01,1.64Zm5.79-.06c-.94,.25-1.9,.32-2.87,.11-2.07-.46-2.96-2.42-2.04-4.45,.61-1.36,1.69-2.21,3.04-2.76,.28-.12,.58-.21,.91-.32,.13,.68,.26,1.33,.39,1.99-.67,.15-1.27,.39-1.79,.8-.6,.47-.97,1.05-.92,1.85,.05,.73,.75,1.33,1.51,1.23v-1.65h1.78v3.2Zm7.18-2.13c-.78,2.03-2.57,2.76-4.5,2.14-1.02-.33-1.61-1.13-1.89-2.14-.11-.4-.15-.82-.19-1.06,.07-1.48,.44-2.64,1.48-3.48,.89-.72,1.92-.91,3.02-.63,1.49,.38,2.13,1.36,2.34,2.82,.12,.8,.03,1.59-.26,2.35Zm2.49-4.15c-.43,.24-.86,.48-1.32,.74-.09-.18-.18-.35-.24-.52-.02-.06,0-.17,.05-.21,.38-.34,.78-.67,1.22-1.04,.14,.32,.28,.6,.4,.9,.01,.03-.06,.11-.11,.14Zm4.07,4.73c-.7,1.17-1.86,1.57-3.16,1.79-.07-.59-.14-1.14-.21-1.7,.31-.05,.6-.07,.88-.14,.22-.06,.44-.16,.63-.29,.25-.18,.25-.47,.01-.67-.28-.23-.58-.44-.87-.66-.56-.43-.97-.95-.91-1.7,.05-.61,.37-1.07,.81-1.46,.69-.61,1.53-.89,2.43-1.01,.03,0,.05,.01,.11,.03,.07,.55,.14,1.08,.21,1.64-.3,.03-.57,.06-.83,.1-.12,.02-.24,.04-.35,.09-.45,.17-.51,.56-.13,.85,.24,.18,.5,.32,.75,.49,1.02,.68,1.27,1.61,.64,2.66Z"/>
        <path class="cls-4" d="M12.63,15.66c.24,0,.48-.02,.72,0,.88,.07,1.75,.13,2.62,.23,.42,.05,.8,.25,1.11,.55,.42,.4,.39,.89,.36,1.41-.05,.7-.4,1.2-.88,1.66-.04,.04,0,.23,.05,.3,.46,.61,.93,1.22,1.41,1.82,.16,.19,.14,.3-.04,.46-.43,.38-.84,.77-1.29,1.19-.19-.34-.36-.65-.53-.97-.46-.83-.91-1.66-1.37-2.48-.1-.18-.09-.29,.07-.45,.25-.25,.49-.53,.63-.84,.38-.82-.13-1.52-1.07-1.45v5.87h-1.8v-7.3Z"/>
        <path class="cls-4" d="M20.6,22.97h-1.88c0-.18,0-.34,0-.51,0-2.16,0-4.32-.02-6.49,0-.25,.05-.33,.31-.32,.52,.02,1.05,0,1.59,0v7.3Z"/>
        <path class="cls-4" d="M38.98,18.44c-.21-1.46-.85-2.44-2.34-2.82-1.09-.28-2.13-.09-3.02,.63-1.04,.84-1.41,2.01-1.48,3.48,.04,.24,.08,.66,.19,1.06,.28,1.01,.87,1.81,1.89,2.14,1.93,.62,3.72-.12,4.5-2.14,.29-.76,.37-1.54,.26-2.35Zm-2.25,2.2c-.18,.45-.45,.83-1,.9-.55,.08-.98-.12-1.24-.6-.28-.5-.33-1.05-.32-1.6-.02,0-.05-.01-.07-.02,.13-.46,.22-.92,.39-1.36,.21-.56,.72-.9,1.23-.87,.52,.03,.95,.4,1.11,1,.24,.86,.22,1.73-.11,2.56Z"/>
        <path class="cls-4" d="M29.76,19.71h1.78v3.2c-.94,.25-1.9,.32-2.87,.11-2.07-.46-2.96-2.42-2.04-4.45,.61-1.36,1.69-2.21,3.04-2.76,.28-.12,.58-.21,.9-.32,.13,.68,.26,1.33,.39,1.99-.67,.15-1.27,.39-1.79,.8-.6,.47-.97,1.05-.92,1.85,.05,.73,.75,1.33,1.51,1.23v-1.65Z"/>
        <path class="cls-4" d="M22.04,22.99c0-.28,0-.51,0-.74,0-2.08,0-4.16-.02-6.24,0-.28,.07-.36,.35-.37,.94-.02,1.89-.08,2.83-.13,.12,0,.24,0,.38,0v1.67h-1.71v1.41c.49-.02,.97-.04,1.47-.06v1.58h-1.47v1.21h1.87c0,.56,0,1.1-.01,1.64,0,.04-.17,.11-.26,.11-.75-.02-1.5-.06-2.24-.08-.39-.01-.78,0-1.2,0Z"/>
        <path class="cls-4" d="M44.98,15.55c.07,.55,.14,1.08,.21,1.64-.3,.03-.57,.06-.83,.1-.12,.02-.24,.04-.35,.09-.45,.17-.51,.56-.13,.85,.24,.18,.5,.32,.75,.49,1.02,.68,1.27,1.61,.64,2.66-.7,1.17-1.86,1.57-3.16,1.79-.07-.59-.14-1.14-.21-1.7,.31-.05,.6-.07,.88-.14,.22-.06,.44-.16,.63-.29,.25-.18,.25-.47,.01-.67-.28-.23-.58-.44-.87-.66-.56-.43-.97-.95-.91-1.7,.05-.61,.37-1.07,.81-1.46,.69-.61,1.53-.89,2.43-1.01,.03,0,.05,.01,.11,.03Z"/>
        <path class="cls-4" d="M39.89,17.37c-.09-.18-.18-.35-.24-.52-.02-.06,0-.17,.05-.21,.38-.34,.78-.67,1.22-1.04,.14,.32,.28,.6,.4,.9,.01,.03-.06,.11-.11,.14-.43,.24-.86,.48-1.32,.74Z"/>
        <path class="cls-3" d="M36.85,18.08c-.17-.6-.6-.97-1.11-1-.51-.03-1.03,.31-1.23,.87-.16,.44-.26,.91-.39,1.36,.02,0,.05,.01,.07,.02-.01,.56,.04,1.1,.32,1.6,.27,.49,.69,.68,1.24,.6,.55-.08,.82-.45,1-.9,.33-.83,.35-1.7,.11-2.56Zm-.5,1.94s0,0,0,0h0c-.05,.23-.14,.45-.28,.65-.28,.4-.82,.41-1.05-.02-.11-.22-.18-.47-.22-.72-.09-.57-.04-1.14,.19-1.67,.05-.13,.13-.25,.22-.35,.22-.25,.53-.31,.75-.16h0s0,0,0,0c.01,0,.08,.04,.17,.15,.11,.15,.24,.42,.27,.93,.03,.13,.05,.26,.08,.38-.03,0-.05,.01-.08,.02h0v.02c0,.19,0,.37-.03,.55,0,.07-.02,.14-.04,.22Z"/>
        <path class="cls-3" d="M6.81,22.04l-.39,.41s0,0,0,0c-.02-.02-.13-.18-.26-.45-.24-.47-.54-1.25-.5-2.19,.07-.57,.27-1.1,.5-1.57,.02-.04,.04-.07,.06-.11l.28,.5s0,0,0,0c0,0,0,0,0,.02,0,0,0,.02-.01,.03,0,.02-.02,.04-.03,.07-.13,.34-.45,1.35-.14,2.36,.09,.28,.22,.56,.42,.82,0,0,0,0,0,0,.01,.02,.03,.04,.04,.05,.01,.02,.03,.04,.05,.06Z"/>
      </g>
      <path class="cls-3" d="M18.15,17.65s0,.07,0,.1c-.01,.14-.04,.3-.08,.46-.02,.07-.04,.15-.07,.22l-.18-2.02s0,0,0,0c.01,.01,.09,.11,.17,.28,0,0,0,0,0,0,.07,.15,.13,.35,.16,.61,0,.02,0,.05,0,.07,0,.08,0,.17,0,.27Z"/>
      <polyline class="cls-5" points="18.15 15.87 18.15 16.07 18.15 16.25 18.15 17.38 18.15 17.65"/>
      <line class="cls-5" x1="18.16" y1="18.54" x2="18.16" y2="18.36"/>
      <path class="cls-3" d="M36.65,19.75l-.27,.06h0c.02-.18,.03-.37,.03-.55v-.02h0c0-.15,0-.28,0-.4-.04-.51-.16-.78-.27-.93-.14-.41,.25-.06,.25-.06l.33,.65s-.01,.65,0,.69c.01,.03-.07,.57-.07,.57Z"/>
      <polygon class="cls-3" points="35.96 17.75 35.96 17.75 35.96 17.75 35.96 17.75"/>
      <path class="cls-3" d="M36.41,19.23s0,.02,0,.02v-.02h0Z"/>
      <path class="cls-4" d="M34.21,20s-.14-.95,.21-1.82-.46-.73-.46-.73c0,0-1.12,1.01-1.08,1.07s.55,1.68,.55,1.75,.4,.27,.4,.27l.38-.54Z"/>
      <path class="cls-3" d="M34.85,17.42s-.69,.56-.66,1.91c.03,1.36,.41-.96,.41-.96l.16-.36,.09-.59Z"/>
    </g>
  </g>
</svg>