<?xml version="1.0" encoding="UTF-8"?>
<svg id="Capa_2" data-name="Capa 2" xmlns="http://www.w3.org/2000/svg" viewBox="0 0 12.2 71">
  <defs>
    <style>
      .cls-1 {
        opacity: .31;
      }

      .cls-2 {
        fill: #5276b9;
      }
    </style>
  </defs>
  <g id="Capa_2-2" data-name="Capa 2">
    <g id="Capa_1-2" data-name="Capa 1-2" class="cls-1">
      <g>
        <rect class="cls-2" width=".8" height="71"/>
        <rect class="cls-2" x="11.4" width=".8" height="71"/>
        <polygon class="cls-2" points="2.5 0 3.5 0 3.5 .5 9.8 .5 9.8 1.2 9.8 1.2 9.8 6.7 5.6 6.7 5.6 3.7 3.5 3.7 3.5 8.2 9.8 8.2 9.8 9 9.8 9 9.8 14.4 5.6 14.4 5.6 11.4 3.5 11.4 3.5 15.9 9.8 15.9 9.8 16.7 9.8 16.7 9.8 22.1 5.6 22.1 5.6 19.1 3.5 19.1 3.5 23.6 9.8 23.6 9.8 24.4 9.8 24.4 9.8 29.8 5.6 29.8 5.6 26.8 3.5 26.8 3.5 31.3 9.8 31.3 9.8 32.1 9.8 32.1 9.8 37.5 5.6 37.5 5.6 34.5 3.5 34.5 3.5 39 9.8 39 9.8 39.8 9.8 39.8 9.8 45.2 5.6 45.2 5.6 42.2 3.5 42.2 3.5 46.8 9.8 46.8 9.8 47.5 9.8 47.5 9.8 52.9 5.6 52.9 5.6 49.9 3.5 49.9 3.5 54.5 9.8 54.5 9.8 55.2 9.8 55.2 9.8 60.6 5.6 60.6 5.6 57.6 3.5 57.6 3.5 62.2 9.8 62.2 9.8 62.9 9.8 62.9 9.8 68.3 5.6 68.3 5.6 65.3 3.5 65.3 3.5 69.9 9.8 69.9 9.8 70.6 9.8 70.6 9.8 71 8.8 71 8.8 71 2.5 71 2.5 64.2 6.7 64.2 6.7 67.2 8.8 67.2 8.8 63.2 2.5 63.2 2.5 56.5 6.7 56.5 6.7 59.5 8.8 59.5 8.8 55.5 2.5 55.5 2.5 48.8 6.7 48.8 6.7 51.8 8.8 51.8 8.8 47.8 2.5 47.8 2.5 41.1 6.7 41.1 6.7 44.1 8.8 44.1 8.8 40.1 2.5 40.1 2.5 33.4 6.7 33.4 6.7 36.4 8.8 36.4 8.8 32.4 2.5 32.4 2.5 25.7 6.7 25.7 6.7 28.7 8.8 28.7 8.8 24.7 2.5 24.7 2.5 18 6.7 18 6.7 21 8.8 21 8.8 17 2.5 17 2.5 10.3 6.7 10.3 6.7 13.3 8.8 13.3 8.8 9.3 2.5 9.3 2.5 2.6 6.7 2.6 6.7 5.6 8.8 5.6 8.8 1.6 2.5 1.6 2.5 0"/>
      </g>
    </g>
  </g>
</svg>