<?xml version="1.0" encoding="utf-8"?>
<!-- Generator: Adobe Illustrator 26.5.0, SVG Export Plug-In . SVG Version: 6.00 Build 0)  -->
<svg version="1.1" id="Capa_2_00000119814359857304293480000001941297144075607684_"
	 xmlns="http://www.w3.org/2000/svg" xmlns:xlink="http://www.w3.org/1999/xlink" x="0px" y="0px" viewBox="0 0 70.7 12.2"
	 style="enable-background:new 0 0 70.7 12.2;" xml:space="preserve">
<style type="text/css">
	.st0{opacity:0.1;}
	.st1{fill:#E7E000;}
</style>
<g id="Capa_1-2" class="st0">
	<g>
		<g>
			<path class="st1" d="M0.4,10c0,0-0.1,0.1-0.2,0.1c0,0-0.1,0-0.1,0c0,0,0.1,0.1,0.1,0.1c0,0.1,0,0.1,0,0.2c0,0.1-0.1,0.1-0.2,0.1
				c0,0,0,0,0,0H0V9.9c0,0,0.1,0,0.1,0.1C0.1,10,0,9.9,0,9.9V9.3c0.2,0.1,0.3,0.3,0.5,0.4C0.5,9.8,0.5,9.9,0.4,10z"/>
			<path class="st1" d="M3.8,8.7C3.6,8.9,3.4,9,3.2,9.2C3,9.3,2.8,9.5,2.7,9.7l0,0c-0.1,0.1-0.1,0.2,0,0.3c0,0.1,0.1,0.1,0.1,0.1
				c0,0,0,0,0,0c0,0,0.1,0,0.1,0c0,0.1-0.1,0.1-0.1,0.2c0,0.1,0,0.1,0.1,0.1c0,0,0.1,0,0.1,0c0,0,0,0,0,0l0.1,0
				c0.3-0.1,0.7-0.1,1-0.1h0.1c0.2,0,0.3,0,0.5,0c0.2,0,0.4,0,0.6-0.1c0.1,0,0.1-0.1,0.2-0.1s0-0.1,0-0.2S5.4,9.7,5.3,9.6
				C5.1,9.6,4.9,9.5,4.7,9.5c-0.2,0-0.4,0.1-0.6,0.1C3.7,9.7,3.3,9.8,3,10c0.2-0.1,0.4-0.2,0.5-0.4c0.2-0.1,0.4-0.2,0.6-0.4
				C4.3,9.2,4.5,9,4.8,8.9C5,8.8,5.2,8.7,5.4,8.5c0.1-0.1,0.1-0.1,0.1-0.2C5.4,8.1,5.3,8,5.1,8c-0.3,0-0.5,0.2-0.7,0.3
				C4.2,8.5,4,8.6,3.8,8.7L3.8,8.7z"/>
			<path class="st1" d="M7.6,9.3c-0.1,1-0.7,1.9-1.5,2.4c-0.5,0.3-1.1,0.5-1.7,0.5c-0.4,0-0.8-0.1-1.2-0.2c-0.4-0.2-0.7-0.4-0.8-0.7
				c-0.1-0.2-0.2-0.4-0.3-0.6C2,10.1,1.9,9.7,2,9.2c0,0,0,0,0,0c0,0,0,0,0,0C1.8,9.2,1.8,9.1,1.8,9c0,0.1-0.1,0.1-0.2,0.1
				c0,0,0,0,0,0C1.5,9.1,1.4,9.1,1.4,9v0c0,0.1-0.1,0.2-0.2,0.2c0,0,0,0-0.1,0l0,0c0.1,0.6,0,1-0.2,1.5c-0.1,0.3-0.2,0.5-0.3,0.6
				c-0.2,0.2-0.4,0.4-0.7,0.6v-0.5c0.1-0.1,0.2-0.2,0.3-0.3c0.1-0.1,0.2-0.3,0.3-0.5c0.1-0.3,0.2-0.7,0.2-1c0,0,0,0.1-0.1,0.1
				c0,0-0.1,0-0.1,0c-0.1,0-0.1,0-0.1-0.1C0.3,9.5,0.2,9.3,0,9.2V8.3c0.1,0.1,0.2,0.2,0.3,0.4c0.2,0.2,0.3,0.5,0.5,0.7c0,0,0,0,0,0
				c0-0.1,0-0.1,0-0.2C0.6,9,0.5,8.7,0.4,8.5C0.3,8.2,0.1,8,0,7.9V6.6c0.2,0.2,0.3,0.4,0.4,0.7c0.2,0.3,0.3,0.6,0.4,0.9
				c0-0.1-0.1-0.2-0.1-0.3C0.7,7.6,0.6,7.2,0.4,6.8C0.3,6.5,0.2,6.2,0,5.9V4.5c0.3,0.3,0.5,0.6,0.6,1c0.2,0.4,0.3,0.8,0.4,1.1
				C1.2,7,1.2,7.4,1.3,7.7c0-0.5-0.1-1-0.1-1.5V5.8c0-0.3,0-0.7,0-1V4.2c0-0.2,0-0.5,0.2-0.7c0.1-0.1,0.3-0.2,0.4-0.1
				c0,0,0.1,0.1,0.1,0.1C2,3.7,2,4,2,4.2v0.7c0,0.3,0,0.7,0,1v0.4c0,0.4,0,0.8-0.1,1.2C2,7.2,2,6.9,2.1,6.6c0.1-0.4,0.3-0.8,0.4-1.1
				c0.2-0.4,0.3-0.8,0.7-1c0.1-0.1,0.1-0.1,0.2-0.1c0.1,0,0.1,0,0.2,0.1c0.1,0.1,0.1,0.2,0.1,0.2C3.6,5.1,3.4,5.3,3.3,5.6
				c0,0.1-0.1,0.1-0.1,0.2C3,6.2,2.9,6.5,2.7,6.8S2.5,7.6,2.4,7.9c0,0.1,0,0.2-0.1,0.2c0.1-0.3,0.2-0.6,0.4-0.8
				C2.9,7,3.1,6.7,3.3,6.5C3.4,6.2,3.7,5.9,4,5.8c0.1-0.1,0.3,0,0.4,0.1c0,0.1,0,0.2,0,0.2C4.2,6.4,4,6.6,3.9,6.8l0,0.1
				C3.6,7.1,3.4,7.4,3.3,7.6C3.1,7.9,2.9,8.2,2.8,8.4C2.7,8.7,2.5,8.9,2.4,9.2c0,0.1,0,0.1,0,0.1c0,0,0,0,0,0
				c0.1-0.2,0.3-0.5,0.5-0.7C3,8.4,3.2,8.2,3.4,8C3.6,7.8,3.8,7.6,4,7.4C4.2,7.2,4.4,7,4.7,6.9c0.1,0,0.2,0,0.2,0S5.1,7,5.1,7.1
				c0,0.1,0,0.1,0,0.2C4.9,7.6,4.7,7.8,4.5,8C4.4,8.1,4.2,8.2,4.1,8.3L3.9,8.5L3.3,9.1C3.1,9.2,2.9,9.4,2.7,9.6c0,0-0.1,0.1-0.1,0.1
				h0c0,0-0.1,0-0.1-0.1c0,0,0,0,0-0.1c0,0.3,0.1,0.7,0.2,1c0.1,0.2,0.2,0.4,0.2,0.5c0.2,0.2,0.4,0.4,0.7,0.5
				c0.8,0.4,1.7,0.3,2.4-0.2c0.7-0.4,1.2-1.2,1.3-2.1C7.4,7.9,6.6,6.6,6,5.7C4.7,3.8,3.1,2.1,1.6,0.6C1.1,1.1,0.5,1.6,0,2.2V1.6
				C0.9,0.7,1.5,0,1.5,0c0,0,0.1,0,0.1,0s3.4,3.5,4.7,5.4C7,6.4,7.8,7.8,7.6,9.3z"/>
		</g>
		<path class="st1" d="M5.3,0.8c0,0.3-0.3,0.6-0.6,0.6S4.2,1.1,4.2,0.8s0.3-0.6,0.6-0.6S5.3,0.5,5.3,0.8z"/>
		<circle class="st1" cx="7" cy="0.8" r="0.8"/>
		<path class="st1" d="M9.9,0.8c0,0.3-0.3,0.6-0.6,0.6S8.7,1.1,8.7,0.8S9,0.2,9.3,0.2S9.9,0.5,9.9,0.8z"/>
		<g>
			<path class="st1" d="M10.3,8.1c-0.1,0.1-0.1,0.1-0.1,0.2c0,0.1,0,0.1,0.1,0.2c0.2,0.2,0.4,0.3,0.6,0.4c0.2,0.1,0.4,0.2,0.6,0.4
				c0.2,0.1,0.4,0.2,0.6,0.4c0.2,0.1,0.4,0.2,0.5,0.4c-0.3-0.2-0.7-0.3-1.1-0.4c-0.2,0-0.4-0.1-0.6-0.1c-0.2,0-0.4,0-0.6,0.1
				c-0.1,0-0.1,0.1-0.1,0.1c-0.1,0.1,0,0.3,0.2,0.4c0.2,0.1,0.4,0.1,0.6,0.1c0.2,0,0.3,0,0.5,0h0.1c0.3,0,0.7,0.1,1,0.1l0.1,0l0,0
				c0,0,0,0,0,0c0.1,0,0.1,0,0.2-0.1c0.1-0.1,0-0.2,0-0.3c0,0,0.1,0,0.1,0c0.1,0,0.1,0,0.2-0.1c0.1-0.1,0.1-0.2,0-0.3
				c-0.2-0.2-0.4-0.3-0.6-0.5c-0.2-0.2-0.4-0.3-0.6-0.4c-0.2-0.1-0.4-0.3-0.6-0.4c-0.2-0.1-0.4-0.2-0.7-0.3
				C10.4,8.1,10.4,8.1,10.3,8.1L10.3,8.1z"/>
			<path class="st1" d="M16.4,8.7C16.2,8.9,16,9,15.8,9.2c-0.2,0.2-0.4,0.3-0.6,0.5l0,0c-0.1,0.1-0.1,0.2,0,0.3
				c0,0.1,0.1,0.1,0.1,0.1c0,0,0,0,0.1,0c0,0,0.1,0,0.1,0c-0.1,0.1-0.1,0.1-0.1,0.2c0,0.1,0,0.1,0.1,0.1c0,0,0.1,0,0.1,0
				c0,0,0,0,0,0l0.1,0c0.3-0.1,0.7-0.1,1-0.1h0.1c0.1,0,0.3,0,0.5,0c0.2,0,0.4,0,0.6-0.1c0.1,0,0.1-0.1,0.1-0.1
				c0.1-0.1,0-0.3-0.1-0.4c-0.2-0.1-0.4-0.1-0.6-0.1c-0.2,0-0.4,0.1-0.6,0.1c-0.4,0.1-0.8,0.2-1.1,0.4c0.2-0.1,0.4-0.2,0.5-0.4
				c0.2-0.1,0.4-0.2,0.6-0.4c0.2-0.1,0.4-0.2,0.6-0.4c0.2-0.1,0.4-0.2,0.6-0.4C18,8.4,18,8.4,18,8.3c0-0.1,0-0.1-0.1-0.2
				c-0.1,0-0.1-0.1-0.2-0.1c-0.3,0-0.5,0.2-0.7,0.3C16.8,8.5,16.6,8.6,16.4,8.7L16.4,8.7z"/>
			<path class="st1" d="M18.9,5.4c-1.3-1.9-4.7-5.4-4.7-5.4c0,0-0.1,0-0.1,0c0,0-3.4,3.5-4.7,5.4C8.7,6.4,7.9,7.8,8.1,9.3
				c0.1,1,0.7,1.9,1.5,2.4c0.5,0.3,1.1,0.5,1.6,0.5c0.4,0,0.8-0.1,1.2-0.2c0.4-0.2,0.6-0.4,0.9-0.7c0.1-0.2,0.2-0.4,0.3-0.6
				c0.2-0.5,0.2-1,0.2-1.5l0,0c0,0,0,0,0.1,0C13.9,9.2,14,9.1,14,9c0,0,0,0,0,0c0,0.1,0.1,0.1,0.2,0.1c0,0,0,0,0,0
				c0.1,0,0.1,0,0.2-0.1c0,0.1,0.1,0.1,0.1,0.1c0,0,0,0,0,0c0,0,0,0,0.1,0c-0.1,0.5,0,1,0.2,1.5c0.1,0.3,0.2,0.5,0.3,0.6
				c0.2,0.3,0.5,0.5,0.9,0.7c0.4,0.2,0.8,0.2,1.2,0.2c0.6,0,1.2-0.2,1.6-0.5c0.8-0.5,1.4-1.4,1.5-2.4C20.4,7.8,19.6,6.4,18.9,5.4
				L18.9,5.4z M14.5,6.2V5.8c0-0.3,0-0.7,0-1V4.1c0-0.2,0-0.5-0.2-0.7c0,0-0.1-0.1-0.1-0.1c-0.1-0.1-0.3,0-0.4,0.1
				c-0.2,0.3-0.2,0.5-0.2,0.7v0.7c0,0.3,0,0.7,0,1v0.4c0,0.5,0.1,1,0.1,1.5c-0.1-0.3-0.1-0.7-0.2-1.1c-0.1-0.4-0.3-0.8-0.4-1.1
				c-0.2-0.4-0.4-0.8-0.7-1c-0.1-0.1-0.1-0.1-0.2-0.1c-0.1,0-0.2,0.2-0.2,0.3c0.1,0.3,0.2,0.6,0.4,0.9c0,0.1,0.1,0.1,0.1,0.2
				c0.2,0.3,0.3,0.7,0.5,1s0.2,0.7,0.4,1.1c0,0.1,0.1,0.2,0.1,0.3c-0.1-0.3-0.3-0.6-0.4-0.9s-0.3-0.6-0.5-0.8
				c-0.2-0.2-0.4-0.5-0.7-0.7c-0.1,0-0.2,0-0.2,0c-0.1,0-0.1,0.1-0.1,0.2c0,0.1,0,0.1,0,0.2c0.1,0.3,0.3,0.5,0.5,0.7l0.1,0.1
				c0.2,0.2,0.4,0.5,0.6,0.8c0.2,0.2,0.3,0.5,0.5,0.8c0.1,0.2,0.3,0.5,0.4,0.8c0,0.1,0,0.1,0,0.2c0,0,0,0,0,0
				c-0.1-0.2-0.3-0.5-0.5-0.7c-0.2-0.2-0.4-0.4-0.5-0.6c-0.2-0.2-0.4-0.4-0.6-0.6C11.5,7.2,11.3,7,11,6.9c-0.1,0-0.1,0-0.2,0
				c-0.1,0-0.1,0.1-0.1,0.2c0,0.1,0,0.2,0,0.2C10.8,7.6,11,7.8,11.2,8c0.1,0.1,0.3,0.2,0.4,0.4l0.8,0.7c0.2,0.2,0.4,0.4,0.6,0.6l0,0
				c0,0,0.1,0.1,0.1,0.1c0,0,0.1,0,0.1,0c0,0,0.1-0.1,0.1-0.1c0,0.4-0.1,0.7-0.2,1c-0.1,0.2-0.1,0.4-0.2,0.5
				c-0.1,0.2-0.4,0.4-0.7,0.5c-0.8,0.3-1.7,0.3-2.4-0.2c-0.7-0.4-1.2-1.2-1.3-2.1C8.3,7.9,9.1,6.5,9.7,5.7c1.3-1.9,2.9-3.5,4.4-5.1
				c1.6,1.5,3.2,3.2,4.4,5.1c0.6,0.9,1.4,2.2,1.2,3.6c-0.1,0.9-0.6,1.7-1.3,2.1c-0.7,0.5-1.7,0.5-2.4,0.2c-0.3-0.1-0.5-0.3-0.7-0.5
				c-0.1-0.1-0.2-0.3-0.2-0.5c-0.1-0.3-0.2-0.7-0.2-1c0,0,0,0,0,0.1c0,0,0.1,0.1,0.1,0.1c0,0,0,0,0,0c0.1,0,0.1,0,0.1-0.1
				c0.2-0.2,0.4-0.4,0.6-0.6l0.6-0.6l0.2-0.2C16.8,8.2,16.9,8.1,17,8c0.2-0.2,0.4-0.4,0.5-0.7c0-0.1,0-0.1,0-0.2S17.5,7,17.5,6.9
				c-0.1,0-0.1,0-0.2,0c-0.3,0.1-0.6,0.3-0.7,0.5c-0.2,0.2-0.4,0.4-0.6,0.6c-0.2,0.2-0.4,0.4-0.5,0.6c-0.2,0.2-0.3,0.5-0.5,0.7l0,0
				c0,0,0,0,0,0c0-0.1,0-0.1,0-0.1c0.1-0.3,0.3-0.6,0.4-0.8c0.2-0.3,0.3-0.6,0.5-0.8c0.2-0.3,0.4-0.5,0.6-0.8l0-0.1
				c0.2-0.2,0.4-0.4,0.5-0.7c0-0.1,0-0.2,0-0.2c-0.1-0.1-0.2-0.2-0.4-0.1c-0.3,0.2-0.6,0.5-0.7,0.7c-0.2,0.3-0.4,0.6-0.5,0.8
				c-0.2,0.3-0.3,0.6-0.4,0.8c0-0.1,0-0.2,0.1-0.2c0.1-0.4,0.2-0.8,0.4-1.1c0.1-0.3,0.3-0.7,0.5-1c0-0.1,0.1-0.1,0.1-0.2
				c0.1-0.3,0.3-0.6,0.4-0.9c0-0.1,0-0.2-0.1-0.2c-0.1-0.1-0.3-0.1-0.4,0c-0.3,0.3-0.5,0.7-0.7,1c-0.2,0.4-0.3,0.8-0.4,1.1
				c-0.1,0.3-0.1,0.6-0.2,0.8C14.5,7,14.5,6.6,14.5,6.2L14.5,6.2z"/>
		</g>
		<path class="st1" d="M17.9,0.8c0,0.3-0.3,0.6-0.6,0.6s-0.6-0.3-0.6-0.6s0.3-0.6,0.6-0.6S17.9,0.5,17.9,0.8z"/>
		<circle class="st1" cx="19.6" cy="0.8" r="0.8"/>
		<path class="st1" d="M22.4,0.8c0,0.3-0.3,0.6-0.6,0.6s-0.6-0.3-0.6-0.6s0.3-0.6,0.6-0.6S22.4,0.5,22.4,0.8z"/>
		<g>
			<path class="st1" d="M22.9,8.1c0,0.1-0.1,0.1-0.1,0.2c0,0.1,0,0.1,0.1,0.2c0.2,0.2,0.4,0.3,0.6,0.4C23.8,9,24,9.2,24.1,9.3
				c0.2,0.1,0.4,0.2,0.6,0.4c0.2,0.1,0.4,0.2,0.5,0.4c-0.3-0.2-0.7-0.3-1.1-0.4c-0.2,0-0.4-0.1-0.6-0.1c-0.2,0-0.5,0-0.6,0.1
				c-0.1,0-0.1,0.1-0.1,0.1c0,0.1,0,0.3,0.2,0.4c0.2,0.1,0.4,0.1,0.6,0.1c0.2,0,0.3,0,0.5,0h0.1c0.3,0,0.7,0.1,1,0.1l0.1,0l0,0
				c0,0,0,0,0,0c0.1,0,0.1,0,0.2-0.1c0-0.1,0-0.1,0-0.2c0,0,0-0.1-0.1-0.1c0,0,0.1,0,0.1,0c0.1,0,0.1,0,0.2-0.1
				c0.1-0.1,0.1-0.2,0-0.3c-0.2-0.2-0.4-0.3-0.5-0.5c-0.2-0.2-0.4-0.3-0.6-0.4c-0.2-0.1-0.4-0.3-0.6-0.4c-0.2-0.1-0.4-0.2-0.7-0.3
				C23,8.1,23,8.1,22.9,8.1L22.9,8.1z"/>
			<path class="st1" d="M29,8.7c-0.2,0.1-0.4,0.3-0.6,0.4c-0.2,0.2-0.4,0.3-0.5,0.5l0,0c-0.1,0.1-0.1,0.2,0,0.3
				c0,0.1,0.1,0.1,0.1,0.1c0,0,0,0,0,0c0,0,0.1,0,0.1,0c0,0.1-0.1,0.1-0.1,0.2c0,0.1,0,0.1,0.1,0.1c0,0,0.1,0,0.1,0c0,0,0,0,0,0
				l0.1,0c0.4,0,0.7-0.1,1-0.1h0.1c0.1,0,0.3,0,0.5,0c0.2,0,0.4,0,0.6-0.1c0.1,0,0.1-0.1,0.1-0.1c0.1-0.1,0-0.3-0.1-0.4
				c-0.2-0.1-0.4-0.1-0.6-0.1c-0.2,0-0.4,0.1-0.6,0.1c-0.4,0.1-0.8,0.2-1.1,0.4c0.2-0.1,0.4-0.2,0.5-0.4c0.2-0.1,0.4-0.2,0.6-0.4
				c0.2-0.1,0.4-0.2,0.6-0.4c0.2-0.1,0.4-0.2,0.6-0.4c0.1-0.1,0.1-0.1,0.1-0.2c0-0.1,0-0.1-0.1-0.2c-0.1,0-0.1-0.1-0.2-0.1
				c-0.3,0-0.5,0.2-0.7,0.3C29.3,8.5,29.1,8.6,29,8.7L29,8.7z"/>
			<path class="st1" d="M31.5,5.4c-1.3-1.9-4.7-5.4-4.7-5.4c0,0-0.1,0-0.1,0S23.3,3.5,22,5.4c-0.6,0.9-1.5,2.4-1.3,3.9
				c0.1,1,0.7,1.9,1.5,2.4c0.5,0.3,1.1,0.5,1.6,0.5c0.4,0,0.8-0.1,1.2-0.2c0.4-0.2,0.6-0.4,0.9-0.7c0.1-0.2,0.2-0.4,0.3-0.6
				c0.2-0.5,0.2-0.9,0.2-1.5l0,0c0,0,0,0,0.1,0c0.1,0,0.2-0.1,0.2-0.2c0,0,0,0,0,0c0,0.1,0.1,0.1,0.2,0.1c0,0,0,0,0,0
				c0.1,0,0.1,0,0.2-0.1c0,0.1,0.1,0.1,0.1,0.1c0,0,0,0,0,0c0,0,0,0,0,0c-0.1,0.5,0,1,0.2,1.5c0.1,0.3,0.2,0.5,0.3,0.6
				c0.2,0.3,0.5,0.5,0.9,0.7c0.4,0.2,0.8,0.2,1.2,0.2c0.6,0,1.2-0.2,1.6-0.5c0.8-0.5,1.4-1.4,1.5-2.4C33,7.8,32.2,6.4,31.5,5.4
				L31.5,5.4z M27.1,6.2V5.8c0-0.3,0-0.7,0-1V4.1c0-0.2,0-0.5-0.2-0.7c0,0-0.1-0.1-0.1-0.1c-0.1,0-0.1,0-0.2,0
				c-0.1,0-0.1,0.1-0.2,0.1c-0.2,0.3-0.2,0.5-0.2,0.7v0.7c0,0.3,0,0.7,0,1v0.4c0,0.5,0.1,1,0.1,1.5c-0.1-0.3-0.1-0.7-0.2-1.1
				c-0.1-0.4-0.3-0.8-0.4-1.1c-0.2-0.4-0.4-0.8-0.7-1c-0.1-0.1-0.1-0.1-0.2-0.1c-0.1,0-0.2,0.2-0.2,0.3C24.7,5,24.9,5.3,25,5.6
				c0,0.1,0.1,0.1,0.1,0.2c0.2,0.3,0.3,0.7,0.5,1s0.2,0.7,0.4,1.1C26,8,26,8.1,26,8.2c-0.1-0.3-0.3-0.6-0.4-0.9s-0.3-0.6-0.5-0.8
				c-0.2-0.2-0.4-0.5-0.7-0.7c-0.1,0-0.2,0-0.2,0c-0.1,0-0.1,0.1-0.1,0.2c0,0.1,0,0.1,0,0.2c0.1,0.3,0.3,0.5,0.5,0.7l0,0.1
				c0.2,0.2,0.4,0.5,0.5,0.8c0.2,0.2,0.3,0.5,0.5,0.8c0.1,0.2,0.3,0.5,0.4,0.8c0,0.1,0,0.1,0,0.2c0,0,0,0,0,0
				c-0.1-0.2-0.3-0.5-0.5-0.7c-0.2-0.2-0.4-0.4-0.5-0.6c-0.2-0.2-0.4-0.4-0.6-0.6c-0.2-0.2-0.4-0.4-0.7-0.5c-0.1,0-0.1,0-0.2,0
				c-0.1,0-0.1,0.1-0.1,0.2c0,0.1,0,0.2,0,0.2c0.1,0.3,0.4,0.5,0.5,0.7c0.1,0.1,0.3,0.2,0.4,0.4L25,9.1c0.2,0.2,0.4,0.4,0.6,0.6l0,0
				c0,0,0.1,0.1,0.1,0.1c0,0,0.1,0,0.1,0c0,0,0.1-0.1,0.1-0.1c0,0.4-0.1,0.7-0.2,1c-0.1,0.2-0.1,0.4-0.2,0.5
				c-0.1,0.2-0.4,0.4-0.7,0.5c-0.8,0.3-1.7,0.3-2.4-0.2c-0.7-0.4-1.2-1.2-1.3-2.1c-0.2-1.4,0.6-2.7,1.2-3.6c1.3-1.9,2.9-3.5,4.4-5.1
				c1.5,1.5,3.2,3.2,4.4,5.1c0.6,0.9,1.4,2.2,1.2,3.6c-0.1,0.9-0.6,1.7-1.3,2.1c-0.7,0.5-1.7,0.5-2.4,0.2c-0.3-0.1-0.5-0.3-0.7-0.5
				c-0.1-0.1-0.2-0.3-0.2-0.5c-0.1-0.3-0.2-0.7-0.2-1c0,0,0,0,0,0.1c0,0,0.1,0.1,0.1,0.1c0,0,0,0,0,0c0,0,0.1,0,0.1-0.1
				c0.2-0.2,0.4-0.4,0.6-0.6L29,8.5l0.2-0.2c0.1-0.1,0.3-0.2,0.4-0.4c0.2-0.2,0.4-0.4,0.5-0.7c0-0.1,0-0.1,0-0.2S30.1,7,30.1,6.9
				c-0.1,0-0.1,0-0.2,0c-0.3,0.1-0.6,0.3-0.7,0.5c-0.2,0.2-0.4,0.4-0.6,0.6c-0.2,0.2-0.4,0.4-0.5,0.6c-0.2,0.2-0.3,0.5-0.5,0.7l0,0
				c0,0,0,0,0,0c0-0.1,0-0.1,0-0.1c0.1-0.3,0.3-0.6,0.4-0.8c0.2-0.3,0.3-0.6,0.5-0.8c0.2-0.3,0.4-0.5,0.5-0.8l0-0.1
				c0.2-0.2,0.4-0.4,0.5-0.7c0-0.1,0-0.2,0-0.2c-0.1-0.1-0.2-0.2-0.4-0.1c-0.3,0.2-0.6,0.5-0.7,0.7C28.2,6.7,28,7,27.8,7.3
				c-0.2,0.3-0.3,0.6-0.4,0.8c0-0.1,0-0.1,0.1-0.2c0.1-0.4,0.2-0.8,0.4-1.1c0.1-0.3,0.3-0.7,0.5-1c0-0.1,0.1-0.1,0.1-0.2
				c0.1-0.3,0.3-0.6,0.4-0.9c0-0.1,0-0.2-0.1-0.2c0-0.1-0.1-0.1-0.2-0.1c-0.1,0-0.1,0-0.2,0.1c-0.3,0.3-0.5,0.7-0.7,1
				c-0.2,0.4-0.3,0.8-0.4,1.1c-0.1,0.3-0.1,0.6-0.2,0.8C27,7,27.1,6.6,27.1,6.2L27.1,6.2z"/>
		</g>
		<path class="st1" d="M30.5,0.8c0,0.3-0.3,0.6-0.6,0.6s-0.6-0.3-0.6-0.6s0.3-0.6,0.6-0.6S30.5,0.5,30.5,0.8z"/>
		<circle class="st1" cx="32.2" cy="0.8" r="0.8"/>
		<path class="st1" d="M35,0.8c0,0.3-0.3,0.6-0.6,0.6s-0.6-0.3-0.6-0.6s0.3-0.6,0.6-0.6S35,0.5,35,0.8z"/>
		<g>
			<path class="st1" d="M35.5,8.1c-0.1,0.1-0.1,0.3,0,0.4c0.2,0.2,0.4,0.3,0.6,0.4c0.2,0.1,0.4,0.2,0.6,0.4c0.2,0.1,0.4,0.2,0.6,0.4
				c0.2,0.1,0.4,0.2,0.5,0.4c-0.3-0.2-0.7-0.3-1.1-0.4c-0.2,0-0.4-0.1-0.6-0.1c-0.2,0-0.5,0-0.6,0.1c-0.1,0-0.1,0.1-0.2,0.1
				c0,0.1,0,0.3,0.2,0.4c0.2,0.1,0.4,0.1,0.6,0.1c0.2,0,0.3,0,0.5,0h0.1c0.3,0,0.7,0.1,1,0.1l0.1,0l0,0c0,0,0,0,0,0
				c0.1,0,0.2,0,0.2-0.1c0-0.1,0-0.1,0-0.2c0,0,0-0.1-0.1-0.1c0,0,0.1,0,0.1,0c0.1,0,0.1,0,0.2-0.1c0.1-0.1,0.1-0.2,0-0.3
				c-0.2-0.2-0.3-0.3-0.5-0.5C37.5,9,37.2,8.9,37,8.8c-0.2-0.1-0.4-0.3-0.6-0.4c-0.2-0.1-0.4-0.2-0.7-0.3
				C35.6,8.1,35.5,8.1,35.5,8.1L35.5,8.1z"/>
			<path class="st1" d="M41.6,8.7C41.4,8.9,41.2,9,41,9.2c-0.2,0.2-0.4,0.3-0.5,0.5l0,0c-0.1,0.1-0.1,0.2,0,0.3
				c0,0.1,0.1,0.1,0.1,0.1c0,0,0,0,0,0c0,0,0.1,0,0.1,0c0,0.1-0.1,0.1-0.1,0.2c0,0.1,0,0.1,0.1,0.1c0,0,0.1,0,0.1,0c0,0,0,0,0,0
				l0.1,0c0.3-0.1,0.7-0.1,1-0.1H42c0.2,0,0.3,0,0.5,0c0.2,0,0.4,0,0.6-0.1c0.1,0,0.1-0.1,0.2-0.1c0.1-0.1,0-0.3-0.1-0.4
				c-0.2-0.1-0.4-0.1-0.6-0.1c-0.2,0-0.4,0.1-0.6,0.1c-0.4,0.1-0.8,0.2-1.1,0.4c0.2-0.1,0.4-0.2,0.5-0.4c0.2-0.1,0.4-0.2,0.6-0.4
				c0.2-0.1,0.4-0.2,0.6-0.4c0.2-0.1,0.4-0.2,0.6-0.4c0.1-0.1,0.1-0.1,0.1-0.2c0-0.1,0-0.1-0.1-0.2C43.1,8.1,43,8,42.9,8
				c-0.3,0-0.5,0.2-0.7,0.3C42,8.5,41.7,8.6,41.6,8.7L41.6,8.7z"/>
			<path class="st1" d="M44.1,5.4c-1.3-1.9-4.7-5.4-4.7-5.4s-0.1,0-0.1,0s-3.4,3.5-4.7,5.4c-0.6,0.9-1.5,2.4-1.3,3.9
				c0.1,1,0.7,1.9,1.5,2.4c0.5,0.3,1.1,0.5,1.7,0.5c0.4,0,0.8-0.1,1.2-0.2c0.4-0.2,0.7-0.4,0.8-0.7c0.1-0.2,0.2-0.4,0.3-0.6
				c0.2-0.5,0.2-0.9,0.2-1.5l0,0c0,0,0,0,0.1,0c0.1,0,0.2-0.1,0.2-0.2c0,0,0,0,0,0c0,0.1,0.1,0.1,0.2,0.1c0,0,0,0,0,0
				c0.1,0,0.1,0,0.2-0.1c0,0.1,0.1,0.1,0.1,0.1c0,0,0,0,0,0c0,0,0,0,0,0c-0.1,0.5,0,1,0.2,1.5c0.1,0.3,0.2,0.5,0.3,0.6
				c0.2,0.3,0.5,0.5,0.8,0.7c0.4,0.2,0.8,0.2,1.2,0.2c0.6,0,1.2-0.2,1.7-0.5c0.8-0.5,1.4-1.4,1.5-2.4C45.6,7.8,44.8,6.4,44.1,5.4
				L44.1,5.4z M39.7,6.2V5.8c0-0.3,0-0.7,0-1V4.1c0-0.2,0-0.5-0.2-0.7c0,0-0.1-0.1-0.1-0.1c-0.1-0.1-0.3,0-0.4,0.1
				c-0.2,0.3-0.2,0.5-0.2,0.7v0.7c0,0.3,0,0.7,0,1v0.4c0,0.5,0.1,1,0.1,1.5C39,7.3,38.9,7,38.8,6.6c-0.1-0.4-0.3-0.8-0.4-1.1
				c-0.2-0.4-0.3-0.8-0.7-1c-0.1-0.1-0.2-0.1-0.2-0.1c-0.2,0-0.2,0.2-0.2,0.3c0.1,0.3,0.2,0.6,0.4,0.9c0,0.1,0.1,0.1,0.1,0.2
				c0.2,0.3,0.3,0.7,0.5,1c0.1,0.3,0.2,0.7,0.4,1.1c0,0.1,0,0.2,0.1,0.3c-0.1-0.3-0.3-0.6-0.4-0.9s-0.3-0.6-0.5-0.8
				c-0.2-0.2-0.4-0.5-0.7-0.7c-0.1,0-0.2,0-0.2,0c-0.1,0.1-0.2,0.2-0.1,0.4c0.1,0.3,0.3,0.5,0.5,0.7l0,0.1c0.2,0.2,0.4,0.5,0.5,0.8
				c0.2,0.2,0.3,0.5,0.5,0.8c0.1,0.2,0.3,0.5,0.4,0.8c0,0.1,0,0.1,0,0.2c0,0,0,0,0,0c-0.1-0.2-0.3-0.5-0.5-0.7
				c-0.2-0.2-0.4-0.4-0.5-0.6c-0.2-0.2-0.4-0.4-0.6-0.6c-0.2-0.2-0.4-0.4-0.7-0.5c-0.1,0-0.2,0-0.2,0c-0.1,0.1-0.2,0.2-0.1,0.4
				C36,7.6,36.2,7.8,36.4,8c0.1,0.1,0.3,0.2,0.4,0.4l0.8,0.7c0.2,0.2,0.4,0.4,0.6,0.6l0,0c0,0,0.1,0.1,0.1,0.1c0,0,0.1,0,0.1,0
				c0,0,0.1-0.1,0.1-0.1c0,0.4-0.1,0.7-0.2,1c-0.1,0.2-0.2,0.4-0.2,0.5c-0.2,0.2-0.4,0.4-0.7,0.5c-0.8,0.3-1.7,0.3-2.4-0.2
				c-0.7-0.4-1.2-1.2-1.3-2.1c-0.2-1.4,0.6-2.7,1.2-3.6c1.3-1.9,2.9-3.5,4.4-5.1c1.5,1.5,3.2,3.2,4.4,5.1c0.6,0.9,1.4,2.2,1.2,3.6
				c-0.1,0.9-0.6,1.7-1.3,2.1c-0.7,0.5-1.7,0.5-2.4,0.2c-0.3-0.1-0.5-0.3-0.7-0.5c-0.1-0.1-0.2-0.3-0.2-0.5c-0.1-0.3-0.2-0.7-0.2-1
				c0,0,0,0,0,0.1c0,0,0.1,0.1,0.1,0.1c0,0,0,0,0,0c0,0,0.1,0,0.1-0.1c0.2-0.2,0.4-0.4,0.6-0.6l0.6-0.6l0.2-0.2
				c0.1-0.1,0.3-0.2,0.4-0.4c0.2-0.2,0.4-0.4,0.5-0.7c0-0.1,0-0.1,0-0.2S42.7,7,42.6,6.9c-0.1,0-0.1,0-0.2,0
				c-0.3,0.1-0.6,0.3-0.7,0.5c-0.2,0.2-0.4,0.4-0.6,0.6c-0.2,0.2-0.4,0.4-0.5,0.6c-0.2,0.2-0.3,0.5-0.5,0.7l0,0c0,0,0,0,0,0
				c0-0.1,0-0.1,0-0.1c0.1-0.3,0.3-0.6,0.4-0.8c0.2-0.3,0.3-0.6,0.5-0.8c0.2-0.3,0.4-0.5,0.5-0.8l0-0.1c0.2-0.2,0.4-0.4,0.5-0.7
				c0-0.1,0-0.2,0-0.2c0-0.1-0.1-0.1-0.2-0.1s-0.1,0-0.2,0c-0.3,0.2-0.6,0.5-0.7,0.7c-0.2,0.3-0.4,0.6-0.5,0.8
				c-0.2,0.3-0.3,0.6-0.4,0.8c0-0.1,0-0.1,0.1-0.2c0.1-0.4,0.2-0.8,0.4-1.1c0.1-0.3,0.3-0.7,0.5-1c0-0.1,0.1-0.1,0.1-0.2
				c0.1-0.3,0.3-0.6,0.4-0.9c0-0.1,0-0.2-0.1-0.2c0-0.1-0.1-0.1-0.2-0.1c-0.1,0-0.1,0-0.2,0.1c-0.3,0.3-0.5,0.7-0.7,1
				c-0.2,0.4-0.3,0.8-0.4,1.1c-0.1,0.3-0.2,0.6-0.2,0.8C39.6,7,39.6,6.6,39.7,6.2L39.7,6.2z"/>
		</g>
		<path class="st1" d="M43.1,0.8c0,0.3-0.3,0.6-0.6,0.6s-0.6-0.3-0.6-0.6s0.3-0.6,0.6-0.6S43.1,0.5,43.1,0.8z"/>
		<circle class="st1" cx="44.8" cy="0.8" r="0.8"/>
		<path class="st1" d="M47.6,0.8c0,0.3-0.3,0.6-0.6,0.6s-0.6-0.3-0.6-0.6s0.3-0.6,0.6-0.6S47.6,0.5,47.6,0.8z"/>
		<g>
			<path class="st1" d="M48.1,8.1C48,8.2,48,8.3,48,8.3c0,0.1,0,0.1,0.1,0.2c0.2,0.2,0.4,0.3,0.6,0.4c0.2,0.1,0.4,0.2,0.6,0.4
				c0.2,0.1,0.4,0.2,0.6,0.4c0.2,0.1,0.4,0.2,0.5,0.4c-0.3-0.2-0.7-0.3-1.1-0.4c-0.2,0-0.4-0.1-0.6-0.1c-0.2,0-0.5,0-0.6,0.1
				C48,9.7,48,9.7,48,9.8c0,0.1,0,0.3,0.2,0.4c0.2,0.1,0.4,0.1,0.6,0.1c0.2,0,0.3,0,0.5,0h0.1c0.3,0,0.7,0.1,1,0.1l0.1,0l0,0
				c0,0,0,0,0,0c0.1,0,0.2,0,0.2-0.1c0-0.1,0-0.2,0-0.3c0,0,0,0,0.1,0c0.1,0,0.1,0,0.2-0.1c0.1-0.1,0.1-0.2,0-0.3
				c-0.2-0.2-0.3-0.3-0.5-0.5c-0.2-0.2-0.4-0.3-0.6-0.4c-0.2-0.1-0.4-0.3-0.6-0.4c-0.2-0.1-0.4-0.2-0.7-0.3
				C48.2,8.1,48.1,8.1,48.1,8.1L48.1,8.1z"/>
			<path class="st1" d="M54.2,8.7C54,8.9,53.8,9,53.6,9.2c-0.2,0.2-0.4,0.3-0.5,0.5l0,0c-0.1,0.1-0.1,0.2,0,0.3
				c0,0.1,0.1,0.1,0.1,0.1c0,0,0,0,0,0c0,0,0.1,0,0.1,0c0,0.1-0.1,0.1-0.1,0.2c0,0.1,0,0.1,0.1,0.1c0,0,0.1,0,0.1,0c0,0,0,0,0,0
				l0.1,0c0.3-0.1,0.7-0.1,1-0.1h0.1c0.2,0,0.3,0,0.5,0c0.2,0,0.4,0,0.6-0.1c0.1,0,0.1-0.1,0.2-0.1c0.1-0.1,0-0.3-0.1-0.4
				c-0.2-0.1-0.4-0.1-0.6-0.1c-0.2,0-0.4,0.1-0.6,0.1C54,9.7,53.7,9.8,53.4,10c0.2-0.1,0.4-0.2,0.5-0.4c0.2-0.1,0.4-0.2,0.6-0.4
				c0.2-0.1,0.4-0.2,0.6-0.4c0.2-0.1,0.4-0.2,0.6-0.4c0.1-0.1,0.1-0.1,0.1-0.2c0-0.1,0-0.1-0.1-0.2c-0.1,0-0.1-0.1-0.2-0.1
				c-0.3,0-0.5,0.2-0.7,0.3C54.5,8.5,54.3,8.6,54.2,8.7L54.2,8.7z"/>
			<path class="st1" d="M56.7,5.4C55.4,3.5,52,0.1,52,0c0,0-0.1,0-0.1,0s-3.4,3.5-4.7,5.4c-0.6,0.9-1.5,2.4-1.3,3.9
				c0.1,1,0.7,1.9,1.5,2.4c0.5,0.3,1.1,0.5,1.7,0.5c0.4,0,0.8-0.1,1.2-0.2c0.4-0.2,0.7-0.4,0.8-0.7c0.1-0.2,0.2-0.4,0.3-0.6
				c0.2-0.5,0.2-1,0.2-1.5l0,0c0,0,0,0,0.1,0c0.1,0,0.2-0.1,0.2-0.2c0,0,0,0,0,0c0,0.1,0.1,0.1,0.2,0.1c0,0,0,0,0,0c0,0,0.1,0,0.1,0
				c0,0,0,0,0-0.1c0,0.1,0.1,0.1,0.1,0.1c0,0,0,0,0,0c0,0,0,0,0,0c-0.1,0.5,0,1,0.2,1.5c0.1,0.3,0.2,0.5,0.3,0.6
				c0.2,0.3,0.5,0.5,0.8,0.7c0.4,0.2,0.8,0.2,1.2,0.2c0.6,0,1.2-0.2,1.7-0.5c0.8-0.5,1.4-1.4,1.5-2.4C58.2,7.8,57.3,6.4,56.7,5.4
				L56.7,5.4z M52.3,6.2V5.8c0-0.3,0-0.7,0-1V4.1c0-0.2,0-0.5-0.2-0.7c0,0-0.1-0.1-0.1-0.1c-0.1-0.1-0.3,0-0.4,0.1
				c-0.2,0.3-0.2,0.5-0.2,0.7v0.7c0,0.3,0,0.7,0,1v0.4c0,0.5,0.1,1,0.1,1.5c-0.1-0.3-0.1-0.7-0.2-1.1c-0.1-0.4-0.3-0.8-0.4-1.1
				c-0.2-0.4-0.3-0.8-0.7-1c-0.1-0.1-0.2-0.1-0.2-0.1c-0.2,0-0.2,0.2-0.2,0.3c0.1,0.3,0.2,0.6,0.4,0.9c0,0.1,0.1,0.1,0.1,0.2
				c0.2,0.3,0.3,0.7,0.5,1c0.1,0.3,0.2,0.7,0.4,1.1c0,0.1,0,0.2,0.1,0.3c-0.1-0.3-0.3-0.6-0.4-0.9s-0.3-0.6-0.5-0.8
				c-0.2-0.2-0.4-0.5-0.7-0.7c-0.1,0-0.2,0-0.2,0C49.1,5.8,49,6,49.1,6.1c0.1,0.3,0.3,0.5,0.5,0.7l0,0.1c0.2,0.2,0.4,0.5,0.5,0.8
				c0.2,0.2,0.3,0.5,0.5,0.8c0.1,0.2,0.3,0.5,0.4,0.8c0,0.1,0,0.1,0,0.2c0,0,0,0,0,0c-0.1-0.2-0.3-0.5-0.5-0.7
				c-0.2-0.2-0.4-0.4-0.5-0.6c-0.2-0.2-0.4-0.4-0.6-0.6c-0.2-0.2-0.4-0.4-0.7-0.5c-0.1,0-0.2,0-0.2,0c-0.1,0.1-0.2,0.2-0.1,0.4
				C48.6,7.6,48.8,7.8,49,8c0.1,0.1,0.3,0.2,0.4,0.4l0.8,0.7c0.2,0.2,0.4,0.4,0.6,0.6l0,0c0,0,0.1,0.1,0.1,0.1c0,0,0.1,0,0.1,0
				c0,0,0.1-0.1,0.1-0.1c0,0.4-0.1,0.7-0.2,1c-0.1,0.2-0.2,0.4-0.2,0.5c-0.2,0.2-0.4,0.4-0.7,0.5c-0.8,0.3-1.7,0.3-2.4-0.2
				c-0.7-0.4-1.2-1.2-1.3-2.1c-0.2-1.4,0.6-2.7,1.2-3.6c1.3-1.9,2.9-3.5,4.4-5.1c1.5,1.5,3.2,3.2,4.4,5.1c0.6,0.9,1.4,2.2,1.2,3.6
				c-0.1,0.9-0.6,1.7-1.3,2.1c-0.7,0.5-1.7,0.5-2.4,0.2c-0.3-0.1-0.5-0.3-0.7-0.5c-0.1-0.1-0.2-0.3-0.2-0.5c-0.1-0.3-0.2-0.7-0.2-1
				c0,0,0,0,0,0.1c0,0,0.1,0.1,0.1,0.1c0,0,0,0,0,0c0,0,0.1,0,0.1-0.1c0.2-0.2,0.4-0.4,0.6-0.6l0.6-0.6l0.2-0.2
				c0.1-0.1,0.3-0.2,0.4-0.4c0.2-0.2,0.4-0.4,0.5-0.7c0-0.1,0-0.1,0-0.2S55.3,7,55.2,6.9c-0.1,0-0.1,0-0.2,0
				c-0.3,0.1-0.6,0.3-0.7,0.5c-0.2,0.2-0.4,0.4-0.6,0.6c-0.2,0.2-0.4,0.4-0.5,0.6c-0.2,0.2-0.3,0.5-0.5,0.7l0,0c0,0,0,0,0,0
				c0-0.1,0-0.1,0-0.1c0.1-0.3,0.3-0.6,0.4-0.8c0.2-0.3,0.3-0.6,0.5-0.8c0.2-0.3,0.4-0.5,0.5-0.8l0-0.1c0.2-0.2,0.4-0.4,0.5-0.7
				c0-0.1,0-0.2,0-0.2c-0.1-0.1-0.2-0.2-0.4-0.1c-0.3,0.2-0.6,0.5-0.7,0.7C53.3,6.7,53.2,7,53,7.3c-0.2,0.3-0.3,0.6-0.4,0.8
				c0-0.1,0-0.2,0.1-0.2c0.1-0.4,0.2-0.8,0.4-1.1s0.3-0.7,0.5-1c0-0.1,0.1-0.1,0.1-0.2c0.1-0.3,0.3-0.6,0.4-0.9c0-0.1,0-0.2-0.1-0.2
				c-0.1-0.1-0.3-0.1-0.4,0c-0.3,0.3-0.5,0.7-0.7,1s-0.3,0.8-0.4,1.1c-0.1,0.3-0.2,0.6-0.2,0.8C52.2,7,52.2,6.6,52.3,6.2L52.3,6.2z"
				/>
		</g>
		<path class="st1" d="M55.7,0.8c0,0.3-0.3,0.6-0.6,0.6s-0.6-0.3-0.6-0.6s0.3-0.6,0.6-0.6S55.7,0.5,55.7,0.8z"/>
		<circle class="st1" cx="57.4" cy="0.8" r="0.8"/>
		<path class="st1" d="M60.2,0.8c0,0.3-0.3,0.6-0.6,0.6s-0.6-0.3-0.6-0.6s0.3-0.6,0.6-0.6S60.2,0.5,60.2,0.8z"/>
		<g>
			<path class="st1" d="M60.7,8.1c0,0.1-0.1,0.1-0.1,0.2c0,0.1,0,0.1,0.1,0.2c0.2,0.2,0.4,0.3,0.6,0.4c0.2,0.1,0.4,0.2,0.6,0.4
				c0.2,0.1,0.4,0.2,0.6,0.4c0.2,0.1,0.4,0.2,0.5,0.4c-0.3-0.2-0.7-0.3-1.1-0.4c-0.2,0-0.4-0.1-0.6-0.1c-0.2,0-0.5,0-0.6,0.1
				c-0.1,0-0.1,0.1-0.2,0.1c0,0.1,0,0.3,0.2,0.4c0.2,0.1,0.4,0.1,0.6,0.1c0.2,0,0.3,0,0.5,0h0.1c0.3,0,0.7,0.1,1,0.1l0.1,0l0,0
				c0,0,0,0,0,0c0.1,0,0.2,0,0.2-0.1c0-0.1,0-0.1,0-0.2c0,0,0-0.1-0.1-0.1c0,0,0.1,0,0.1,0c0.1,0,0.1,0,0.2-0.1s0.1-0.1,0.1-0.2
				c0-0.1,0-0.1-0.1-0.2c-0.2-0.2-0.3-0.3-0.5-0.5c-0.2-0.2-0.4-0.3-0.6-0.4c-0.2-0.1-0.4-0.3-0.6-0.4c-0.2-0.1-0.4-0.2-0.7-0.3
				C60.8,8.1,60.7,8.1,60.7,8.1L60.7,8.1z"/>
			<path class="st1" d="M66.8,8.7c-0.2,0.1-0.4,0.3-0.6,0.4c-0.2,0.2-0.4,0.3-0.6,0.5l0,0c-0.1,0.1-0.1,0.2,0,0.3
				c0,0.1,0.1,0.1,0.2,0.1c0,0,0.1,0,0.1,0c-0.1,0.1-0.1,0.1-0.1,0.2c0,0.1,0,0.1,0.1,0.1c0,0,0.1,0,0.1,0c0,0,0,0,0,0l0.1,0
				c0.3,0,0.7-0.1,1-0.1h0.1c0.2,0,0.3,0,0.5,0c0.2,0,0.4,0,0.6-0.1c0.1,0,0.1-0.1,0.2-0.1c0.1-0.1,0-0.3-0.1-0.4
				c-0.2-0.1-0.4-0.1-0.6-0.1c-0.2,0-0.4,0.1-0.6,0.1c-0.4,0.1-0.8,0.2-1.1,0.4c0.2-0.1,0.4-0.2,0.5-0.4c0.2-0.1,0.4-0.2,0.6-0.4
				c0.2-0.1,0.4-0.2,0.6-0.4c0.2-0.1,0.4-0.2,0.6-0.4c0.1-0.1,0.1-0.1,0.1-0.2c0-0.1-0.1-0.1-0.1-0.2c-0.1,0-0.1-0.1-0.2-0.1
				c-0.3,0-0.5,0.2-0.7,0.3C67.1,8.5,66.9,8.6,66.8,8.7L66.8,8.7z"/>
			<path class="st1" d="M69.3,5.4C68,3.5,64.6,0.1,64.6,0s-0.1,0-0.1,0S61,3.5,59.7,5.4c-0.6,0.9-1.5,2.4-1.3,3.9
				c0.1,1,0.7,1.9,1.5,2.4c0.5,0.3,1.1,0.5,1.7,0.5c0.4,0,0.8-0.1,1.2-0.2c0.4-0.2,0.7-0.4,0.8-0.7c0.1-0.2,0.2-0.4,0.3-0.6
				c0.2-0.5,0.2-0.9,0.2-1.5l0,0c0,0,0,0,0.1,0c0.1,0,0.2-0.1,0.2-0.2c0,0,0,0,0,0c0,0.1,0.1,0.1,0.2,0.1c0,0,0,0,0,0
				c0.1,0,0.1,0,0.2-0.1c0,0.1,0.1,0.1,0.1,0.1c0,0,0,0,0,0c0,0,0,0,0.1,0c-0.1,0.5,0,1,0.2,1.5c0.1,0.3,0.2,0.5,0.3,0.6
				c0.2,0.3,0.5,0.5,0.8,0.7c0.4,0.2,0.8,0.2,1.2,0.2c0.6,0,1.2-0.2,1.7-0.5c0.8-0.5,1.4-1.4,1.5-2.4C70.8,7.8,69.9,6.4,69.3,5.4
				L69.3,5.4z M64.9,6.2V5.8c0-0.3,0-0.7,0-1V4.1c0-0.2,0-0.5-0.2-0.7c0,0-0.1-0.1-0.1-0.1c-0.1-0.1-0.3,0-0.4,0.1
				c-0.2,0.3-0.2,0.5-0.2,0.7v0.7c0,0.3,0,0.7,0,1v0.4c0,0.5,0.1,1,0.1,1.5C64.2,7.3,64.1,7,64,6.6c-0.1-0.4-0.3-0.8-0.4-1.1
				c-0.2-0.4-0.3-0.8-0.7-1c-0.1-0.1-0.2-0.1-0.2-0.1c-0.2,0-0.2,0.2-0.2,0.3c0.1,0.3,0.2,0.6,0.4,0.9c0,0.1,0.1,0.1,0.1,0.2
				c0.2,0.3,0.3,0.7,0.5,1c0.1,0.3,0.2,0.7,0.4,1.1c0,0.1,0,0.2,0.1,0.3c-0.1-0.3-0.3-0.6-0.4-0.9S63,6.7,62.8,6.4
				c-0.2-0.2-0.4-0.5-0.7-0.7c-0.1,0-0.2,0-0.2,0c-0.1,0-0.1,0.1-0.1,0.2c0,0.1,0,0.1,0,0.2c0.1,0.3,0.3,0.5,0.5,0.7l0,0.1
				c0.2,0.2,0.4,0.5,0.5,0.8c0.2,0.2,0.3,0.5,0.5,0.8c0.1,0.2,0.3,0.5,0.4,0.8c0,0.1,0,0.1,0,0.2c0,0,0,0,0,0
				c-0.1-0.2-0.3-0.5-0.5-0.7C63,8.4,62.8,8.2,62.6,8c-0.2-0.2-0.4-0.4-0.6-0.6c-0.2-0.2-0.4-0.4-0.7-0.5c-0.1,0-0.2,0-0.2,0
				C61,7,61,7,61,7.1c0,0.1,0,0.2,0,0.2c0.2,0.3,0.3,0.5,0.5,0.7c0.1,0.1,0.3,0.2,0.4,0.4l0.8,0.7c0.2,0.2,0.4,0.4,0.6,0.6l0,0
				c0,0,0.1,0.1,0.1,0.1c0,0,0.1,0,0.1,0c0,0,0.1-0.1,0.1-0.1c0,0.4-0.1,0.7-0.2,1c-0.1,0.2-0.2,0.4-0.2,0.5
				c-0.2,0.2-0.4,0.4-0.7,0.5c-0.8,0.3-1.7,0.3-2.4-0.2c-0.7-0.4-1.2-1.2-1.3-2.1c-0.2-1.4,0.6-2.7,1.2-3.6c1.3-1.9,2.9-3.5,4.4-5.1
				c1.6,1.5,3.2,3.2,4.4,5.1c0.6,0.9,1.4,2.2,1.2,3.6c-0.1,0.9-0.6,1.7-1.3,2.1c-0.7,0.5-1.7,0.5-2.4,0.2c-0.3-0.1-0.5-0.3-0.7-0.5
				c-0.1-0.1-0.2-0.3-0.2-0.5c-0.1-0.3-0.2-0.7-0.2-1c0,0,0,0,0,0.1c0,0,0.1,0.1,0.1,0.1c0,0,0,0,0,0c0.1,0,0.1,0,0.1-0.1
				c0.2-0.2,0.4-0.4,0.6-0.6l0.6-0.6L67,8.3c0.1-0.1,0.3-0.2,0.4-0.4c0.2-0.2,0.4-0.4,0.6-0.7c0-0.1,0-0.1,0-0.2
				c0-0.1-0.1-0.1-0.1-0.2c-0.1,0-0.1,0-0.2,0C67.3,7,67,7.2,66.9,7.4c-0.2,0.2-0.4,0.4-0.6,0.6c-0.2,0.2-0.4,0.4-0.5,0.6
				c-0.2,0.2-0.3,0.5-0.5,0.7l0,0c0,0,0,0,0,0c0-0.1,0-0.1,0-0.1c0.1-0.3,0.3-0.6,0.4-0.8c0.2-0.3,0.3-0.6,0.5-0.8
				c0.2-0.3,0.4-0.5,0.6-0.8l0.1-0.1c0.2-0.2,0.4-0.4,0.5-0.7c0-0.1,0-0.2,0-0.2c-0.1-0.1-0.2-0.2-0.4-0.1c-0.3,0.2-0.6,0.5-0.7,0.7
				c-0.2,0.3-0.4,0.6-0.5,0.8c-0.2,0.3-0.3,0.6-0.4,0.8c0-0.1,0-0.1,0.1-0.2c0.1-0.4,0.2-0.8,0.4-1.1c0.1-0.3,0.3-0.7,0.5-1
				c0-0.1,0.1-0.1,0.1-0.2c0.1-0.3,0.3-0.6,0.4-0.9c0-0.1,0-0.2-0.1-0.2c-0.1-0.1-0.1-0.1-0.2-0.1c-0.1,0-0.1,0-0.2,0.1
				c-0.3,0.3-0.5,0.7-0.7,1c-0.2,0.4-0.3,0.8-0.4,1.1c-0.1,0.3-0.2,0.6-0.2,0.8C64.8,7,64.8,6.6,64.9,6.2L64.9,6.2z"/>
		</g>
		<path class="st1" d="M68.2,0.8c0,0.3-0.3,0.6-0.6,0.6s-0.6-0.3-0.6-0.6s0.3-0.6,0.6-0.6S68.2,0.5,68.2,0.8z"/>
		<circle class="st1" cx="69.9" cy="0.8" r="0.8"/>
	</g>
</g>
</svg>
