<?xml version="1.0" encoding="utf-8"?>
<!-- Generator: Adobe Illustrator 26.5.0, SVG Export Plug-In . SVG Version: 6.00 Build 0)  -->
<svg version="1.1" id="Capa_2_00000013874390775498442880000013702115923875154608_"
	 xmlns="http://www.w3.org/2000/svg" xmlns:xlink="http://www.w3.org/1999/xlink" x="0px" y="0px" viewBox="0 0 71 12.3"
	 style="enable-background:new 0 0 71 12.3;" xml:space="preserve">
<style type="text/css">
	.st0{opacity:0.31;}
	.st1{fill:#5276B9;}
</style>
<g id="Capa_1-2" class="st0">
	<g>
		<rect class="st1" width="71" height="0.8"/>
		<rect y="11.4" class="st1" width="71" height="0.8"/>
		<polygon class="st1" points="71,2.5 71,3.5 70.5,3.5 70.5,9.8 69.8,9.8 69.8,9.8 64.3,9.8 64.3,5.6 67.3,5.6 67.3,3.5 62.8,3.5 
			62.8,9.8 62,9.8 62,9.8 56.6,9.8 56.6,5.6 59.6,5.6 59.6,3.5 55.1,3.5 55.1,9.8 54.3,9.8 54.3,9.8 48.9,9.8 48.9,5.6 51.9,5.6 
			51.9,3.5 47.4,3.5 47.4,9.8 46.6,9.8 46.6,9.8 41.2,9.8 41.2,5.6 44.2,5.6 44.2,3.5 39.7,3.5 39.7,9.8 38.9,9.8 38.9,9.8 
			33.5,9.8 33.5,5.6 36.5,5.6 36.5,3.5 32,3.5 32,9.8 31.2,9.8 31.2,9.8 25.8,9.8 25.8,5.6 28.8,5.6 28.8,3.5 24.2,3.5 24.2,9.8 
			23.5,9.8 23.5,9.8 18.1,9.8 18.1,5.6 21.1,5.6 21.1,3.5 16.5,3.5 16.5,9.8 15.8,9.8 15.8,9.8 10.4,9.8 10.4,5.6 13.4,5.6 
			13.4,3.5 8.8,3.5 8.8,9.8 8.1,9.8 8.1,9.8 2.7,9.8 2.7,5.6 5.7,5.6 5.7,3.5 1.1,3.5 1.1,9.8 0.4,9.8 0.4,9.8 0,9.8 0,8.8 0,8.8 
			0,2.5 6.8,2.5 6.8,6.7 3.8,6.7 3.8,8.8 7.8,8.8 7.8,2.5 14.5,2.5 14.5,6.7 11.5,6.7 11.5,8.8 15.5,8.8 15.5,2.5 22.2,2.5 
			22.2,6.7 19.2,6.7 19.2,8.8 23.2,8.8 23.2,2.5 29.9,2.5 29.9,6.7 26.9,6.7 26.9,8.8 30.9,8.8 30.9,2.5 37.6,2.5 37.6,6.7 
			34.6,6.7 34.6,8.8 38.6,8.8 38.6,2.5 45.3,2.5 45.3,6.7 42.3,6.7 42.3,8.8 46.3,8.8 46.3,2.5 53,2.5 53,6.7 50,6.7 50,8.8 54,8.8 
			54,2.5 60.7,2.5 60.7,6.7 57.7,6.7 57.7,8.8 61.7,8.8 61.7,2.5 68.4,2.5 68.4,6.7 65.4,6.7 65.4,8.8 69.4,8.8 69.4,2.5 		"/>
	</g>
</g>
</svg>
