<?xml version="1.0" encoding="UTF-8"?>
<svg id="Capa_2" data-name="Capa 2" xmlns="http://www.w3.org/2000/svg" viewBox="0 0 7.2 71">
  <defs>
    <style>
      .cls-1 {
        opacity: .3;
      }

      .cls-2 {
        fill: #5276b9;
      }
    </style>
  </defs>
  <g id="Capa_2-2" data-name="Capa 2">
    <g id="Capa_1-2" data-name="Capa 1-2" class="cls-1">
      <path class="cls-2" d="M5.6,0h-.6V.9H0v7.3H5.6V4.2H3.4v1.6h-1.1V3.2H6.6V14.2H2.3v-2.6h1.2v1.6h2.2v-4H0v7.3H5v.9H0v7.3H5.6v-4H3.4v1.6h-1.1v-2.6H6.6v11H2.3v-2.6h1.2v1.6h2.2v-4H0v7.3H5v.9H0v7.3H5.6v-4H3.4v1.6h-1.1v-2.6H6.6v11H2.3v-2.6h1.2v1.6h2.2v-4H0v7.3H5v.9H0v7.3H5.6v-4H3.4v1.6h-1.1v-2.6H6.6v11H2.3v-2.6h1.2v1.7h2.2v-4H0v7.2H5v.9H0v4.1H.6v-3.5H5.6v-2.1H.6v-6.1H5v2.8h-1v-1.6H1.6v3.8H6.5v4.2H1.6v2.5h.6v-1.8H6.5v1.8h.7V0h-.6V2.6H1.6v3.8h2.4v-1.6h1v2.8H.6V1.6H5.6V0Zm1,47.8v4.2H1.6v3.8h2.4v-1.6h1v2.8H.6v-6H5.6v-2.1H.6v-6H5v2.8h-1v-1.7H1.6v3.8H6.6Zm0-16.5v4.2H1.6v3.8h2.4v-1.6h1v2.8H.6v-6H5.6v-2.1H.6v-6H5v2.8h-1v-1.6H1.6v3.8l5-.1h0Zm0-16.5v4.2H1.6v3.8h2.4v-1.6h1v2.8H.6v-6H5.6v-2.1H.6v-6H5v2.8h-1v-1.7H1.6v3.8H6.6Zm-3.2,55.3v.9h.6v-.3h1v.3h.6v-.9H3.4Z"/>
    </g>
  </g>
</svg>