<?xml version="1.0" encoding="utf-8"?>
<!-- Generator: Adobe Illustrator 26.5.0, SVG Export Plug-In . SVG Version: 6.00 Build 0)  -->
<svg version="1.1" id="Capa_2_00000170988816921710925830000018065059992765131176_"
	 xmlns="http://www.w3.org/2000/svg" xmlns:xlink="http://www.w3.org/1999/xlink" x="0px" y="0px" viewBox="0 0 71 7"
	 style="enable-background:new 0 0 71 7;" xml:space="preserve">
<style type="text/css">
	.st0{opacity:0.18;}
	.st1{fill:#FDF9D8;}
</style>
<g id="Capa_1-2" class="st0">
	<g>
		<rect class="st1" width="71" height="1"/>
		<rect y="5.9" class="st1" width="71" height="1"/>
		<path class="st1" d="M1.7,3.6c0,1-0.4,1.9-0.9,1.9C0.5,5.4,0.2,5.1,0,4.7V2.5C0.2,2,0.5,1.7,0.8,1.7C1.3,1.7,1.7,2.6,1.7,3.6
			L1.7,3.6z"/>
		<ellipse class="st1" cx="4.4" cy="3.6" rx="0.9" ry="1.9"/>
		<ellipse class="st1" cx="8.1" cy="3.6" rx="0.9" ry="1.9"/>
		<ellipse class="st1" cx="11.8" cy="3.6" rx="0.9" ry="1.9"/>
		<ellipse class="st1" cx="15.5" cy="3.6" rx="0.9" ry="1.9"/>
		<ellipse class="st1" cx="19.1" cy="3.6" rx="1" ry="1.9"/>
		<ellipse class="st1" cx="22.8" cy="3.6" rx="1" ry="1.9"/>
		<ellipse class="st1" cx="26.5" cy="3.6" rx="1" ry="1.9"/>
		<ellipse class="st1" cx="30.1" cy="3.6" rx="1" ry="1.9"/>
		<ellipse class="st1" cx="33.8" cy="3.6" rx="1" ry="1.9"/>
		<ellipse class="st1" cx="37.5" cy="3.6" rx="1" ry="1.9"/>
		<ellipse class="st1" cx="41.2" cy="3.6" rx="1" ry="1.9"/>
		<ellipse class="st1" cx="44.8" cy="3.6" rx="1" ry="1.9"/>
		<ellipse class="st1" cx="48.5" cy="3.6" rx="1" ry="1.9"/>
		<ellipse class="st1" cx="52.2" cy="3.6" rx="1" ry="1.9"/>
		<ellipse class="st1" cx="55.8" cy="3.6" rx="1" ry="1.9"/>
		<ellipse class="st1" cx="59.5" cy="3.6" rx="1" ry="1.9"/>
		<ellipse class="st1" cx="63.2" cy="3.6" rx="1" ry="1.9"/>
		<ellipse class="st1" cx="66.9" cy="3.6" rx="0.9" ry="1.9"/>
		<path class="st1" d="M71,2v3.2c-0.1,0.2-0.3,0.3-0.5,0.3c-0.5,0-0.9-0.8-0.9-1.9s0.4-1.9,0.9-1.9C70.7,1.7,70.9,1.8,71,2z"/>
	</g>
</g>
</svg>
