<?xml version="1.0" encoding="utf-8"?>
<!-- Generator: Adobe Illustrator 26.5.0, SVG Export Plug-In . SVG Version: 6.00 Build 0)  -->
<svg version="1.1" id="Capa_2_00000120522748494570273190000007361961183926404523_"
	 xmlns="http://www.w3.org/2000/svg" xmlns:xlink="http://www.w3.org/1999/xlink" x="0px" y="0px" viewBox="0 0 71 7.2"
	 style="enable-background:new 0 0 71 7.2;" xml:space="preserve">
<style type="text/css">
	.st0{opacity:0.3;}
	.st1{fill:#5276B9;}
</style>
<g id="Capa_1-2" class="st0">
	<path class="st1" d="M71,5.6V0l0,0v5h-0.9V0h-7.3v5.6h4V3.4h-1.6V2.3h2.6v4.3h-11V2.3h2.6v1.2h-1.6v2.2h4V0h-7.3v5h-0.9V0h-7.3v5.6
		h4V3.4h-1.6V2.3h2.6v4.3h-11V2.3h2.6v1.2h-1.6v2.2h4V0H38v5h-0.9V0h-7.3v5.6h4V3.4h-1.6V2.3h2.6v4.3h-11V2.3h2.6v1.2h-1.6v2.2h4V0
		h-7.3v5h-0.9V0h-7.3v5.6h4V3.4h-1.6V2.3h2.6v4.3h-11V2.3h2.6v1.2H8.2v2.2h4V0H5v5H4.1V0H0v0.6h3.5v5h2.1v-5h6.1V5H8.9V4h1.6V1.6
		H6.7v4.9H2.5V1.6H0v0.6h1.8v4.3H0v0.7h71V6.6h-2.6v-5h-3.8V4h1.6v1h-2.8V0.6h6v5H71z M23.2,6.6H19v-5h-3.8V4h1.6v1H14V0.6h6v5h2.1
		v-5h6V5h-2.8V4H27V1.6h-3.8V6.6z M39.7,6.6h-4.2v-5h-3.8V4h1.6v1h-2.8V0.6h6v5h2.1v-5h6V5h-2.8V4h1.6V1.6h-3.8L39.7,6.6L39.7,6.6z
		 M56.2,6.6H52v-5h-3.8V4h1.6v1H47V0.6h6v5h2.1v-5h6V5h-2.8V4H60V1.6h-3.8V6.6L56.2,6.6z M0.9,3.4H0V4h0.3v1H0v0.6h0.9V3.4z"/>
</g>
</svg>
