<?xml version="1.0" encoding="UTF-8"?>
<svg id="Capa_2" data-name="Capa 2" xmlns="http://www.w3.org/2000/svg" viewBox="0 0 135.84 112.19">
  <defs>
    <style>
      .cls-1 {
        fill: #030204;
      }

      .cls-2 {
        fill: #fff;
      }

      .cls-3 {
        fill: #e7e000;
      }

      .cls-4 {
        fill: #10110e;
      }

      .cls-5 {
        fill: #fdfdfd;
      }

      .cls-6, .cls-7, .cls-8 {
        fill: none;
      }

      .cls-7 {
        stroke: #1d1e1c;
        stroke-dasharray: 0 .37;
        stroke-width: .08px;
      }

      .cls-7, .cls-8 {
        stroke-miterlimit: 10;
      }

      .cls-8 {
        stroke: #fff;
        stroke-dasharray: 0 0 .37 .37;
        stroke-width: .04px;
      }

      .cls-9 {
        fill: #1e1e1e;
      }
    </style>
  </defs>
  <g id="Capa_1-2" data-name="Capa 1">
    <rect class="cls-3" x="61.09" y="93.55" width="74.75" height="18.64" rx="5.7" ry="5.7"/>
    <circle class="cls-1" cx="64.21" cy="36.94" r="36.94"/>
    <circle class="cls-8" cx="64.21" cy="36.94" r="34.87"/>
    <path class="cls-3" d="M108.44,36.98l5.12,13.09h-7.5v.02h-1.63s-24.68-.01-24.68-.01c-3.73,4.43-9.31,7.24-15.55,7.24s-11.82-2.81-15.55-7.24H25.48v.02H14.87l5.11-13.1-5.12-13.09H48.66c3.73-4.43,9.31-7.24,15.55-7.24s11.75,2.77,15.47,7.15c.03,.03,.05,.06,.08,.09h24.68s9.12-.01,9.12-.01l-5.12,13.08Z"/>
    <path class="cls-7" d="M64.21,55.76c-5.55,0-10.78-2.44-14.36-6.69l-.46-.55H23.93v.02h-6.79l4.51-11.55-4.51-11.54H49.38l.46-.55c3.58-4.25,8.81-6.69,14.36-6.69s10.72,2.41,14.29,6.6l.02,.03s.03,.04,.05,.06l.46,.55h26.95s5.3-.01,5.3-.01l-4.51,11.53,4.51,11.54h-6.78s-.08,.01-.08,.01h-25.4l-.46,.55c-3.58,4.25-8.81,6.69-14.36,6.69Z"/>
    <g>
      <path class="cls-3" d="M48.67,19.64c0,.33-.11,.6-.32,.84l.51,.55-.26,.24-2.19-2.34s.03-.03,.05-.05c.01-.01,.03-.03,.04-.04,.02-.02,.03-.03,.05-.05,.01-.01,.03-.03,.05-.04,.25-.23,.54-.34,.88-.33,.34,.01,.63,.14,.86,.39,.21,.23,.32,.51,.33,.83Zm-1.15-.87c-.22-.02-.43,.04-.6,.18l1.19,1.27c.15-.17,.22-.37,.22-.59,0-.23-.08-.42-.23-.59-.15-.17-.34-.26-.56-.28Z"/>
      <path class="cls-3" d="M50.12,19.9l-1.97-2.53,.28-.21,1.75,2.24,.81-.63,.22,.28-1.09,.85Z"/>
      <path class="cls-3" d="M53.23,17.73l-.62-.54-.94,.59,.2,.79-.31,.2-.2-.79-.16,.1-.19-.31,.25-.15-.54-2.08,.28-.18,2.53,2.18-.31,.2Zm-2.02-1.75l.37,1.42,.74-.46-1.11-.96Z"/>
      <path class="cls-3" d="M53.37,14.45l1.26,2.56-.32,.15-1.26-2.56-.57,.28-.15-.32,1.44-.71,.16,.31-.57,.28Z"/>
      <path class="cls-3" d="M57.84,15.24c-.19,.4-.49,.68-.91,.82-.41,.15-.82,.12-1.22-.07-.4-.19-.68-.5-.82-.92-.15-.41-.12-.82,.07-1.22,.19-.4,.49-.67,.91-.82,.41-.14,.82-.12,1.22,.07,.4,.19,.67,.49,.82,.91,.15,.42,.13,.83-.07,1.22Zm-.9-1.82c-.31-.15-.63-.16-.95-.05-.32,.11-.56,.33-.71,.64-.15,.31-.17,.63-.06,.95,.12,.32,.33,.56,.65,.71,.31,.15,.63,.17,.95,.05,.33-.12,.56-.33,.71-.64,.15-.31,.17-.63,.05-.95-.11-.33-.33-.56-.64-.71Z"/>
      <path class="cls-3" d="M59.64,14.98c-.15,.24-.36,.39-.63,.45l-.08-.34c.18-.04,.32-.14,.42-.3,.1-.16,.13-.33,.09-.51,0,0,0-.02,0-.04,0-.01,0-.02-.01-.03-.02-.07-.06-.14-.1-.19-.04-.07-.1-.11-.16-.14-.09-.05-.18-.1-.26-.15-.09-.05-.18-.1-.26-.13-.09-.06-.17-.12-.23-.21-.06-.08-.1-.18-.12-.28-.05-.21-.01-.4,.1-.58,.12-.18,.28-.3,.48-.34l.07,.34c-.11,.02-.2,.09-.26,.18-.06,.1-.08,.2-.05,.32,0,0,0,.01,0,.02,0,0,0,.02,.01,.03,.01,.04,.03,.09,.06,.12,.02,.04,.06,.07,.1,.09,.09,.05,.18,.1,.27,.14,.09,.05,.18,.1,.26,.14,.12,.06,.21,.15,.29,.26s.13,.23,.16,.35c0,0,0,.01,0,.02h0c.06,.28,.02,.54-.13,.78Z"/>
      <path class="cls-3" d="M63.95,14.77l-.29-.76-1.1,.06-.2,.79-.37,.02,.2-.79h-.19s-.01-.35-.01-.35h.29s.53-2.1,.53-2.1h.33s1.17,3.12,1.17,3.12l-.37,.02Zm-.93-2.5l-.36,1.42,.88-.04-.51-1.38Z"/>
      <path class="cls-3" d="M66.32,14.87l.37-3.18,.35,.04-.33,2.83,1.02,.12-.04,.35-1.37-.17Z"/>
      <path class="cls-3" d="M70.05,15.52l-.06-.81-1.08-.25-.41,.71-.36-.08,.41-.71-.18-.04,.08-.36,.29,.07,1.08-1.85,.32,.07,.26,3.33-.35-.08Zm-.21-2.66l-.74,1.27,.85,.19-.12-1.46Z"/>
      <path class="cls-3" d="M72.93,16c-.17-.41-.16-.82,.01-1.23,.17-.4,.47-.69,.88-.85,.41-.17,.82-.16,1.22,0l-.14,.33c-.32-.14-.63-.14-.95-.01s-.55,.35-.69,.67c-.13,.32-.13,.63,0,.95,.13,.32,.35,.55,.67,.69l-.14,.32c-.4-.17-.69-.46-.85-.87Z"/>
      <path class="cls-3" d="M75.95,18.05l.17-.8-.97-.55-.6,.56-.32-.18,.6-.56-.16-.09,.18-.32,.26,.14,1.56-1.46,.29,.16-.7,3.27-.32-.18Zm.56-2.61l-1.07,1.01,.76,.43,.31-1.44Z"/>
      <path class="cls-3" d="M77.47,18.9c-.11-.2-.18-.4-.2-.62l-.31,.44-.28-.21,1.86-2.61s.04,.03,.05,.04c.02,.01,.04,.03,.06,.04,.02,.01,.03,.02,.05,.04,.02,.01,.04,.02,.05,.04,.28,.2,.44,.46,.5,.8,.06,.33-.01,.64-.21,.92-.16,.22-.37,.38-.64,.46-.26,.07-.53,.07-.78-.02,.01,.18,.06,.35,.15,.5,.09,.16,.21,.29,.35,.4l-.21,.29c-.19-.13-.33-.29-.44-.49Zm1.44-1.95c-.03-.23-.12-.41-.29-.56l-1.01,1.41c.19,.11,.4,.14,.62,.1s.4-.16,.53-.34c.13-.18,.18-.39,.16-.61Z"/>
      <path class="cls-3" d="M80.74,18.04l-1.85,2.17-.26-.23,1.85-2.17-.48-.41,.23-.27,1.22,1.05-.23,.27-.48-.41Z"/>
      <path class="cls-3" d="M80.97,22.23l.39-.72-.76-.8-.73,.36-.26-.26,.73-.37-.13-.13,.27-.25,.21,.21,1.92-.96,.23,.24-1.61,2.93-.25-.26Zm1.29-2.34l-1.32,.66,.61,.63,.71-1.29Z"/>
    </g>
    <g>
      <path class="cls-5" d="M47.17,14.81c-.53-.07-.95-.33-1.28-.76-.32-.43-.44-.9-.37-1.44,.07-.53,.32-.95,.75-1.28l.26,.34c-.33,.25-.53,.58-.59,1-.06,.41,.04,.79,.28,1.12,.25,.33,.59,.53,1,.59,.42,.06,.79-.03,1.12-.29l.26,.34c-.43,.32-.9,.44-1.44,.37Z"/>
      <path class="cls-5" d="M51.38,12.09c-.13,.52-.43,.91-.89,1.18-.46,.27-.95,.33-1.47,.2-.52-.13-.91-.43-1.18-.9-.27-.46-.34-.95-.2-1.47,.13-.52,.43-.91,.89-1.18,.46-.27,.95-.33,1.47-.2,.52,.14,.91,.44,1.18,.89,.27,.46,.34,.95,.2,1.47Zm-1.48-1.96c-.4-.11-.79-.05-1.15,.16-.36,.21-.59,.52-.7,.92-.11,.4-.06,.79,.15,1.15,.21,.36,.52,.59,.92,.7,.41,.11,.79,.06,1.15-.16,.36-.21,.6-.52,.7-.92,.1-.4,.05-.78-.16-1.15-.21-.35-.52-.59-.92-.7Z"/>
      <path class="cls-5" d="M54.69,11.27l-1.18-2.89-.51,.9-.99-.29,1.18,2.89-.39,.16-1.51-3.69,1.51,.43,.78-1.36,1.51,3.69-.39,.16Z"/>
      <path class="cls-5" d="M55.85,10.88l-1.17-3.7,.4-.13,1.17,3.7-.4,.13Z"/>
      <path class="cls-5" d="M58.37,9.59c-.28,.45-.67,.75-1.18,.88-.02,0-.03,0-.05,.01-.02,0-.04,0-.05,.01-.02,0-.04,0-.06,.01-.01,0-.03,0-.05,0l-.89-3.77s.03,0,.05-.01c.01,0,.03,0,.06,0,.01,0,.03,0,.05-.01,.01,0,.03,0,.05-.01,.51-.11,1-.03,1.45,.25,.45,.28,.74,.68,.86,1.19,.12,.51,.04,1-.23,1.45Zm-.76-2.22c-.29-.22-.63-.32-1-.29l.69,2.91c.35-.14,.6-.38,.77-.71,.17-.33,.21-.68,.12-1.04-.08-.36-.28-.65-.58-.87Z"/>
      <path class="cls-5" d="M61.97,9.62l-.41-.9-1.33,.16-.18,.98-.44,.05,.18-.97-.22,.03-.06-.44,.35-.05,.47-2.55,.4-.05,1.67,3.68-.44,.05Zm-1.33-2.94l-.32,1.75,1.06-.13-.73-1.62Z"/>
      <path class="cls-5" d="M64.01,9.17c-.23,.25-.52,.38-.86,.39v-.43c.21,0,.4-.09,.55-.26,.16-.16,.23-.35,.22-.57v-.05s0-.03,0-.04c0-.09-.03-.17-.07-.25-.04-.08-.09-.15-.16-.21-.09-.07-.19-.15-.28-.23-.09-.08-.19-.16-.29-.23-.1-.09-.17-.19-.22-.3-.05-.12-.08-.24-.08-.37,0-.25,.08-.48,.26-.66,.18-.19,.4-.29,.65-.29v.43c-.13,0-.25,.06-.34,.15-.1,.1-.15,.22-.14,.36,0,0,0,.02,0,.03s0,.02,0,.03c0,.06,.02,.11,.04,.16,.02,.05,.05,.09,.1,.12,.09,.08,.19,.15,.28,.23,.09,.08,.19,.15,.28,.23,.12,.1,.22,.23,.28,.38,.06,.15,.1,.3,.11,.45v.04c0,.34-.1,.63-.34,.88Z"/>
      <path class="cls-5" d="M67.76,9.57c-.23-.14-.43-.32-.58-.54l-.08,.63-.42-.05,.47-3.85s.05,0,.08,0c.03,0,.05,0,.08,.01,.02,0,.05,0,.08,0,.03,0,.05,0,.07,0,.41,.05,.73,.24,.99,.56,.25,.32,.36,.69,.31,1.09-.04,.33-.18,.62-.41,.86-.23,.24-.51,.38-.84,.43,.12,.18,.26,.33,.45,.45,.18,.12,.39,.19,.61,.22l-.05,.43c-.27-.03-.52-.12-.75-.27Zm.39-2.9c-.16-.23-.37-.37-.63-.42l-.25,2.09c.27,0,.51-.08,.72-.26,.21-.18,.32-.4,.36-.67,.03-.27-.03-.52-.19-.73Z"/>
      <path class="cls-5" d="M71.46,10.45l-.07-.98-1.31-.3-.5,.85-.44-.1,.5-.85-.22-.05,.1-.43,.35,.08,1.31-2.24,.4,.09,.31,4.03-.43-.1Zm-.25-3.22l-.89,1.54,1.04,.24-.14-1.77Zm.03-.87v-.18s.81,.04,.81,.04v.19s-.81-.04-.81-.04Z"/>
      <path class="cls-5" d="M74.21,9.87c-.34,.19-.7,.23-1.08,.13l-.29,.86-.41-.14,1.26-3.67s.05,.02,.07,.02c.03,0,.05,.02,.08,.03,.03,0,.05,.02,.07,.02,.02,0,.05,.02,.07,.03,.38,.13,.67,.38,.85,.75,.18,.37,.21,.74,.07,1.14-.12,.36-.36,.63-.7,.82Zm.28-1.72c-.1-.25-.28-.43-.53-.54l-.68,1.99c.26,.06,.51,.02,.75-.1,.24-.13,.4-.33,.49-.59,.09-.26,.08-.51-.03-.76Z"/>
      <path class="cls-5" d="M74.69,11.55l1.49-3.57,.39,.16-1.5,3.58-.39-.17Z"/>
      <path class="cls-5" d="M77.52,12.23c-.51,.17-1,.14-1.47-.1-.02,0-.03-.01-.05-.02-.01,0-.03-.01-.04-.02-.02,0-.04-.02-.05-.03-.01,0-.03-.01-.04-.02l1.76-3.46s.03,.01,.05,.02c.01,0,.03,.01,.05,.02,.01,0,.03,.01,.05,.02,.01,0,.03,.01,.04,.02,.46,.25,.78,.62,.94,1.13,.16,.51,.12,.99-.12,1.46-.24,.47-.61,.79-1.11,.96Zm.85-2.19c-.09-.36-.28-.65-.58-.87l-1.35,2.67c.35,.11,.7,.1,1.04-.05,.34-.14,.6-.38,.77-.71,.16-.33,.21-.67,.12-1.03Z"/>
      <path class="cls-5" d="M80.23,14.58l.27-.95-1.12-.73-.76,.63-.37-.25,.76-.62-.19-.12,.24-.37,.31,.2,2-1.64,.34,.22-1.11,3.89-.37-.24Zm.88-3.11l-1.37,1.13,.89,.58,.48-1.71Z"/>
      <path class="cls-5" d="M82.08,15.53c-.34,.04-.64-.04-.91-.26l.26-.33c.18,.14,.38,.19,.6,.17,.22-.03,.4-.12,.54-.29l.03-.04s.01-.02,.02-.04c.05-.07,.09-.15,.11-.24,.02-.08,.03-.17,.01-.26-.02-.12-.04-.24-.06-.36-.02-.12-.05-.24-.07-.35-.02-.13-.01-.25,.03-.38,.04-.12,.09-.23,.17-.33,.16-.2,.37-.31,.63-.34,.26-.03,.49,.03,.69,.2l-.27,.33c-.11-.08-.23-.12-.37-.11-.14,.01-.25,.08-.34,.18,0,0-.01,.02-.02,.02,0,0,0,.02-.01,.03-.03,.04-.06,.09-.07,.15-.01,.05-.02,.11,0,.16,.02,.12,.04,.24,.07,.36,.03,.12,.05,.24,.07,.36,.03,.16,.02,.31-.03,.47-.05,.15-.12,.29-.21,.42,0,0,0,0-.01,.01,0,0,0,0-.01,.02-.21,.26-.49,.41-.83,.45Z"/>
    </g>
    <g>
      <path class="cls-3" d="M50.94,58.47c-.13-.52-.06-1,.21-1.46s.67-.75,1.18-.88c.52-.13,1.01-.06,1.46,.21l-.22,.37c-.36-.21-.74-.27-1.14-.17-.41,.1-.71,.33-.92,.69-.21,.35-.26,.73-.16,1.14,.1,.4,.33,.71,.69,.93l-.22,.36c-.45-.27-.75-.66-.88-1.18Z"/>
      <path class="cls-3" d="M55.31,60.65c-.5,.19-.99,.19-1.47-.03-.49-.21-.83-.56-1.03-1.06-.19-.5-.19-.99,.03-1.48,.21-.48,.57-.82,1.06-1.02,.5-.2,.99-.19,1.48,.03,.48,.21,.82,.56,1.02,1.06,.2,.5,.19,.99-.03,1.48-.21,.49-.57,.83-1.06,1.03Zm.7-2.35c-.15-.39-.42-.66-.8-.83-.38-.16-.76-.17-1.15-.02-.39,.15-.66,.42-.83,.8-.16,.38-.17,.76-.02,1.16,.15,.39,.42,.66,.8,.83,.38,.17,.77,.17,1.16,.02,.39-.15,.66-.42,.83-.8,.16-.38,.17-.76,.02-1.15Z"/>
      <path class="cls-3" d="M58.3,62.12l.8-3.01-.95,.4-.62-.82-.8,3.01-.41-.11,1.02-3.84,.94,1.25,1.44-.62-1.02,3.84-.41-.11Z"/>
      <path class="cls-3" d="M59.36,62.33l.68-3.8,.41,.07-.68,3.8-.41-.07Z"/>
      <path class="cls-3" d="M62,62.12c-.41,.34-.87,.48-1.4,.44-.01,0-.03,0-.05,0-.01,0-.03,0-.05,0-.02,0-.04,0-.06,0-.01,0-.03,0-.05,0l.4-3.84s.03,0,.05,0c.01,0,.03,0,.06,0,.01,0,.03,0,.05,0,.02,0,.03,0,.05,0,.53,.06,.95,.3,1.28,.72,.33,.41,.47,.88,.41,1.4-.06,.52-.29,.95-.7,1.29Zm.01-2.34c-.21-.31-.49-.51-.85-.6l-.31,2.96c.37-.02,.69-.16,.96-.42,.26-.26,.42-.57,.46-.94,.04-.36-.05-.7-.26-1Z"/>
      <path class="cls-3" d="M65.51,62.76l-.3-.94h-1.33s-.28,.96-.28,.96h-.45s.29-.94,.29-.94h-.23s0-.44,0-.44h.36s.74-2.48,.74-2.48h.4s1.24,3.83,1.24,3.83h-.44Zm-1-3.06l-.51,1.7h1.06s-.55-1.7-.55-1.7Z"/>
      <path class="cls-3" d="M70.06,62.13s-.07,.01-.11,.02c-.51,.09-.99-.02-1.43-.32-.43-.3-.7-.7-.8-1.22-.1-.51,0-.98,.28-1.42s.69-.71,1.2-.83l.08,.42c-.4,.08-.7,.3-.93,.64-.22,.34-.3,.72-.22,1.11,.07,.36,.25,.66,.54,.89,.29,.23,.62,.35,.98,.33l-.4-2.05-.57,.11-.08-.42,.99-.19,.56,2.9s-.07,.01-.1,.02Z"/>
      <path class="cls-3" d="M71.87,61.45c-.27-.04-.52-.13-.74-.26l.18,.62-.4,.12-1.13-3.69s.05-.02,.07-.02c.03,0,.05-.02,.08-.03,.02,0,.04-.01,.07-.02,.03,0,.05-.01,.07-.02,.39-.12,.76-.08,1.13,.11,.36,.19,.6,.48,.72,.87,.1,.32,.09,.64-.03,.95-.12,.31-.32,.55-.59,.73,.18,.12,.38,.2,.59,.23s.43,.02,.64-.05l.13,.41c-.26,.08-.53,.1-.8,.07Zm-.81-2.81c-.23-.14-.48-.18-.75-.12l.61,2c.25-.1,.43-.27,.54-.52,.12-.24,.13-.5,.06-.76s-.23-.46-.47-.6Z"/>
      <path class="cls-3" d="M73.15,61.19l-1.36-3.61,.4-.15,1.36,3.61-.4,.15Z"/>
      <path class="cls-3" d="M74.55,60.01c-.5-.19-.86-.52-1.08-1-.04-.09-.08-.18-.13-.27-.04-.09-.08-.18-.12-.28l-.23,.1-.18-.39,.22-.1-.37-.82,1.7-.78,.18,.38-1.32,.61,.2,.43,1.34-.62,.18,.38-1.34,.62c.04,.09,.08,.18,.13,.27,.04,.09,.09,.18,.13,.27,.17,.37,.45,.63,.83,.78,.38,.15,.76,.14,1.14-.03l.18,.39c-.48,.21-.97,.22-1.47,.04Z"/>
      <path class="cls-3" d="M78.22,58.69s-.06,.04-.09,.06c-.46,.26-.94,.32-1.45,.18-.51-.13-.9-.43-1.17-.88-.26-.45-.34-.93-.21-1.44,.12-.51,.41-.9,.85-1.18l.22,.36c-.34,.22-.56,.53-.66,.92-.1,.4-.04,.77,.16,1.12,.19,.32,.46,.54,.81,.66,.35,.12,.7,.11,1.04-.02l-1.07-1.8-.5,.3-.22-.37,.87-.51,1.51,2.54s-.06,.03-.09,.05Z"/>
      <path class="cls-3" d="M80.72,56.84l-.8-.56-1.06,.81,.34,.92-.35,.27-.34-.93-.18,.14-.27-.35,.29-.22-.89-2.43,.32-.24,3.3,2.31-.35,.27Zm-2.63-1.85l.61,1.66,.84-.64-1.45-1.02Z"/>
    </g>
    <g>
      <path class="cls-5" d="M60.34,67.18c-.32,.26-.69,.38-1.1,.34l-.14,.95-.45-.07,.61-4.07s.06,0,.09,.01c.03,0,.06,.01,.08,.01,.03,0,.06,0,.09,.01,.03,0,.05,0,.08,.01,.43,.06,.77,.27,1.03,.62,.26,.35,.35,.74,.29,1.17-.06,.4-.25,.73-.58,1Zm-.04-1.85c-.16-.24-.38-.4-.66-.46l-.34,2.21c.28,.01,.54-.07,.77-.26,.22-.18,.35-.42,.4-.7s-.01-.55-.18-.79Z"/>
      <path class="cls-5" d="M61.4,68.77l.34-4.1,.45,.04-.34,4.1-.45-.04Z"/>
      <path class="cls-5" d="M63.43,68.44h1.44s0,.47,0,.47l-2.16-.02,1.81-3.64h-1.41s0-.47,0-.47l2.13,.02-1.81,3.64Z"/>
      <path class="cls-5" d="M66.58,68.37l1.43-.13,.04,.45-2.15,.2,1.43-3.81-1.4,.13-.04-.45,2.11-.2-1.42,3.81Z"/>
      <path class="cls-5" d="M71.68,68.04l-.51-.92-1.39,.29-.1,1.04-.46,.1,.11-1.04-.24,.05-.09-.46,.37-.08,.28-2.74,.42-.09,2.08,3.75-.46,.1Zm-1.67-3l-.18,1.88,1.1-.23-.92-1.65Z"/>
    </g>
    <g>
      <g>
        <path class="cls-4" d="M55.24,34.56c0-1.53,.03-3.07,.04-4.6,0-.67-.35-1.11-.94-1.13-1.32-.03-2.64-.03-3.96,0-.58,.01-.9,.35-.94,.94-.01,.15-.01,.29-.01,.44v.39s0,.35,0,.35v1.02h0v.99c-.05-.49-.18-.88-.3-1.16,0,0,0,0,0,0-.06-.09-.12-.18-.18-.27-.05-.08-.1-.17-.15-.26,0,0,0,0,0,0h0c-.08-.14-.16-.28-.27-.4-.98-1.1-2.27-1.63-3.69-1.75-1.92-.16-3.84-.2-5.77-.27-.92-.03-1.27,.33-1.26,1.24,.01,1.41,.05,2.82,.06,4.23,0,.86,0,1.72,0,2.58-.03,.03-.07,.05-.11,.08-.51-.67-1.21-.54-1.88-.54-.75,0-1.5,0-2.25,0-1.08,0-1.4,.33-1.41,1.4,0,.46-.05,.92-.07,1.37-.09,.02-.18,.03-.26,.05-.14-.4-.36-.79-.39-1.2-.06-.93,.47-1.62,1.13-2.2,.88-.77,1.94-1.19,3.06-1.45,.81-.19,1.08-.63,.92-1.45-.22-1.16-.43-2.31-.65-3.47-.16-.82-.67-1.18-1.47-.96-2.08,.56-4.03,1.41-5.58,2.92-.1,.1-.19,.19-.29,.29,0,0,0,0,0,0,0,0-.02,.02-.03,.03h0s-.03,.03-.04,.05c-.05,.05-.12,.13-.21,.23-.38,.44-1.07,1.32-1.68,2.45-.03,.07-.07,.14-.11,.21v2.07c.07-.06,.2-.11,.22-.18,.08-.27,.17-.52,.27-.77,0-.01,.01-.03,.02-.04,.01-.03,.02-.06,.03-.09s.02-.05,.03-.08c0-.02,.02-.04,.03-.06,0-.02,.02-.04,.02-.06,0-.02,.01-.03,.01-.03,0,0,0,0,0,0,0,0,0-.02,.01-.03,.03-.07,.06-.14,.09-.21,.02-.03,.03-.07,.05-.1,.03-.06,.06-.12,.09-.18,.05-.11,.11-.22,.17-.33,.03-.05,.06-.11,.09-.16,.09-.15,.18-.29,.27-.43,.04-.06,.08-.12,.12-.19,.04-.06,.08-.12,.13-.18,.01-.02,.03-.04,.04-.06,.06-.08,.12-.16,.18-.23,.16-.21,.34-.41,.52-.6,.03-.03,.05-.06,.08-.08,.03-.03,.05-.05,.07-.07,.09-.09,.17-.17,.26-.26,.03-.03,.06-.06,.09-.08,.08-.07,.16-.15,.24-.22,.08-.07,.17-.14,.25-.21,.08-.06,.15-.12,.23-.18,.02-.02,.04-.03,.06-.05,.07-.05,.14-.11,.22-.16,.01,0,.02-.01,.03-.02,.08-.05,.16-.11,.24-.16,.01,0,.02-.02,.03-.02,.06-.04,.12-.08,.18-.11,0,0,.01-.01,.02-.01,.06-.04,.12-.07,.18-.11,.04-.03,.08-.05,.12-.07,.03-.02,.07-.04,.1-.06,.06-.03,.11-.06,.17-.1,.14-.07,.27-.15,.41-.22,.09-.05,.18-.09,.27-.13,.1-.05,.21-.1,.31-.14,.21-.09,.42-.18,.64-.26,.11-.04,.22-.08,.33-.12,.33-.12,.67-.23,1.02-.33,.05-.01,.1,0,.22,.01,.23,1.22,.47,2.45,.71,3.7-1.61,.37-3.01,.98-4.11,2.15-.7,.75-1.09,1.63-1.08,2.66,.02,1.55,1.27,2.69,2.94,2.6,0-.6,0-1.22,0-1.83q0-1.35,1.36-1.35c.54,0,1.07-.02,1.6,.02,.14,.01,.28,.21,.4,.33,.03,.03,0,.1,0,.16v5.64c-2.82,.53-5.61,.83-8.12-1.07-.05-.04-.1-.07-.14-.11-.06-.05-.12-.1-.17-.15-.04-.03-.08-.07-.11-.11-.04-.04-.07-.07-.11-.11-.02-.02-.03-.04-.05-.05-.03-.03-.05-.06-.07-.08-.03-.03-.06-.07-.09-.11-.01-.02-.03-.03-.04-.05-.01-.01-.02-.03-.03-.04,0,0,0,0,0,0,0,0,0,0,0,0-.02-.03-.04-.05-.06-.08,0,0-.01-.02-.02-.03-.03-.04-.05-.07-.08-.11-.03-.04-.05-.07-.07-.11-.08-.12-.15-.25-.22-.38-.02-.03-.03-.07-.05-.1-.03-.06-.06-.12-.09-.18-.02-.04-.04-.09-.06-.14,0-.01-.01-.03-.02-.04-.03-.06-.05-.12-.07-.18,0,0,0,0,0,0-.03-.06-.05-.13-.07-.19,0,0,0-.01,0-.02,0-.01-.01-.03-.02-.04-.04-.1-.17-.17-.26-.26v2.17c.1,.16,.21,.32,.33,.48,0,0,.02,.02,.02,.03,.05,.06,.1,.12,.15,.18,0,0,0,0,0,0,.11,.12,.22,.24,.34,.35,.78,.77,1.72,1.33,2.76,1.64,1.18,.35,2.43,.57,3.7,.41,1.35-.17,2.73-.15,3.82-.81,.45,.19,.79,.44,1.14,.46,1.18,.05,2.35,.03,3.53,.02,.79-.01,1.16-.42,1.14-1.23-.01-.69-.04-1.39-.06-2.09,0-.18,0-.35,0-.52,.8,1.2,1.52,2.38,2.13,3.62,.52,1.08,1.43,1.05,2.12,.32,.5-.52,1.06-.99,1.62-1.5,.34,1.3,.47,1.4,1.78,1.4,.96,0,1.93,0,2.89,0,.93-.01,1.28-.37,1.28-1.31-.01-2.98-.03-5.96-.04-8.94Zm-6.14,7.51c-.81,.72-1.6,1.47-2.45,2.26-.35-.64-.69-1.24-1.02-1.84-.87-1.58-1.73-3.15-2.6-4.72-.2-.35-.18-.55,.13-.85,.47-.47,.93-1.01,1.21-1.6,.73-1.56-.25-2.89-2.03-2.77v11.18h-3.42v-13.9c.45,0,.91-.03,1.37,0,1.67,.13,3.34,.24,5,.44,.8,.1,1.52,.48,2.12,1.05,.81,.76,.75,1.69,.68,2.69-.1,1.33-.77,2.29-1.68,3.16-.08,.08-.01,.43,.1,.57,.88,1.17,1.76,2.33,2.68,3.46,.3,.37,.26,.57-.08,.87Zm.34-2.45c-.55-.69-1.05-1.3-1.52-1.93-.07-.09-.08-.33-.01-.41,.53-.67,.98-1.37,1.23-2.19,.04-.13,.08-.27,.1-.41,0,0,0,0,.02-.01,.08-.31,.13-.61,.16-.88,0-.07,.01-.13,.01-.19v1.03h0v4.99Zm4.65,4.11h-3.58v-.96c0-4.12-.01-8.24-.04-12.35,0-.47,.1-.62,.58-.6,.99,.04,1.99,.01,3.03,.01v13.91Z"/>
        <path class="cls-6" d="M49.44,34.96v4.67c-.55-.69-1.05-1.3-1.52-1.93-.07-.09-.08-.33-.01-.41,.53-.67,.98-1.37,1.23-2.19,.05-.14,.09-.29,.13-.42,.08-.31,.13-.61,.16-.88,0-.07,.01-.13,.01-.19v1.03s0,.33,0,.33Z"/>
        <polygon class="cls-6" points="49.44 34.63 49.44 34.96 49.44 34.63 49.44 34.63"/>
        <path class="cls-6" d="M49.42,31.97v.99c-.05-.49-.18-.88-.3-1.16,.05,.07,.09,.14,.14,.22,.05-.01,.11-.03,.17-.04Z"/>
        <path class="cls-5" d="M26.58,36.78c.08-.06,.2-.11,.22-.18,1.19-3.89,4.05-5.92,7.76-7.02,.05-.01,.1,0,.22,.01,.23,1.22,.47,2.45,.71,3.7-1.61,.36-3.01,.98-4.11,2.15-.7,.75-1.09,1.63-1.08,2.65,.02,1.55,1.27,2.69,2.94,2.6,0-.6,0-1.22,0-1.83q0-1.35,1.36-1.35c.54,0,1.07-.02,1.6,.02,.14,.01,.28,.21,.4,.33,.03,.03,0,.1,0,.16,0,1.85,0,3.71,0,5.64-2.82,.53-5.61,.83-8.12-1.07-.82-.62-1.32-1.48-1.65-2.44-.04-.1-.17-.17-.26-.26,0-1.04,0-2.07,0-3.11Z"/>
        <path class="cls-4" d="M100.1,34.48c-.22-.13-.43-.26-.65-.39,.48-.15,.93-.18,1.37-.19,.83-.03,1.27-.5,1.17-1.31-.12-1.03-.26-2.05-.42-3.07-.12-.77-.54-1.13-1.3-.98-1.06,.21-2.14,.43-3.14,.83-.89,.35-1.69,.96-2.57,1.48-.06-.11-.16-.27-.24-.44-.19-.4-.35-.82-.56-1.21-.37-.7-1.08-.84-1.7-.35-.25,.2-.5,.4-.74,.61-.77,.67-1.54,1.35-2.32,2.05-.22-.27-.49-.65-.8-.97-2.71-2.81-7.83-2.71-10.67,.21-1.43,1.46-2.15,3.25-2.43,5.24-.05,.36-.18,.48-.54,.47-.91-.02-1.82-.01-2.73,0-1.03,0-1.35,.35-1.35,1.39,0,.47,0,.95,0,1.42-.05,.02-.1,.04-.15,.06-.16-.22-.38-.41-.46-.65-.23-.68-.12-1.35,.29-1.93,.89-1.27,2.16-1.93,3.67-2.19,.84-.15,1.21-.7,1.06-1.55-.21-1.18-.43-2.35-.67-3.52-.17-.83-.68-1.17-1.49-.9-1.2,.4-2.43,.76-3.52,1.37-1.92,1.07-3.43,2.61-4.43,4.61-.13,.25-.29,.49-.47,.79-.19-.9-.5-1.14-1.32-1.12-.37,.01-.75,.05-1.12,.07-.15,0-.31-.04-.46-.07,0-.06,0-.12-.01-.18,.15-.04,.3-.1,.45-.11,.6-.03,1.21-.03,1.82-.06,.73-.03,1.12-.43,1.12-1.15,0-1.02-.01-2.03-.06-3.05-.03-.84-.47-1.18-1.32-1.14-2.19,.11-4.38,.21-6.57,.31-.68,.03-1.11,.43-1.11,1.1,0,4.57,0,9.13,0,13.7,0,.74,.42,1.17,1.15,1.19,2.32,.06,4.64,.12,6.95,.17,.83,.02,1.21-.38,1.2-1.21,0-.42,0-.84,0-1.26,.06-.05,.13-.09,.19-.13,.09,.15,.14,.34,.27,.45,.52,.43,1.01,.92,1.59,1.24,2.51,1.34,5.18,1.29,7.86,.66,1.03-.24,1.13-.48,1.13-1.56v-1.39c.15,.14,.2,.17,.23,.21,1.68,2.51,4.09,3.37,6.99,3.07,2.51-.27,4.41-1.51,5.67-3.7,1.16-2.02,1.47-4.2,1.19-6.49-.03-.25,0-.5,0-.8,1.29,.27,2.03-.78,3.09-1.07-.25,.99-.33,1.94-.01,2.88,.37,1.09,1.13,1.88,2.03,2.55,.39,.29,.78,.57,1.17,.86-.01,.06-.02,.13-.03,.19-.57,.06-1.14,.14-1.72,.18-.8,.05-1.23,.49-1.14,1.28,.12,1.06,.26,2.12,.4,3.18,.11,.78,.61,1.14,1.4,1,.42-.07,.84-.15,1.26-.26,1.75-.46,3.37-1.17,4.61-2.55,1.9-2.12,2.69-5.64-1.13-7.84Zm-36.2,9.25c0,.08-.33,.21-.5,.2-1.43-.04-2.85-.11-4.27-.15-.75-.02-1.49,0-2.28,0,0-.53,0-.97,0-1.41,0-3.96,0-7.92-.04-11.88,0-.54,.13-.69,.67-.7,1.8-.04,3.6-.16,5.39-.24,.23-.01,.46,0,.73,0v3.18h-3.25v2.68c.94-.04,1.85-.08,2.8-.12v3.01h-2.8v2.31h3.57c0,1.07,.01,2.09-.02,3.11Zm11.03-.11c-1.79,.47-3.62,.61-5.46,.2-3.93-.88-5.63-4.62-3.89-8.47,1.17-2.58,3.22-4.21,5.78-5.26,.54-.22,1.1-.39,1.72-.61,.25,1.3,.49,2.53,.74,3.8-1.27,.29-2.42,.74-3.41,1.52-1.13,.9-1.85,2-1.75,3.52,.09,1.39,1.43,2.53,2.88,2.34v-3.14h3.39v6.09Zm13.68-4.05c-1.48,3.86-4.9,5.27-8.57,4.08-1.94-.62-3.06-2.14-3.6-4.07-.21-.76-.28-1.57-.36-2.02,.13-2.81,.84-5.03,2.82-6.63,1.69-1.37,3.66-1.73,5.74-1.2,2.84,.73,4.06,2.59,4.46,5.38,.22,1.53,.06,3.03-.49,4.47Zm4.74-7.9c-.81,.46-1.63,.92-2.51,1.4-.17-.35-.34-.66-.46-.99-.04-.11,0-.33,.1-.4,.73-.65,1.48-1.27,2.31-1.98,.27,.6,.53,1.15,.76,1.71,.02,.05-.11,.21-.2,.27Zm7.75,9c-1.33,2.24-3.54,2.99-6.03,3.41-.14-1.12-.27-2.17-.41-3.24,.59-.09,1.15-.13,1.67-.27,.42-.12,.84-.31,1.19-.56,.48-.35,.48-.89,.02-1.27-.53-.44-1.11-.84-1.66-1.26-1.07-.82-1.84-1.8-1.73-3.24,.09-1.15,.71-2.04,1.55-2.78,1.32-1.15,2.91-1.69,4.62-1.92,.05,0,.1,.02,.21,.05,.14,1.05,.27,2.07,.41,3.11-.57,.07-1.08,.12-1.58,.19-.23,.03-.46,.08-.67,.16-.85,.33-.97,1.07-.24,1.62,.46,.34,.96,.62,1.43,.93,1.95,1.29,2.41,3.06,1.22,5.06Z"/>
        <path class="cls-5" d="M38.91,29.83c.45,0,.91-.03,1.37,0,1.67,.13,3.34,.24,5,.44,.8,.1,1.52,.48,2.12,1.05,.81,.76,.75,1.69,.68,2.69-.1,1.33-.77,2.29-1.68,3.16-.08,.08-.01,.43,.1,.57,.88,1.17,1.76,2.33,2.68,3.46,.3,.37,.26,.57-.08,.87-.81,.72-1.6,1.47-2.45,2.26-.35-.64-.69-1.24-1.02-1.84-.87-1.57-1.72-3.15-2.6-4.72-.2-.35-.18-.55,.13-.85,.47-.47,.93-1.01,1.21-1.6,.73-1.56-.25-2.89-2.03-2.77v11.17h-3.42v-13.9Z"/>
        <path class="cls-5" d="M54.09,43.74h-3.58c0-.33,0-.65,0-.96,0-4.12,0-8.24-.04-12.35,0-.47,.1-.62,.59-.6,.99,.04,1.99,.01,3.03,.01v13.91Z"/>
        <path class="cls-5" d="M89.1,35.11c-.4-2.78-1.62-4.65-4.46-5.38-2.08-.53-4.05-.17-5.74,1.2-1.99,1.61-2.69,3.82-2.82,6.63,.08,.46,.15,1.26,.36,2.02,.53,1.93,1.66,3.45,3.6,4.07,3.67,1.18,7.09-.22,8.57-4.08,.55-1.44,.71-2.94,.49-4.47Zm-4.28,4.19c-.34,.85-.86,1.57-1.9,1.72-1.05,.14-1.86-.23-2.36-1.15-.52-.96-.63-1.99-.6-3.05-.05-.01-.09-.03-.14-.04,.24-.87,.43-1.75,.74-2.6,.4-1.07,1.38-1.71,2.35-1.66,.99,.05,1.8,.76,2.12,1.9,.46,1.64,.43,3.29-.21,4.88Z"/>
        <path class="cls-5" d="M71.54,37.54h3.39v6.09c-1.79,.47-3.62,.61-5.46,.2-3.93-.88-5.63-4.62-3.89-8.47,1.17-2.58,3.22-4.21,5.78-5.26,.54-.22,1.1-.39,1.72-.61,.25,1.3,.49,2.53,.74,3.8-1.27,.29-2.42,.74-3.41,1.52-1.13,.9-1.85,2-1.75,3.52,.09,1.4,1.43,2.53,2.88,2.34v-3.13Z"/>
        <path class="cls-5" d="M56.84,43.79c0-.53,0-.97,0-1.41,0-3.96,0-7.92-.04-11.88,0-.54,.13-.69,.67-.7,1.8-.04,3.6-.16,5.39-.24,.23-.01,.46,0,.73,0v3.18h-3.25v2.68c.94-.04,1.85-.08,2.8-.12v3.01h-2.8v2.31h3.57c0,1.07,.01,2.09-.02,3.11,0,.08-.33,.21-.5,.2-1.43-.04-2.85-.11-4.27-.15-.74-.02-1.49,0-2.28,0Z"/>
        <path class="cls-5" d="M100.53,29.61c.14,1.05,.27,2.07,.41,3.12-.57,.07-1.08,.12-1.59,.19-.23,.03-.46,.08-.67,.16-.85,.33-.97,1.07-.24,1.62,.45,.34,.96,.62,1.43,.93,1.95,1.29,2.41,3.06,1.22,5.06-1.33,2.24-3.54,2.99-6.03,3.41-.14-1.12-.27-2.17-.41-3.24,.59-.09,1.15-.13,1.67-.27,.42-.11,.84-.31,1.19-.56,.48-.35,.48-.89,.02-1.27-.53-.44-1.11-.84-1.66-1.26-1.07-.82-1.84-1.8-1.73-3.24,.09-1.15,.71-2.04,1.55-2.78,1.32-1.15,2.91-1.69,4.62-1.92,.05,0,.1,.02,.21,.05Z"/>
        <path class="cls-5" d="M90.84,33.08c-.17-.35-.34-.66-.46-.98-.04-.11,0-.33,.09-.4,.73-.65,1.48-1.27,2.31-1.98,.27,.6,.53,1.15,.76,1.71,.02,.05-.11,.21-.2,.27-.81,.46-1.63,.92-2.51,1.4Z"/>
        <path class="cls-4" d="M85.03,34.43c-.32-1.14-1.13-1.84-2.12-1.9-.97-.06-1.95,.58-2.35,1.66-.31,.84-.5,1.73-.74,2.6,.05,.01,.09,.03,.14,.04-.02,1.06,.08,2.1,.6,3.05,.51,.92,1.32,1.29,2.36,1.15,1.04-.14,1.56-.87,1.9-1.72,.63-1.59,.67-3.23,.21-4.88Zm-.96,3.7s0,0,0,0h0c-.1,.43-.26,.85-.53,1.24-.52,.77-1.57,.77-1.99-.04-.22-.42-.34-.9-.42-1.36-.18-1.09-.07-2.16,.37-3.19,.1-.24,.24-.48,.41-.68,.42-.48,1.01-.58,1.43-.31h0s0,0,0,0c.02,0,.16,.07,.32,.29,.21,.28,.45,.8,.52,1.77,.05,.24,.1,.49,.16,.73-.05,.01-.1,.02-.14,.04h0v.05c0,.35-.01,.7-.06,1.04-.02,.14-.04,.28-.07,.41Z"/>
        <path class="cls-4" d="M27.83,41.97l-.75,.77s0,0,0,0c-.03-.05-.25-.35-.5-.85-.45-.89-1.03-2.39-.96-4.18,.13-1.08,.51-2.1,.96-2.99,.03-.07,.07-.14,.11-.21l.53,.95s0,0,0,0c0,0,0,.01-.01,.03,0,.01-.01,.03-.02,.06-.02,.04-.04,.08-.06,.14-.25,.65-.86,2.58-.26,4.5,.17,.53,.42,1.06,.81,1.56,0,0,0,0,0,0,.03,.03,.05,.07,.08,.1,.03,.04,.06,.07,.09,.11Z"/>
      </g>
      <path class="cls-4" d="M49.43,33.61c0,.06,0,.13-.01,.19-.03,.27-.07,.56-.16,.88-.03,.14-.08,.28-.13,.42l-.35-3.84s0,0,0,0c.02,.02,.17,.2,.32,.53,0,0,0,0,0,0,.13,.28,.26,.67,.3,1.16,0,.04,0,.09,.01,.14,.01,.16,.01,.33,0,.51Z"/>
      <polyline class="cls-6" points="49.42 30.22 49.42 30.6 49.42 30.95 49.43 33.09 49.43 33.61"/>
      <line class="cls-6" x1="49.44" y1="35.3" x2="49.44" y2="34.96"/>
      <path class="cls-4" d="M84.65,37.61l-.51,.11h0c.05-.35,.06-.7,.06-1.05v-.05h0c0-.28,0-.54-.02-.76-.07-.97-.31-1.49-.52-1.77-.27-.78,.48-.11,.48-.11l.63,1.25s-.02,1.25,0,1.31c.02,.07-.13,1.08-.13,1.08Z"/>
      <polygon class="cls-4" points="83.35 33.8 83.35 33.8 83.35 33.8 83.35 33.8"/>
      <path class="cls-4" d="M84.2,36.62s0,.03,0,.05v-.05h0Z"/>
      <path class="cls-5" d="M80.01,38.09s-.27-1.82,.4-3.46c.65-1.6-.87-1.4-.87-1.4,0,0-2.13,1.91-2.06,2.04s1.05,3.2,1.05,3.33,.75,.52,.75,.52l.73-1.03Z"/>
      <path class="cls-4" d="M81.22,33.17s-1.32,1.06-1.27,3.64,.78-1.82,.78-1.82l.31-.69,.17-1.13Z"/>
    </g>
    <rect class="cls-2" x="0" y="93.55" width="70.24" height="18.64" rx="5.7" ry="5.7"/>
    <g>
      <path class="cls-3" d="M11.74,102.49v.14s0,.04-.03,.04h-.43c-.02-.07-.02-.13-.02-.2-.02-.18-.04-.35-.07-.53-.02-.06-.03-.11-.05-.17-.02-.11-.07-.22-.11-.32,0-.02-.02-.03-.02-.05-.06-.11-.11-.23-.18-.35-.04-.07-.09-.14-.14-.2,0-.02-.02-.02-.03-.04-.21-.29-.47-.53-.76-.74-.06-.04-.11-.08-.17-.11-.11-.07-.23-.12-.34-.18h-.03c-.17-.07-.34-.14-.52-.17-.23-.05-.45-.07-.68-.08-.02,0-.04,0-.05-.02,0,0,0-.02-.02-.02v-.38c0-.06,0-.07,.07-.07h.12c.09,0,.19,.02,.28,.02,.03,0,.07,0,.1,.02,.24,.04,.47,.1,.71,.18,.66,.25,1.21,.65,1.64,1.21,0,0,.02,.02,.02,.02,.03,.02,.05,.06,.07,.09,.07,.1,.13,.2,.19,.29,.07,.11,.12,.23,.17,.35,.06,.13,.11,.26,.14,.39,.02,.05,.04,.09,.02,.14,.04,.17,.07,.34,.1,.52,0,.08,.02,.16,.02,.25v-.03Z"/>
      <path class="cls-3" d="M4.46,100.55s0-.06,.02-.08c0-.06,.03-.11,.05-.16s.05-.09,.09-.13c.14-.14,.29-.29,.43-.43,.05-.05,.11-.1,.16-.14,.06-.04,.13-.07,.2-.08,.05-.02,.08-.02,.13-.03h.2c.06,.02,.11,.02,.17,.05,.26,.09,.44,.26,.56,.51,.05,.09,.07,.19,.09,.29,.07,.23,.13,.47,.19,.7s.02,.44-.1,.64c-.04,.07-.08,.12-.14,.17-.07,.07-.16,.16-.24,.23-.04,.04-.05,.07-.03,.13,.03,.09,.07,.19,.1,.28,.05,.11,.1,.23,.16,.34,.11,.2,.24,.4,.38,.58,.04,.05,.07,.1,.12,.14,.27,.29,.57,.53,.93,.72,.11,.06,.23,.11,.34,.16,.1,.05,.2,.07,.3,.11,.03,.02,.06,0,.08-.02,.07-.07,.16-.16,.24-.24,.19-.2,.42-.28,.69-.26,.11,0,.22,.05,.32,.07,.02,0,.03,.02,.05,.02,.2,.06,.42,.11,.63,.17,.02,0,.04,.02,.06,.02,.22,.08,.38,.23,.51,.44,.03,.06,.05,.11,.07,.17,.02,.05,.03,.09,.04,.14v.21s-.02,.09-.02,.13c-.05,.16-.13,.29-.25,.39-.12,.11-.25,.24-.36,.36-.05,.05-.1,.09-.16,.11-.08,.03-.17,.07-.26,.07-.14,0-.27,0-.41-.02-.15,0-.29-.02-.44-.05-.16-.02-.32-.05-.48-.09-.29-.07-.57-.16-.85-.27-.03-.02-.07-.02-.1-.04-.06-.02-.11-.05-.17-.07-.14-.07-.26-.13-.39-.2-.18-.11-.35-.21-.52-.33-.14-.11-.29-.21-.42-.33-.15-.14-.29-.26-.43-.41-.12-.13-.23-.26-.35-.41-.03-.04-.06-.08-.09-.12-.02-.02-.02-.05-.05-.07-.11-.17-.23-.34-.33-.52-.07-.13-.14-.26-.2-.39-.02-.05-.04-.1-.07-.14-.06-.14-.11-.28-.16-.41-.07-.18-.11-.36-.16-.55,0-.05-.02-.1-.03-.14-.02-.07-.02-.15-.05-.22,0-.05-.02-.08,0-.13-.02-.14-.03-.27-.04-.41,0-.11-.02-.23-.02-.34v-.11h.02Z"/>
      <path class="cls-3" d="M8.1,100.84v-.42s.02-.04,.04-.04c.11,0,.23,.02,.34,.02,.05,0,.1,0,.14,.02,.16,.05,.31,.09,.45,.16,.65,.33,1.08,.84,1.25,1.56v.02s.02,.07,.02,.1c0,.11,.02,.2,.02,.31,.02,.07,0,.08-.07,.07h-.38s-.02-.04-.02-.06c0-.05,0-.11-.02-.16,0-.04-.02-.08-.02-.12-.02-.07-.03-.14-.05-.21-.09-.29-.25-.54-.47-.75-.2-.2-.44-.34-.71-.43-.07-.02-.14-.04-.2-.05-.04,0-.07-.02-.11-.02-.05,0-.11-.02-.16-.02h-.04Z"/>
      <path class="cls-3" d="M8.17,102.21s-.07-.04-.07-.09v-.38c.13,0,.25,.03,.36,.07,.04,0,.07,.02,.1,.04,.02,.02,.05,.02,.07,.05,.08,.06,.16,.13,.21,.21,.04,.06,.07,.11,.11,.18,.05,.09,.06,.2,.07,.29v.07l-.02,.02c-.06,.02-.11,0-.17,0h-.21c-.06,0-.07,0-.07-.07-.02-.15-.09-.26-.22-.34-.04-.02-.07-.03-.11-.05-.02,0-.03,0-.04-.02v0Z"/>
    </g>
    <path class="cls-9" d="M81.65,99.72c-.37-.32-.79-.56-1.29-.6-.13-.02-.27,0-.41-.04h-.6s-.06,.02-.09,.02c-.21,.02-.42,.02-.63,.09-1.16,.42-1.98,1.52-1.99,2.82,0,.6,.15,1.17,.41,1.71,.5,1.05,1.22,1.93,2.07,2.72,.13,.12,.28,.21,.44,.24h.24c.12-.04,.25-.05,.35-.15,.24-.23,.49-.46,.72-.71,.46-.5,.87-1.04,1.22-1.64,.35-.63,.6-1.29,.63-2.01,.03-.98-.32-1.8-1.06-2.46h0v.02Zm-1.98,3.8c-.85-.03-1.51-.7-1.48-1.52,.03-.83,.72-1.48,1.51-1.45,.83,.03,1.48,.72,1.46,1.53-.03,.83-.71,1.48-1.5,1.45h0Z"/>
    <g>
      <path class="cls-9" d="M16.67,98.56c.28-.24,.66-.35,1.12-.35,.32,0,.59,.06,.81,.17,.23,.11,.4,.26,.51,.45,.11,.19,.17,.4,.17,.64,0,.27-.07,.5-.21,.69-.14,.19-.31,.32-.5,.38v.03c.25,.08,.45,.22,.59,.42,.14,.2,.21,.46,.21,.77,0,.26-.06,.49-.18,.7s-.3,.36-.53,.48c-.23,.12-.51,.17-.84,.17-.49,0-.89-.12-1.2-.37s-.47-.61-.49-1.09h.89c0,.21,.08,.38,.22,.51,.14,.13,.32,.19,.56,.19,.22,0,.39-.06,.51-.19,.12-.12,.18-.28,.18-.48,0-.26-.08-.45-.25-.56-.17-.11-.42-.17-.77-.17h-.19v-.75h.19c.62,0,.92-.21,.92-.62,0-.19-.06-.33-.17-.44-.11-.1-.27-.16-.48-.16s-.36,.06-.47,.17c-.11,.11-.17,.25-.19,.42h-.89c.02-.43,.17-.77,.46-1Z"/>
      <path class="cls-9" d="M20.38,102.03c.42-.35,.75-.64,1-.87,.25-.23,.45-.47,.62-.73,.17-.25,.25-.5,.25-.74,0-.22-.05-.39-.16-.52-.1-.13-.26-.19-.48-.19s-.38,.07-.5,.22c-.12,.15-.18,.34-.18,.6h-.88c.02-.52,.17-.91,.46-1.18s.66-.4,1.12-.4c.49,0,.87,.13,1.14,.39,.26,.26,.4,.61,.4,1.04,0,.34-.09,.66-.27,.97-.18,.31-.39,.58-.62,.8s-.54,.5-.92,.82h1.92v.75h-3.21v-.68l.34-.29Z"/>
      <path class="cls-9" d="M23.72,99.15v-.84h1.57v4.74h-.94v-3.9h-.63Z"/>
      <path class="cls-9" d="M26.65,98.56c.28-.24,.66-.35,1.12-.35,.32,0,.59,.06,.81,.17,.23,.11,.4,.26,.51,.45,.11,.19,.17,.4,.17,.64,0,.27-.07,.5-.21,.69-.14,.19-.31,.32-.5,.38v.03c.25,.08,.45,.22,.59,.42,.14,.2,.21,.46,.21,.77,0,.26-.06,.49-.18,.7s-.3,.36-.53,.48c-.23,.12-.51,.17-.84,.17-.49,0-.89-.12-1.2-.37s-.47-.61-.49-1.09h.89c0,.21,.08,.38,.22,.51,.14,.13,.32,.19,.56,.19,.22,0,.39-.06,.51-.19,.12-.12,.18-.28,.18-.48,0-.26-.08-.45-.25-.56-.17-.11-.42-.17-.77-.17h-.19v-.75h.19c.62,0,.92-.21,.92-.62,0-.19-.06-.33-.17-.44-.11-.1-.27-.16-.48-.16s-.36,.06-.47,.17c-.11,.11-.17,.25-.19,.42h-.89c.02-.43,.17-.77,.46-1Z"/>
      <path class="cls-9" d="M33.1,99l-1.73,4.05h-.92l1.74-3.95h-2.23v-.78h3.14v.68Z"/>
      <path class="cls-9" d="M33.79,99.5c0-.23,.06-.45,.18-.64,.12-.19,.3-.35,.54-.46,.24-.11,.53-.17,.88-.17s.64,.06,.88,.17c.24,.12,.42,.27,.54,.46s.18,.41,.18,.64-.06,.45-.18,.63-.27,.32-.47,.42c.24,.1,.42,.26,.56,.46,.13,.2,.2,.44,.2,.71,0,.3-.07,.55-.22,.77s-.35,.39-.61,.5c-.26,.12-.55,.18-.88,.18s-.62-.06-.88-.18c-.26-.12-.46-.28-.61-.5s-.22-.48-.22-.77c0-.27,.07-.51,.2-.71s.32-.35,.56-.45c-.43-.23-.65-.57-.65-1.05Zm1,1.63c-.15,.13-.23,.31-.23,.54,0,.22,.07,.39,.22,.53,.15,.14,.35,.2,.61,.2s.46-.07,.6-.21c.15-.14,.22-.31,.22-.53,0-.23-.08-.41-.23-.54-.15-.13-.35-.19-.6-.19s-.45,.06-.6,.19Zm1.13-2c-.13-.12-.3-.18-.52-.18s-.39,.06-.52,.18c-.13,.12-.19,.28-.19,.5,0,.2,.07,.35,.2,.47,.13,.12,.3,.18,.51,.18s.38-.06,.51-.18c.13-.12,.2-.28,.2-.47,0-.21-.06-.38-.19-.49Z"/>
      <path class="cls-9" d="M40.06,99.09c-.11-.09-.26-.14-.46-.14-.3,0-.52,.12-.66,.36-.14,.24-.21,.63-.22,1.17,.1-.17,.26-.31,.46-.41,.2-.1,.42-.15,.65-.15,.28,0,.53,.06,.75,.18,.22,.12,.39,.3,.51,.53s.18,.51,.18,.84c0,.31-.06,.58-.19,.82-.12,.24-.31,.43-.54,.56-.24,.13-.52,.2-.85,.2-.45,0-.81-.1-1.06-.3-.26-.2-.44-.48-.54-.84-.1-.36-.15-.8-.15-1.32,0-.79,.14-1.39,.41-1.8,.27-.41,.7-.61,1.29-.61,.46,0,.81,.12,1.06,.37,.25,.25,.4,.55,.44,.92h-.85c-.04-.18-.12-.32-.22-.41Zm-1.02,1.8c-.16,.13-.23,.33-.23,.59s.07,.46,.22,.6,.35,.22,.62,.22c.23,0,.42-.07,.56-.22,.14-.14,.21-.34,.21-.58s-.07-.45-.2-.6-.33-.22-.58-.22c-.23,0-.42,.07-.58,.2Z"/>
      <path class="cls-9" d="M42.4,98.86c.27-.42,.72-.64,1.35-.64s1.08,.21,1.35,.64c.27,.42,.41,1.01,.41,1.76s-.14,1.35-.41,1.78c-.27,.43-.72,.64-1.35,.64s-1.08-.21-1.35-.64-.41-1.02-.41-1.78,.14-1.34,.41-1.76Zm2.15,.95c-.04-.22-.12-.4-.25-.54-.12-.14-.31-.21-.55-.21s-.43,.07-.55,.21c-.12,.14-.21,.32-.25,.54s-.06,.49-.06,.81,.02,.61,.06,.83,.12,.4,.25,.54,.31,.21,.55,.21,.43-.07,.55-.21c.13-.14,.21-.32,.25-.54,.04-.22,.06-.5,.06-.83s-.02-.59-.06-.81Z"/>
      <path class="cls-9" d="M46.48,102.03c.42-.35,.75-.64,1-.87,.25-.23,.45-.47,.62-.73,.17-.25,.25-.5,.25-.74,0-.22-.05-.39-.16-.52-.1-.13-.26-.19-.48-.19s-.38,.07-.5,.22c-.12,.15-.18,.34-.18,.6h-.88c.02-.52,.17-.91,.46-1.18s.66-.4,1.12-.4c.49,0,.87,.13,1.14,.39,.26,.26,.4,.61,.4,1.04,0,.34-.09,.66-.27,.97-.18,.31-.39,.58-.62,.8s-.54,.5-.92,.82h1.92v.75h-3.21v-.68l.34-.29Z"/>
      <path class="cls-9" d="M49.82,99.15v-.84h1.57v4.74h-.94v-3.9h-.63Z"/>
      <path class="cls-9" d="M18.23,104.39l-1.3,3.05h-.43l1.32-3.01h-1.81v-.37h2.22v.32Z"/>
      <path class="cls-9" d="M19.46,106.94c.11,.1,.27,.14,.46,.14,.26,0,.45-.1,.57-.3,.12-.2,.18-.54,.18-1.03-.07,.14-.17,.25-.33,.33-.15,.08-.32,.12-.51,.12-.21,0-.4-.04-.56-.13-.16-.09-.29-.21-.39-.38s-.14-.37-.14-.6c0-.33,.1-.6,.29-.81,.19-.2,.47-.31,.82-.31,.44,0,.74,.14,.92,.43,.18,.28,.26,.71,.26,1.27,0,.39-.04,.72-.11,.97-.07,.26-.19,.45-.36,.59-.17,.13-.4,.2-.69,.2-.32,0-.57-.09-.74-.26-.18-.17-.28-.39-.3-.66h.39c.03,.18,.1,.32,.22,.41Zm.96-1.29c.13-.13,.2-.31,.2-.53,0-.23-.07-.42-.2-.57-.13-.14-.32-.22-.55-.22-.22,0-.39,.07-.52,.21s-.19,.32-.19,.54,.06,.41,.19,.55c.13,.14,.31,.21,.56,.21,.21,0,.38-.06,.51-.19Z"/>
      <path class="cls-9" d="M23.73,104.39l-1.3,3.05h-.43l1.32-3.01h-1.81v-.37h2.22v.32Z"/>
      <path class="cls-9" d="M24.53,104.23c.2-.16,.46-.24,.78-.24,.21,0,.4,.04,.55,.12s.27,.18,.35,.31c.08,.13,.12,.28,.12,.44,0,.19-.06,.36-.17,.5-.11,.14-.26,.23-.43,.27v.02c.2,.05,.36,.15,.48,.29,.12,.15,.18,.34,.18,.58,0,.18-.04,.34-.12,.48-.08,.14-.2,.25-.36,.33-.16,.08-.36,.12-.59,.12-.33,0-.6-.09-.81-.26s-.33-.42-.36-.74h.41c.02,.19,.1,.34,.23,.46,.13,.12,.31,.18,.52,.18s.38-.06,.5-.17c.11-.11,.17-.26,.17-.44,0-.23-.08-.4-.23-.51-.16-.1-.39-.15-.71-.15h-.11v-.36h.11c.29,0,.5-.05,.65-.14,.15-.09,.22-.23,.22-.43,0-.17-.05-.3-.16-.4-.11-.1-.26-.15-.46-.15s-.35,.05-.47,.15c-.12,.1-.19,.23-.21,.4h-.42c.02-.29,.13-.51,.33-.67Z"/>
      <path class="cls-9" d="M26.86,106.69v-.32l1.64-2.28h.51v2.23h.47v.37h-.47v.75h-.42v-.75h-1.73Zm1.75-2.15l-1.26,1.78h1.26v-1.78Z"/>
      <path class="cls-9" d="M30.79,106.31c.22-.2,.41-.42,.57-.64,.15-.22,.23-.44,.23-.66,0-.2-.05-.36-.15-.48s-.26-.18-.48-.18-.38,.07-.49,.2c-.12,.13-.18,.31-.19,.53h-.41c.01-.35,.12-.62,.32-.81,.2-.19,.46-.29,.77-.29s.58,.09,.77,.27c.19,.18,.28,.42,.28,.73,0,.26-.08,.51-.23,.76s-.33,.46-.53,.65c-.2,.19-.45,.4-.75,.65h1.61v.36h-2.25v-.3c.4-.32,.71-.58,.93-.78Z"/>
      <path class="cls-9" d="M32.49,104.44v-.39h.88v3.38h-.43v-3h-.45Z"/>
      <path class="cls-9" d="M35.95,105.54v.36h-1.87v-.36h1.87Z"/>
      <path class="cls-9" d="M37,104.23c.2-.16,.46-.24,.78-.24,.21,0,.4,.04,.55,.12s.27,.18,.35,.31c.08,.13,.12,.28,.12,.44,0,.19-.06,.36-.17,.5-.11,.14-.26,.23-.43,.27v.02c.2,.05,.36,.15,.48,.29,.12,.15,.18,.34,.18,.58,0,.18-.04,.34-.12,.48-.08,.14-.2,.25-.36,.33-.16,.08-.36,.12-.59,.12-.33,0-.6-.09-.81-.26s-.33-.42-.36-.74h.41c.02,.19,.1,.34,.23,.46,.13,.12,.31,.18,.52,.18s.38-.06,.5-.17c.11-.11,.17-.26,.17-.44,0-.23-.08-.4-.23-.51-.16-.1-.39-.15-.71-.15h-.11v-.36h.11c.29,0,.5-.05,.65-.14,.15-.09,.22-.23,.22-.43,0-.17-.05-.3-.16-.4-.11-.1-.26-.15-.46-.15s-.35,.05-.47,.15c-.12,.1-.19,.23-.21,.4h-.42c.02-.29,.13-.51,.33-.67Z"/>
      <path class="cls-9" d="M39.32,104.44v-.39h.88v3.38h-.43v-3h-.45Z"/>
      <path class="cls-9" d="M41.15,105.38c-.09-.13-.14-.29-.14-.48,0-.17,.04-.32,.13-.46,.08-.14,.21-.24,.38-.32,.17-.08,.37-.12,.61-.12s.44,.04,.61,.12c.17,.08,.29,.19,.38,.32s.13,.29,.13,.46c0,.18-.05,.34-.15,.48s-.23,.24-.4,.3c.19,.06,.35,.16,.46,.31,.11,.15,.17,.33,.17,.54s-.05,.38-.15,.53c-.1,.15-.24,.27-.42,.35-.18,.08-.39,.12-.63,.12s-.45-.04-.62-.12c-.18-.08-.32-.2-.42-.35-.1-.15-.15-.33-.15-.53s.06-.39,.17-.54c.11-.15,.27-.25,.46-.31-.17-.07-.31-.17-.4-.3Zm.4,.65c-.15,.11-.22,.27-.22,.48,0,.2,.07,.36,.21,.48,.14,.12,.33,.18,.57,.18s.43-.06,.57-.18,.21-.28,.21-.48-.07-.37-.22-.48c-.14-.11-.33-.17-.57-.17s-.42,.05-.57,.16Zm1.08-1.51c-.12-.1-.3-.15-.51-.15s-.39,.05-.51,.15-.19,.25-.19,.44c0,.17,.06,.32,.19,.42,.13,.11,.3,.16,.5,.16s.38-.05,.51-.16,.19-.25,.19-.42c0-.19-.06-.34-.19-.44Z"/>
      <path class="cls-9" d="M44.1,105.38c-.09-.13-.14-.29-.14-.48,0-.17,.04-.32,.13-.46,.08-.14,.21-.24,.38-.32,.17-.08,.37-.12,.61-.12s.44,.04,.61,.12c.17,.08,.29,.19,.38,.32s.13,.29,.13,.46c0,.18-.05,.34-.15,.48s-.23,.24-.4,.3c.19,.06,.35,.16,.46,.31,.11,.15,.17,.33,.17,.54s-.05,.38-.15,.53c-.1,.15-.24,.27-.42,.35-.18,.08-.39,.12-.63,.12s-.45-.04-.62-.12c-.18-.08-.32-.2-.42-.35-.1-.15-.15-.33-.15-.53s.06-.39,.17-.54c.11-.15,.27-.25,.46-.31-.17-.07-.31-.17-.4-.3Zm.4,.65c-.15,.11-.22,.27-.22,.48,0,.2,.07,.36,.21,.48,.14,.12,.33,.18,.57,.18s.43-.06,.57-.18,.21-.28,.21-.48-.07-.37-.22-.48c-.14-.11-.33-.17-.57-.17s-.42,.05-.57,.16Zm1.08-1.51c-.12-.1-.3-.15-.51-.15s-.39,.05-.51,.15-.19,.25-.19,.44c0,.17,.06,.32,.19,.42,.13,.11,.3,.16,.5,.16s.38-.05,.51-.16,.19-.25,.19-.42c0-.19-.06-.34-.19-.44Z"/>
      <path class="cls-9" d="M48.93,104.39l-1.3,3.05h-.43l1.32-3.01h-1.81v-.37h2.22v.32Z"/>
      <path class="cls-9" d="M50.28,106.31c.22-.2,.41-.42,.57-.64,.15-.22,.23-.44,.23-.66,0-.2-.05-.36-.15-.48s-.26-.18-.48-.18-.38,.07-.49,.2c-.12,.13-.18,.31-.19,.53h-.41c.01-.35,.12-.62,.32-.81,.2-.19,.46-.29,.77-.29s.58,.09,.77,.27c.19,.18,.28,.42,.28,.73,0,.26-.08,.51-.23,.76s-.33,.46-.53,.65c-.2,.19-.45,.4-.75,.65h1.61v.36h-2.25v-.3c.4-.32,.71-.58,.93-.78Z"/>
      <path class="cls-9" d="M51.99,106.69v-.32l1.64-2.28h.51v2.23h.47v.37h-.47v.75h-.42v-.75h-1.73Zm1.75-2.15l-1.26,1.78h1.26v-1.78Z"/>
      <path class="cls-9" d="M54.92,104.44v-.39h.88v3.38h-.43v-3h-.45Z"/>
      <path class="cls-9" d="M57.3,106.94c.11,.1,.27,.14,.46,.14,.26,0,.45-.1,.57-.3,.12-.2,.18-.54,.18-1.03-.07,.14-.17,.25-.33,.33-.15,.08-.32,.12-.51,.12-.21,0-.4-.04-.56-.13-.16-.09-.29-.21-.39-.38s-.14-.37-.14-.6c0-.33,.1-.6,.29-.81,.19-.2,.47-.31,.82-.31,.44,0,.74,.14,.92,.43,.18,.28,.26,.71,.26,1.27,0,.39-.04,.72-.11,.97-.07,.26-.19,.45-.36,.59-.17,.13-.4,.2-.69,.2-.32,0-.57-.09-.74-.26-.18-.17-.28-.39-.3-.66h.39c.03,.18,.1,.32,.22,.41Zm.96-1.29c.13-.13,.2-.31,.2-.53,0-.23-.07-.42-.2-.57-.13-.14-.32-.22-.55-.22-.22,0-.39,.07-.52,.21s-.19,.32-.19,.54,.06,.41,.19,.55c.13,.14,.31,.21,.56,.21,.21,0,.38-.06,.51-.19Z"/>
      <path class="cls-9" d="M61.57,104.39l-1.3,3.05h-.43l1.32-3.01h-1.81v-.37h2.22v.32Z"/>
    </g>
    <g>
      <path class="cls-9" d="M86.23,102.02c.18-.31,.42-.56,.73-.73,.31-.17,.66-.26,1.04-.26,.45,0,.84,.12,1.18,.35,.34,.23,.57,.55,.71,.96h-.93c-.09-.19-.22-.34-.39-.43s-.36-.14-.58-.14c-.23,0-.44,.05-.63,.16s-.32,.26-.43,.46c-.1,.2-.15,.43-.15,.7s.05,.5,.15,.7c.1,.2,.24,.36,.43,.47s.39,.16,.63,.16c.22,0,.41-.05,.58-.15s.3-.24,.39-.44h.93c-.13,.41-.37,.73-.71,.96-.34,.23-.73,.34-1.18,.34-.38,0-.73-.09-1.04-.26-.31-.17-.55-.42-.73-.73s-.27-.66-.27-1.06,.09-.75,.27-1.06Z"/>
      <path class="cls-9" d="M91.39,100.83v4.26h-.81v-4.26h.81Z"/>
      <path class="cls-9" d="M92.18,105c-.09-.09-.14-.2-.14-.34s.05-.25,.14-.34c.09-.09,.21-.14,.36-.14s.26,.05,.35,.14c.09,.09,.14,.2,.14,.34s-.05,.25-.14,.34-.21,.14-.35,.14-.27-.05-.36-.14Z"/>
      <path class="cls-9" d="M94.86,101.64v-.74h1.39v4.2h-.83v-3.46h-.56Z"/>
      <path class="cls-9" d="M99.03,101.58c-.09-.08-.23-.12-.41-.12-.26,0-.46,.11-.58,.32-.12,.21-.19,.56-.19,1.04,.09-.15,.23-.27,.4-.36,.18-.09,.37-.13,.58-.13,.25,0,.47,.05,.66,.16,.19,.11,.34,.26,.45,.47s.16,.45,.16,.74c0,.27-.06,.52-.16,.73-.11,.21-.27,.38-.48,.5-.21,.12-.46,.18-.76,.18-.4,0-.71-.09-.94-.27-.23-.18-.39-.42-.48-.74-.09-.32-.14-.71-.14-1.17,0-.7,.12-1.23,.36-1.59,.24-.36,.62-.54,1.15-.54,.4,0,.72,.11,.94,.33,.22,.22,.35,.49,.39,.82h-.75c-.04-.16-.1-.28-.2-.36Zm-.9,1.59c-.14,.12-.21,.29-.21,.52s.06,.41,.19,.54,.31,.2,.54,.2c.21,0,.37-.06,.49-.19,.12-.13,.18-.3,.18-.51s-.06-.4-.18-.53-.29-.2-.52-.2c-.2,0-.37,.06-.51,.18Z"/>
      <path class="cls-9" d="M101.1,101.38c.24-.38,.64-.56,1.2-.56s.96,.19,1.2,.56c.24,.38,.36,.9,.36,1.56s-.12,1.19-.36,1.57c-.24,.38-.64,.57-1.2,.57s-.96-.19-1.2-.57-.36-.9-.36-1.57,.12-1.19,.36-1.56Zm1.9,.84c-.04-.19-.11-.35-.22-.48-.11-.12-.27-.18-.49-.18s-.38,.06-.49,.18c-.11,.12-.18,.28-.22,.48s-.05,.43-.05,.72,.02,.54,.05,.73,.11,.36,.22,.48,.27,.18,.49,.18,.38-.06,.49-.18c.11-.12,.18-.28,.22-.48,.03-.2,.05-.44,.05-.73s-.02-.52-.05-.72Z"/>
      <path class="cls-9" d="M109.47,102.51l-.19,.89h.73v.72h-.89l-.21,.98h-.77l.21-.98h-1.05l-.21,.98h-.76l.21-.98h-.87v-.72h1.03l.19-.89h-.86v-.72h1.02l.2-.96h.76l-.2,.96h1.05l.2-.96h.77l-.2,.96h.74v.72h-.89Zm-.77,0h-1.05l-.19,.89h1.05l.19-.89Z"/>
      <path class="cls-9" d="M113.77,101.59h-1.87v.99c.08-.1,.2-.18,.35-.24,.15-.06,.31-.1,.48-.1,.31,0,.56,.07,.76,.2,.2,.13,.34,.31,.43,.52,.09,.21,.13,.43,.13,.67,0,.44-.13,.8-.38,1.07-.25,.27-.61,.4-1.07,.4-.44,0-.79-.11-1.05-.33-.26-.22-.41-.51-.44-.86h.78c.03,.15,.11,.28,.23,.37,.12,.09,.28,.14,.46,.14,.23,0,.4-.07,.51-.21,.12-.14,.17-.33,.17-.56s-.06-.42-.18-.54-.29-.19-.52-.19c-.16,0-.3,.04-.4,.12-.11,.08-.18,.19-.23,.32h-.77v-2.47h2.61v.71Z"/>
      <path class="cls-9" d="M117.48,101.59h-1.87v.99c.08-.1,.2-.18,.35-.24,.15-.06,.31-.1,.48-.1,.31,0,.56,.07,.76,.2,.2,.13,.34,.31,.43,.52,.09,.21,.13,.43,.13,.67,0,.44-.13,.8-.38,1.07-.25,.27-.61,.4-1.07,.4-.44,0-.79-.11-1.05-.33-.26-.22-.41-.51-.44-.86h.78c.03,.15,.11,.28,.23,.37,.12,.09,.28,.14,.46,.14,.23,0,.4-.07,.51-.21,.12-.14,.17-.33,.17-.56s-.06-.42-.18-.54-.29-.19-.52-.19c-.16,0-.3,.04-.4,.12-.11,.08-.18,.19-.23,.32h-.77v-2.47h2.61v.71Z"/>
      <path class="cls-9" d="M120.92,102.7v.68h-2.44v-.68h2.44Z"/>
      <path class="cls-9" d="M124.4,101.51l-1.53,3.59h-.82l1.54-3.5h-1.97v-.69h2.78v.6Z"/>
      <path class="cls-9" d="M126.03,104.31c.11,.09,.26,.14,.44,.14,.24,0,.41-.1,.52-.3s.16-.53,.16-1c-.09,.12-.21,.22-.37,.29-.16,.07-.33,.1-.52,.1-.25,0-.47-.05-.67-.15-.2-.1-.35-.25-.47-.46s-.17-.45-.17-.73c0-.43,.13-.77,.38-1.02,.25-.25,.6-.38,1.04-.38,.55,0,.93,.18,1.16,.52,.22,.35,.34,.88,.34,1.58,0,.5-.04,.91-.13,1.23-.09,.32-.23,.56-.44,.73-.21,.17-.5,.25-.86,.25-.28,0-.53-.06-.73-.16-.2-.11-.35-.25-.46-.43-.11-.18-.17-.38-.18-.59h.75c.03,.17,.1,.3,.21,.39Zm.87-1.61c.12-.12,.17-.29,.17-.5,0-.23-.06-.4-.18-.53-.12-.12-.29-.19-.49-.19s-.37,.06-.49,.19c-.12,.13-.18,.3-.18,.51s.06,.37,.18,.5,.29,.19,.53,.19c.2,0,.36-.06,.47-.18Z"/>
    </g>
  </g>
</svg>