<?xml version="1.0" encoding="UTF-8"?>
<svg id="Capa_2" data-name="Capa 2" xmlns="http://www.w3.org/2000/svg" viewBox="0 0 218.37 113.11">
  <defs>
    <style>
      .cls-1 {
        fill: #fff;
      }

      .cls-2 {
        fill: #e7e000;
      }

      .cls-3 {
        fill: #1e1e1e;
      }
    </style>
  </defs>
  <g id="Capa_1-2" data-name="Capa 1">
    <g>
      <path class="cls-3" d="M35.91,30.22v.18c0,.15-.03,.25-.09,.31-.09,.09-.17,.24-.23,.45-.09,.15-.17,.24-.25,.27-.07,.03-.16,.06-.25,.09-.06,.03-.13,.06-.2,.09-.08,.03-.14,.04-.2,.04-.15-.06-.32-.19-.52-.38-.2-.19-.38-.43-.56-.72s-.34-.61-.47-.97c-.14-.36-.2-.72-.2-1.08v-.22c.03-.15,.05-.28,.07-.38,.02-.11,.02-.22,.02-.34,.03-.12,.05-.27,.05-.45,0-.15,.03-.38,.09-.68,0-.18,.01-.31,.04-.4,0-.24,.02-.42,.05-.54l.31-1.58c0-.21,.02-.36,.05-.45l.09-.81,.31-1.44c0-.09,0-.18,.02-.27,.02-.09,.04-.19,.07-.31,0-.06,.02-.11,.05-.14l.09-.59,.09-.31c.06-.15,.1-.29,.11-.41,.01-.12,.04-.24,.07-.36l.14-.54c.06-.24,.11-.44,.16-.61,.04-.16,.07-.32,.07-.47,.03-.03,.05-.09,.05-.18,0-.12,.03-.19,.09-.22s.08-.1,.07-.2c-.02-.11,0-.19,.07-.25,0-.09,.02-.15,.05-.18l.13-.86c.03-.06,.05-.14,.07-.23,.01-.09,.05-.15,.11-.18-.03-.03-.04-.07-.04-.14,0-.09,.03-.16,.09-.22,0-.06,.01-.11,.04-.14,0-.09,.03-.19,.09-.31,.03-.06,.04-.17,.04-.32,.06-.06,.08-.13,.07-.2-.01-.07,0-.14,.07-.2,.03-.15,.06-.27,.09-.36,.03-.09,.06-.19,.09-.31,0-.09,.03-.17,.09-.23,0-.06,.03-.1,.09-.13v-.23c.06-.03,.08-.07,.07-.14-.02-.06,0-.12,.02-.18,.15-.6,.34-1.2,.56-1.8,.22-.6,.41-1.2,.56-1.8,.09-.18,.16-.33,.22-.45s.11-.26,.14-.41c.03-.06,.04-.15,.04-.27l.14-.13c0-.12,.04-.26,.13-.41,.06-.09,.11-.24,.16-.45,.04-.21,.08-.38,.11-.5,.03-.15,.07-.25,.13-.32,.06-.24,.09-.42,.09-.54,.06-.06,.1-.14,.11-.25,.01-.11,.05-.19,.11-.25l.13-.32s.05-.06,.05-.09,.01-.07,.04-.14l.18-.36c.06-.15,.12-.37,.18-.68l.23-.49c0-.09,.01-.15,.05-.18l.27-.32c.06-.06,.11-.13,.16-.2,.04-.07,.11-.11,.2-.11,.12-.03,.27-.04,.45-.04,.51,0,.95,.14,1.33,.41,.37,.27,.56,.52,.56,.76,0,.18-.12,.33-.36,.45-.24,.12-.36,.3-.36,.54,0,.15-.04,.27-.13,.36-.06,.06-.11,.12-.14,.18l-.09,.18-.09,.18c0,.06-.03,.18-.09,.36-.03,.12-.07,.23-.13,.32-.06,.09-.09,.18-.09,.27,0,.03,0,.05-.02,.07-.02,.02-.02,.04-.02,.07l-.13,.13c-.06,.12-.09,.21-.09,.27-.06,.06-.1,.14-.11,.23-.02,.09-.05,.16-.11,.22-.09,.15-.14,.29-.14,.41l-.13,.23c-.06,.18-.14,.37-.23,.58l-.31,.99c-.09,.21-.17,.42-.25,.63-.07,.21-.14,.42-.2,.63-.03,.06-.05,.13-.07,.2-.02,.08-.05,.14-.11,.2s-.09,.13-.09,.22-.01,.17-.04,.23c-.06,.18-.12,.32-.18,.41-.03,.24-.08,.45-.14,.63l-.18,.54s-.04,.07-.04,.11c0,.04-.02,.08-.05,.11,0,.12-.02,.21-.04,.27-.06,.09-.09,.19-.09,.29s-.03,.22-.09,.34c0,.03,0,.06-.02,.09-.02,.03-.02,.06-.02,.09l-.27,.81s-.05,.08-.05,.14c0,.09-.01,.18-.04,.27l-.09,.27s-.05,.09-.05,.18c0,.06-.01,.11-.04,.16-.03,.05-.05,.1-.05,.16l-.09,.45v.27c-.09,0-.13,.05-.13,.14v.18c-.09,.06-.14,.18-.14,.36-.06,.15-.14,.47-.25,.95-.11,.48-.17,.79-.2,.94,0,.12-.03,.21-.09,.27l-.14,.67s0,.05,.02,.07c.02,.01,.02,.04,.02,.07,0,.12-.03,.21-.09,.27l-.09,.27c-.03,.09-.05,.17-.05,.23-.03,.06-.04,.15-.04,.27v.18c0,.09-.02,.15-.05,.18-.06,.12-.13,.38-.2,.79-.07,.41-.14,.73-.2,.97-.03,.09-.05,.24-.05,.45l-.04,.32c-.06,.03-.11,.16-.14,.38-.03,.22-.04,.37-.04,.43,0,.09,0,.17-.02,.25-.02,.08-.04,.16-.07,.25,0,.09,0,.19-.02,.29-.02,.1-.02,.2-.02,.29,0,.06,0,.1-.02,.11-.01,.02-.02,.05-.02,.11-.03,0-.04-.03-.04-.09,0-.09,.05-.2,.16-.32,.11-.12,.17-.21,.2-.27l.09-.13,.09-.23c.06-.18,.13-.36,.2-.54,.07-.18,.16-.36,.25-.54,.06-.15,.12-.29,.18-.41s.12-.25,.18-.4l.54-1.31c.03-.06,.07-.11,.11-.14,.05-.03,.07-.09,.07-.18,.06-.12,.12-.23,.18-.34,.06-.11,.12-.22,.18-.34,.06-.09,.11-.19,.16-.29,.05-.1,.1-.2,.16-.29l.5-1.08,.59-.99c.06-.06,.09-.11,.09-.14l.13-.31,.18-.18,.22-.49c.06-.06,.11-.14,.16-.23,.05-.09,.1-.16,.16-.22l.27-.5c.03-.06,.1-.15,.22-.27l.09-.14,.27-.45c.03-.06,.1-.15,.22-.27l1.31-1.8c.06-.06,.11-.13,.16-.22,.05-.09,.1-.17,.16-.23,.12-.09,.22-.19,.29-.29,.07-.1,.16-.22,.25-.34l.18-.27,.27-.27c.09-.09,.17-.2,.23-.32,.09-.06,.19-.18,.31-.36l1.85-2.16,.32-.27c.06-.06,.11-.13,.14-.23,.03-.09,.07-.16,.13-.22,.03-.06,.08-.11,.14-.14s.1-.07,.13-.13l.54-.54c.06,0,.1-.04,.13-.11,.03-.08,.07-.13,.14-.16,.06-.03,.15-.1,.27-.22,.06-.15,.19-.32,.38-.52s.37-.32,.52-.38l.23-.27s.07-.03,.13-.09c.06-.12,.17-.21,.32-.27,.15-.06,.25-.15,.31-.27l.68-.54,.27-.09c.3-.15,.62-.28,.95-.38,.33-.1,.66-.16,.99-.16h.18c.42,0,.81,.25,1.17,.77,.24,.27,.43,.58,.56,.94,.14,.36,.2,.68,.2,.95v.36c0,.09-.03,.23-.09,.41-.06,.3-.21,.65-.45,1.06-.24,.4-.44,.82-.59,1.24,0,.03-.02,.08-.05,.14l-.09,.18-.09,.27c-.06,.06-.1,.12-.11,.18-.01,.06-.04,.12-.07,.18l-.36,.59c-.06,.06-.09,.12-.09,.18s-.03,.12-.09,.18c-.03,.03-.05,.06-.07,.09-.02,.03-.05,.06-.11,.09-.06,.06-.09,.11-.09,.14,0,.15-.05,.27-.14,.36l-.27,.54s-.04,.02-.04,.05v.09s-.02,.06-.07,.09c-.04,.03-.07,.06-.07,.09-.06,.06-.1,.11-.11,.16-.01,.05-.04,.1-.07,.16-.06,.09-.13,.17-.22,.23,0,.03,0,.06-.02,.09-.02,.03-.02,.06-.02,.09l-.16,.16s-.07,.1-.07,.16c-.03,0-.1,.07-.2,.22-.11,.15-.19,.27-.25,.36-.03,.18-.12,.3-.27,.36-.03,.06-.07,.12-.11,.18-.04,.06-.07,.12-.07,.18,0,.03-.03,.07-.09,.13l-.09,.09-.18,.09c0,.15-.04,.26-.11,.34s-.14,.16-.2,.25l-.13,.13-.09,.14-.14,.41-.13-.05c-.06,.06-.1,.11-.11,.14-.02,.03-.05,.06-.11,.09,0,.09-.02,.16-.07,.2-.05,.04-.1,.1-.16,.16l-.63,.77-.36,.31c-.06,.15-.11,.23-.13,.23-.06,.06-.1,.11-.11,.16-.02,.05-.07,.08-.16,.11-.06,0-.1,.02-.13,.07-.03,.05-.06,.08-.09,.11l-.36,.27s-.03,.08-.09,.14c0,.03-.03,.07-.09,.13l-.18,.18c-.39,.33-.77,.62-1.13,.86s-.75,.42-1.17,.54c-.3,.06-.57,.09-.81,.09-.33,0-.68-.03-1.06-.09-.37-.06-.74-.13-1.1-.22s-.69-.2-.99-.34c-.3-.13-.51-.29-.63-.47l-.09,.18c-.06,.09-.11,.16-.16,.22-.04,.06-.08,.12-.11,.18-.06,.06-.09,.12-.09,.18,0,.15-.03,.28-.09,.38-.06,.11-.12,.22-.18,.34-.24,.51-.47,1.01-.7,1.49-.23,.48-.43,.93-.61,1.35l-.13,.41c-.06,.06-.1,.13-.11,.2-.02,.07-.04,.14-.07,.2l-.14,.41c-.06,.12-.11,.23-.16,.34-.05,.11-.1,.22-.16,.34,0,.06-.02,.11-.05,.16-.03,.05-.06,.1-.09,.16,0,.06-.02,.12-.05,.18l-.36,1.08c0,.06,0,.11-.02,.16-.02,.05-.02,.08-.02,.11v.04s.04-.06,.04-.09c0-.06,.02-.1,.05-.13-.09,.48-.17,.86-.25,1.15-.07,.28-.15,.55-.22,.79-.08,.24-.11,.38-.11,.41Zm-1.8-6.8c.06-.18,.09-.35,.09-.5,.06-.24,.09-.39,.09-.45,.03-.09,.05-.17,.07-.25,.01-.08,.02-.16,.02-.25,.06-.18,.09-.31,.09-.4,.03-.12,.05-.2,.07-.25,.01-.04,.02-.1,.02-.16,.06-.18,.1-.36,.13-.54s.08-.36,.14-.54c.06-.21,.1-.35,.11-.43,.02-.07,.02-.19,.02-.34,.03-.03,.05-.09,.05-.18,.03-.03,.04-.08,.04-.14,0-.15,.03-.24,.09-.27,.09-.42,.2-.85,.32-1.28,.12-.44,.21-.86,.27-1.28,0-.09,.01-.14,.05-.14,.06-.09,.1-.19,.11-.29,.02-.1,.04-.22,.07-.34,0-.06,.01-.14,.04-.23s.06-.16,.09-.22c0-.09,0-.19,.02-.29,.01-.11,.05-.2,.11-.29,.06-.06,.09-.14,.09-.23s.01-.18,.04-.27c0-.03,.03-.13,.09-.31,0-.06,0-.12,.02-.18,.02-.06,.02-.12,.02-.18,.09-.09,.13-.16,.13-.22,0-.18,.08-.48,.23-.9,.15-.42,.32-.88,.5-1.37,.18-.49,.35-.98,.52-1.44,.17-.47,.28-.83,.34-1.1,0-.12,.05-.29,.14-.5s.14-.38,.14-.5c.03-.06,.04-.18,.04-.36,0-.06,.02-.11,.07-.16,.05-.05,.07-.1,.07-.16l.04-.58-.18,.36v.18c0,.06-.02,.11-.04,.13-.06,.06-.09,.15-.09,.27s-.02,.22-.05,.31c-.06,.15-.12,.29-.18,.43-.06,.13-.12,.26-.18,.38-.24,.75-.48,1.49-.72,2.21-.24,.72-.48,1.46-.72,2.21,0,.06-.01,.12-.04,.18s-.05,.12-.05,.18c0,.12-.02,.23-.07,.32-.04,.09-.1,.2-.16,.31-.03,.03-.05,.08-.05,.14,0,.12-.01,.2-.04,.25-.03,.05-.06,.1-.09,.16l-.14,.72-.22,.86c-.06,.18-.15,.49-.27,.95-.12,.45-.19,.75-.22,.9-.06,.33-.11,.58-.16,.74-.05,.17-.1,.41-.16,.74-.03,.03-.04,.11-.04,.23-.03,.03-.05,.07-.05,.13s0,.12-.02,.18c-.01,.06-.02,.12-.02,.18-.06,.12-.11,.23-.14,.32s-.04,.2-.04,.32c0,.06-.02,.13-.05,.2-.03,.08-.04,.14-.04,.2s.01,.11,.04,.14c-.06,.12-.1,.22-.11,.31-.01,.09-.04,.18-.07,.27-.06,.18-.09,.3-.09,.36,0,.21-.05,.4-.14,.58v.27c-.06,.24-.09,.42-.09,.54-.03,.06-.04,.15-.04,.27-.06,.66-.16,1.35-.29,2.07-.14,.72-.23,1.35-.29,1.89v.5c.12-.33,.18-.63,.18-.9,.09-.6,.17-1.18,.25-1.74,.07-.56,.17-1.13,.29-1.73Zm-.27,5.04l-.13,.13v-.27l-.09,.45c.06-.03,.1-.04,.13-.04s.06-.02,.09-.05,.05-.06,.05-.09c-.03,0-.05-.02-.05-.04v-.09Zm-.04-.63c.06,0,.12-.08,.18-.25,.06-.17,.12-.28,.18-.34-.03-.03-.08-.05-.14-.05-.09,0-.13,.03-.13,.09,0,.03-.02,.02-.05-.02-.03-.04-.04-.08-.04-.11,0,.15-.02,.25-.05,.31,0,.06,0,.12,.02,.18,.01,.06,.02,.12,.02,.18Zm.18,.5v-.23c0-.09,.03-.15,.09-.18l-.09-.04s-.05,.04-.05,.13c-.09,.06-.13,.12-.13,.18s.06,.11,.18,.14Zm-.05-1.67s0-.05,.02-.07c.02-.02,.02-.04,.02-.07,0-.12-.05-.03-.14,.27l.09-.13c-.03,.15-.04,.27-.04,.36,0,.06,.01,.11,.04,.14l.18-.09-.18-.41Zm.14-.14s.05-.03,.07-.09c.02-.06,.02-.12,.02-.18v-.09s-.02-.07-.05-.11c-.03-.04-.06-.13-.09-.25l.05,.72Zm.45-2.7s.05-.1,.05-.22c-.12,.06-.21,.12-.27,.18,0,.03,.07,.04,.22,.04Zm.41-2.48s.04-.08,.13-.16c.09-.08,.14-.14,.14-.2v-.18c0-.09,0-.17-.02-.23s-.02-.12-.02-.18c0-.15,.03-.22,.09-.22s.1-.03,.11-.09c.02-.06,.04-.24,.07-.54,0-.09,.03-.13,.09-.13,.03-.03,.05-.1,.05-.2s.01-.19,.04-.25c0-.09,.02-.17,.05-.25,.03-.07,.06-.16,.09-.25,.06-.24,.14-.56,.23-.95s.21-.84,.36-1.35c0-.06,0-.13,.02-.2,.01-.08,.02-.14,.02-.2l.14-.45c.03-.06,.04-.15,.04-.27,0-.09,.02-.14,.05-.14,.06-.06,.08-.14,.07-.25-.02-.11,.02-.2,.11-.29,.06-.06,.1-.17,.11-.34,.01-.16,.02-.28,.02-.34s.03-.15,.09-.27c.06-.12,.1-.23,.13-.32,.27-.84,.53-1.67,.79-2.5,.25-.83,.5-1.64,.74-2.45,0-.06,.01-.14,.04-.23l.09-.27c.03-.12,.08-.24,.14-.36l.09-.63s-.08,.02-.14,.05-.09,.08-.09,.14c0,.12-.01,.22-.04,.31-.06,.06-.11,.19-.14,.38-.03,.2-.06,.34-.09,.43-.12,.42-.26,.91-.43,1.47-.17,.56-.34,1.09-.52,1.6-.15,.39-.29,.73-.43,1.01-.14,.28-.2,.58-.2,.88-.12,.12-.2,.24-.23,.36,0,.06,0,.1-.02,.11-.02,.02-.02,.04-.02,.07v.32l-.05-.13-.13,.27c.06,.06,.09,.13,.09,.22,0,.06-.02,.11-.05,.14-.12,.03-.18,.12-.18,.27v.13c0,.06-.01,.09-.04,.09-.06,.18-.09,.3-.09,.36-.03,.03-.05,.07-.05,.13-.03,.03-.04,.08-.04,.14l-.05,.54s-.04,0-.04,.02c0,.01-.02,.02-.05,.02h-.04c-.09,.6-.21,1.11-.36,1.53s-.25,.9-.31,1.44c-.03,.12-.05,.19-.05,.22s-.03,.09-.09,.18l.14,.09s-.07,.06-.11,.09c-.04,.03-.07,.06-.07,.09l.04,.14c-.06,0-.09,.04-.09,.13v.32s-.01,.06-.04,.09-.05,.06-.05,.09c-.03,.06-.04,.15-.04,.27-.06,.12-.09,.2-.09,.23-.03,.09-.07,.28-.11,.56-.05,.28-.09,.57-.14,.86-.04,.28-.09,.55-.13,.81-.05,.26-.08,.4-.11,.43,.12,0,.18-.03,.18-.09,.03-.24,.11-.6,.23-1.08s.18-.83,.18-1.04Zm-.14,5.09s.05-.04,.05-.13v-.23c0-.06,.02-.13,.07-.22,.04-.09,.08-.14,.11-.14-.06-.03-.09-.09-.09-.18s.01-.15,.04-.18v-.63s0,.05-.02,.07c-.01,.02-.02,.04-.02,.07,0,.12-.02,.21-.05,.27,0,.06-.01,.12-.04,.18-.03,.06-.05,.12-.05,.18,0,.06,.02,.11,.05,.14-.03,.03-.05,.06-.05,.09v.09c0,.06,0,.13-.02,.2-.01,.07-.02,.14-.02,.2,0,.09,.01,.16,.04,.22-.06,.12-.09,.2-.09,.23l-.09,.54c.09-.06,.14-.17,.14-.31,0-.21,.01-.36,.04-.45Zm.54-2.61l.05-.31c-.06,.06-.09,.12-.09,.18s.01,.1,.04,.13Zm.18-2.03c-.03,.12-.06,.23-.09,.32s-.04,.19-.04,.31c.06,0,.1-.03,.11-.09,.01-.06,.02-.1,.02-.13v-.41Zm0-.04c.06-.09,.12-.23,.18-.41,0-.03,0-.05-.02-.07-.02-.02-.02-.05-.02-.11,0-.09,.03-.2,.09-.32,.03-.06,.05-.15,.05-.27-.03-.03-.05,0-.05,.09-.06,.15-.09,.29-.09,.43s-.03,.28-.09,.43c0,.06-.02,.14-.05,.23Zm.27-1.4c.12-.06,.18-.15,.18-.27l-.14,.05-.04,.23Zm.04-1.8c.03-.06,.07-.11,.14-.16,.06-.05,.09-.1,.09-.16s-.04-.04-.11,.07c-.08,.1-.11,.19-.11,.25Zm.18,1.22c0-.09,.03-.14,.09-.14v-.04l-.09-.18v.36Zm.54,5.04l-.22,.58c.06-.03,.11-.11,.16-.25,.05-.13,.07-.25,.07-.34Zm.14,1.44l-.14,.32c.09-.03,.14-.14,.14-.32Zm.27-.54c-.06,.06-.12,.15-.18,.27l.04,.05s.06-.05,.09-.14,.05-.15,.05-.18Zm-.09-.32l.14-.36c.06-.03,.09-.09,.09-.18-.09,.06-.14,.14-.16,.23-.01,.09-.04,.2-.07,.31Zm.18-7.88c0-.06-.03-.09-.09-.09-.03,0-.05,.02-.05,.04v.05l.05,.09c.06,0,.09-.03,.09-.09Zm.09,6.08v-.09s.01-.06,.05-.09c.06-.03,.09-.07,.09-.11,0-.05,.03-.1,.09-.16-.12,0-.19,.05-.2,.16-.02,.11-.02,.2-.02,.29-.06,.06-.1,.11-.11,.16-.01,.05-.04,.1-.07,.16,.03,0,.07-.06,.14-.18,.03-.03,.04-.07,.04-.13Zm.05,.95c.09-.15,.17-.32,.25-.5,.07-.18,.14-.35,.2-.5,.03-.03,.04-.07,.04-.13l-.27,.54c-.09,.18-.16,.38-.22,.59Zm.22,.18c-.12,.03-.18,.09-.18,.18l.18-.18Zm.99-3.87l-.27,.41c-.03,.06-.05,.13-.07,.22-.01,.09-.05,.17-.11,.23-.06,0-.09,.05-.09,.14-.03,.09-.07,.18-.11,.27-.05,.09-.08,.16-.11,.22l-.27,.54c.03,.06,.1-.02,.22-.23s.2-.35,.23-.41c.06-.12,.09-.21,.09-.27,0-.09,.03-.16,.09-.22l.13-.18v-.05s.02-.06,.05-.09l.23-.41v-.18Zm-.77,3.24l.13-.18c0-.09,.02-.15,.05-.18-.06,.06-.11,.1-.16,.11-.05,.02-.07,.05-.07,.11,0,.03,0,.05,.02,.07,.01,.02,.02,.04,.02,.07Zm.09-.9c.09,0,.13-.03,.13-.09l.41-.9c.06-.12,.12-.23,.18-.34,.06-.1,.12-.22,.18-.34l.27-.72,.05-.09h-.05c-.09,.12-.14,.22-.16,.31-.02,.09-.05,.17-.11,.23l-.59,1.22c-.06,.18-.12,.31-.18,.41l-.13,.31Zm1.26-3.69c-.03,.06-.04,.11-.04,.16,0,.05-.03,.08-.09,.11-.06,.09-.12,.22-.18,.41-.03,.06-.06,.1-.09,.13-.03,.03-.05,.08-.05,.14s-.02,.1-.04,.13c-.03,.03-.05,.08-.05,.14s.01,.1,.05,.13v-.18c.06-.12,.13-.22,.2-.31,.08-.09,.11-.18,.11-.27,.12-.15,.21-.3,.27-.45s.15-.3,.27-.45c-.15,0-.23,.04-.25,.11-.02,.08-.05,.14-.11,.2Zm-.09,1.8l.32-.63-.27,.27s-.05,.08-.05,.14v.22Zm1.67-4.37c-.09,0-.13,.05-.13,.14-.09,0-.14,.03-.14,.09,0,.12-.03,.2-.09,.22-.06,.03-.09,.08-.09,.14l-.27,.41,.09,.13c-.12,0-.18,.03-.18,.09-.03,.12-.09,.24-.18,.36s-.17,.23-.23,.32c.15-.03,.23-.1,.23-.23,0-.06,.05-.15,.16-.27,.11-.12,.17-.21,.2-.27l.18-.31s0-.06,.02-.09c.01-.03,.02-.06,.02-.09,.06-.06,.11-.11,.16-.16,.05-.04,.07-.11,.07-.2-.03,0-.03-.01,0-.04,0,.03,.06-.05,.18-.23,.09-.09,.17-.18,.23-.27l.18-.27,.27-.54v-.05s-.05,.03-.07,.09c-.02,.06-.04,.11-.07,.14-.06,.06-.11,.12-.14,.18s-.08,.12-.14,.18c-.06,.03-.09,.07-.09,.11,0,.04-.01,.07-.04,.07l-.14,.36Zm12.57-12.61c-.24,0-.49,.06-.75,.18-.25,.12-.46,.21-.61,.27-.06,.03-.11,.05-.16,.07-.05,.02-.07,.05-.07,.11l-.31,.18c-.27,.27-.46,.46-.56,.56-.11,.11-.2,.19-.27,.25-.08,.06-.15,.12-.23,.18-.07,.06-.22,.2-.43,.41l.18-.05c0,.09-.02,.14-.05,.14l-.13,.09-.23,.32,.09-.23-.31,.23,.13-.05c0,.12-.04,.18-.13,.18l-.05,.05-.27,.36s-.06,.01-.09,.04l-.09,.09s-.05,.06-.07,.09c-.02,.03-.05,.06-.11,.09-.06,.03-.12,.11-.18,.23,0,.03-.03,.08-.09,.14-.27,.36-.55,.7-.83,1.01-.29,.31-.55,.64-.79,.97l-.13,.18,.13,.05,.18-.18c0,.15-.03,.24-.09,.27-.15,0-.22,.08-.22,.22-.06,.06-.12,.11-.18,.16-.06,.04-.11,.11-.14,.2l-.14,.13c0-.06,0-.1,.02-.11,.02-.01,.04-.05,.07-.11l-.22,.13,.22-.36s.08,.05,.14,.05c.06-.03,.11-.08,.16-.16,.05-.07,.1-.14,.16-.2l-.14-.09c-.06,.03-.09,.06-.09,.09,0,.03-.02,.06-.04,.09l-.54,.63c-.06,.06-.1,.12-.13,.18s-.09,.1-.18,.13c-.03,.03-.06,.08-.09,.14-.06,.12-.09,.21-.09,.27s.01,.11,.04,.13c.18-.3,.27-.43,.27-.4s.05-.03,.14-.18c0-.06,.03-.09,.09-.09l.13-.09c-.3,.42-.61,.83-.94,1.24-.33,.41-.66,.82-.99,1.24,0-.21,.05-.36,.14-.45,.06-.06,.12-.15,.18-.27-.09,.06-.2,.18-.32,.36l-.54,.72s-.04,.08-.11,.16-.13,.11-.16,.11l.09-.13-.32,.31,.18-.09c-.06,.06-.1,.12-.13,.18-.03,.06-.06,.12-.09,.18l-.41,.58c-.06,.06-.11,.14-.16,.23-.05,.09-.1,.16-.16,.22-.12,.15-.2,.26-.25,.32-.04,.06-.08,.12-.11,.18s-.06,.09-.09,.09l-.67,.99,.04,.18c.09,.09,.11,.13,.05,.13l-.72,1.31c-.06,.09-.13,.18-.2,.27-.08,.09-.14,.18-.2,.27v-.18c0-.06,.03-.12,.09-.18-.12,0-.18,.05-.18,.14,0,.12-.05,.24-.14,.36,.03,0,.07,.03,.14,.09l.09,.09c.12,.09,.33,.17,.63,.23,.12,.03,.33,.04,.63,.04h.23c.33,0,.66-.04,.99-.14l.68-.27c.18-.09,.36-.2,.54-.34s.35-.26,.5-.38c.15-.15,.25-.24,.31-.27,.12-.09,.21-.18,.27-.27,.06-.06,.11-.11,.16-.14,.04-.03,.08-.07,.11-.13,.06-.06,.13-.12,.2-.18,.08-.06,.16-.12,.25-.18l.04,.04c0,.06-.03,.09-.09,.09-.09,.06-.17,.14-.25,.23-.08,.09-.16,.18-.25,.27-.03,.06-.11,.15-.23,.27,.15-.06,.25-.14,.32-.23,.06-.09,.16-.16,.31-.22l-.54,.59c.15-.06,.3-.17,.45-.34,.15-.16,.27-.29,.36-.38l.27-.31,.18-.09c.15-.24,.32-.46,.5-.65,.18-.2,.35-.4,.5-.61l-.23,.23c.06-.15,.11-.25,.16-.29,.04-.05,.1-.1,.16-.16l.18-.27,.13,.09s-.04-.09-.04-.18c0-.06,.01-.1,.04-.13l.14-.14s.07-.07,.14-.13c.03,0,.07-.05,.11-.14,.05-.09,.08-.15,.11-.18l.14-.18c.06-.12,.12-.2,.18-.25,.06-.05,.12-.11,.18-.2,0-.03,.03-.07,.09-.14,.12-.15,.22-.29,.29-.43,.07-.14,.17-.28,.29-.43,.06-.06,.12-.13,.18-.2,.06-.08,.1-.16,.13-.25l.18-.22c0-.06,.02-.12,.07-.18,.04-.06,.1-.12,.16-.18l.18-.32c.06-.06,.09-.1,.09-.13l.27-.36,.09-.09s.05-.07,.05-.13c.06-.18,.16-.37,.29-.56,.14-.2,.23-.38,.29-.56,.03-.03,.05-.08,.05-.14,.06-.06,.11-.13,.16-.2,.05-.07,.11-.14,.2-.2l-.05-.14c.06-.12,.12-.23,.18-.34,.06-.11,.12-.22,.18-.34,.06-.09,.11-.17,.16-.25,.04-.07,.08-.16,.11-.25l.67-1.8c.06-.12,.09-.21,.09-.27l.14-.59c.06-.18,.09-.31,.09-.4v-.59c0-.27-.04-.48-.13-.63Zm-12.75,14.73l.09-.18c.03-.06,.05-.12,.05-.18l-.27,.23,.13,.14Zm.77-2.12l-.13,.27c.09-.03,.13-.12,.13-.27Zm.14-1.26c.09-.06,.15-.14,.18-.23s.07-.18,.13-.27c-.09,.06-.15,.14-.18,.23s-.07,.18-.13,.27Zm.94-1.35c-.15,.15-.27,.33-.36,.54,.15-.15,.24-.27,.27-.36l.09-.18c.21-.15,.33-.3,.36-.45-.15,.12-.27,.27-.36,.45Zm.54-.67c.06-.06,.12-.12,.18-.18,.06-.06,.09-.15,.09-.27-.06,.06-.11,.13-.16,.2-.04,.08-.08,.16-.11,.25Zm.09,.63l.13,.04c0-.12,.02-.21,.07-.27,.04-.06,.08-.13,.11-.22l-.31,.45Zm.58-1.49c.03-.06,.08-.1,.16-.11,.07-.01,.13-.05,.16-.11,.06-.21,.12-.34,.18-.4l.05-.05s0-.05-.02-.05c-.02,0-.02-.01-.02-.04-.06,.06-.11,.13-.16,.2-.05,.07-.08,.14-.11,.2-.06,.06-.11,.11-.16,.16-.05,.04-.07,.11-.07,.2Zm1.13-1.49l.59-.59c-.3,.09-.5,.29-.59,.59Zm1.35-1.58c.06-.06,.13-.13,.2-.2,.07-.08,.11-.14,.11-.2l-.04,.04s-.07,.07-.11,.11c-.04,.05-.1,.13-.16,.25Zm7.43-2.57c-.06,.06-.09,.11-.09,.14s-.02,.06-.04,.09c-.06,.12-.09,.19-.09,.22,0,.06-.03,.15-.09,.27,0,.03-.03,.11-.09,.23l-.13,.45-.81,1.58-.72,1.13c-.06,.12-.12,.21-.18,.27l-.63,1.08-.14,.31c-.06,.06-.11,.11-.16,.16-.04,.04-.08,.1-.11,.16l-.4,.59c-.06,.09-.14,.22-.23,.4s-.18,.32-.27,.41c-.06,.06-.11,.11-.16,.13-.05,.03-.07,.08-.07,.14,0,.09-.09,.26-.27,.52-.18,.26-.31,.38-.4,.38-.06,0-.14,.08-.23,.23s-.13,.26-.13,.32c-.09,0-.14,.01-.14,.04s0,.06-.02,.09c-.01,.03-.02,.06-.02,.09l-.05,.05-.18,.27c-.03,.06-.07,.1-.11,.13-.04,.03-.1,.08-.16,.14-.15,.21-.36,.45-.63,.72-.27,.27-.44,.51-.5,.72,.15,0,.24-.03,.27-.09,.06-.06,.16-.17,.29-.34,.13-.16,.26-.32,.38-.47,.12-.18,.25-.36,.4-.54l.27-.36c.06-.15,.16-.29,.31-.43,.15-.13,.26-.26,.32-.38,.09-.12,.19-.24,.31-.36s.26-.3,.41-.54c.06,0,.12-.03,.18-.09l-.13-.09c.06-.06,.1-.1,.13-.11,.03-.01,.06-.05,.09-.11,.06-.18,.16-.36,.29-.54s.26-.34,.38-.49l.63-.9s.05-.09,.05-.18c.06-.12,.12-.19,.18-.22l1.22-2.03,.22-.45c.06-.15,.11-.26,.16-.34,.04-.08,.1-.14,.16-.2l.09-.18c0-.06,.01-.11,.04-.14,.06-.06,.08-.11,.07-.16-.02-.04,0-.08,.07-.11,0-.06,0-.1-.02-.11-.01-.01-.02-.04-.02-.07s.02-.04,.05-.04,.06-.02,.09-.05l.18-.63c.06-.21,.12-.44,.18-.68Zm-6.84,2.66s-.05,0-.05-.02-.02-.02-.04-.02c-.03,0-.05,.02-.05,.05l-.27,.31c.09-.03,.16-.07,.22-.13s.12-.12,.18-.18Zm1.89-1.94s-.09,.05-.18,.14-.13,.15-.13,.18c.03,0,.07,0,.13-.02,.06-.01,.09-.05,.09-.11,.06-.06,.09-.12,.09-.18Zm.72-1.03c.12,0,.19-.05,.22-.14-.06,0-.13,.04-.22,.14Zm.67,7.97s.09-.15,.27-.36,.3-.36,.36-.45c.03-.03,.04-.09,.04-.18-.06,.06-.09,.12-.09,.18s-.06,.09-.18,.09c0,.09,0,.14-.02,.16-.01,.02-.04,.04-.07,.07l-.32,.5Zm1.26-1.85s.08-.17,.25-.43c.17-.25,.26-.38,.29-.38,.03-.09,.06-.14,.09-.16,.03-.01,.05-.04,.05-.07,.03-.06,.04-.14,.04-.23l.23-.22-.14-.05,.14-.04v-.09s.01-.05,.04-.05c.06,0,.12-.06,.18-.18,0-.06,.03-.15,.09-.27,.03-.03,.07-.07,.11-.14,.05-.06,.07-.12,.07-.18,0-.06,.02-.08,.07-.07,.04,.02,.07,0,.07-.07,0-.03,.02-.11,.07-.25,.05-.13,.1-.2,.16-.2l.14-.27-.14,.09c0-.06,.03-.11,.09-.14s.09-.07,.09-.13v-.09s0-.04,.02-.04c.02,0,.02-.01,.02-.05l.09-.27s-.05,0-.07,.02c-.02,.02-.04,.02-.07,.02l-.22,.45c-.15,.09-.23,.23-.23,.41-.03,0-.04,.01-.04,.04l-.05,.09s-.04,.09-.04,.18l-.41,.68c-.06,.09-.11,.17-.16,.25-.05,.08-.08,.16-.11,.25s-.07,.16-.11,.2c-.04,.04-.08,.1-.11,.16l-.13,.18-.18,.36c-.06,.12-.09,.21-.09,.27l-.05,.09c-.09,.15-.18,.33-.27,.54-.09,.21-.2,.41-.31,.59,.06,0,.09-.01,.09-.04s.01-.05,.04-.05,.11-.11,.23-.34c.12-.23,.18-.35,.18-.38Zm2.7-5.49c-.15,.12-.22,.21-.2,.27,.01,.06,0,.15-.07,.27,0,.03-.02,.05-.07,.07-.04,.02-.07,.05-.07,.11-.03,.09-.04,.2-.04,.32l-.18,.36c.12,0,.19-.07,.2-.2,.02-.14,.07-.2,.16-.2v-.18c0-.06,.01-.1,.04-.13,0-.03,0-.05,.02-.07,.01-.01,.02-.04,.02-.07,.09-.18,.13-.29,.13-.32,0-.06,0-.1,.02-.13,.01-.03,.02-.06,.02-.09Zm-.32-.72c-.06,.03-.09,.08-.09,.14,0,.09,.02,.15,.05,.18,0-.06,0-.1,.02-.13,.02-.03,.02-.09,.02-.18Z"/>
      <path class="cls-3" d="M59.6,20.81c0,.15-.05,.33-.16,.54-.11,.21-.19,.35-.25,.41-.06,.18-.26,.46-.59,.85-.09,.03-.2,.07-.32,.11-.12,.05-.16,.07-.13,.07,.03,.03,.07,.05,.13,.05s.11,0,.16,.02c.05,.01,.1,.02,.16,.02-.03,.03-.08,.04-.14,.04s-.12,0-.18-.02c-.06-.01-.12-.02-.18-.02-.03,.03-.05,.06-.07,.09-.02,.03-.05,.06-.11,.09-.06,.06-.14,.13-.23,.2-.09,.08-.16,.16-.22,.25-.12,.06-.18,.16-.18,.31,.06-.06,.1-.1,.11-.13,.01-.03,.05-.06,.11-.09,.06,0,.12-.02,.18-.05l-.72,.95v-.04l-.04-.09c-.06,.18-.09,.25-.09,.22l-1.13,.81c-.06,.03-.11,.05-.14,.05s-.06,.02-.09,.04c-.21,0-.38,.03-.5,.09-.12,.06-.21,.09-.27,.09-.24,0-.45-.05-.63-.14-.24-.12-.41-.23-.5-.32-.06-.06-.12-.13-.18-.22s-.13-.15-.22-.18-.14-.09-.16-.18c-.01-.09-.05-.17-.11-.23l-.27-.63c-.03-.06-.06-.13-.09-.2-.03-.07-.05-.17-.05-.29,0-.06,0-.1,.02-.11,.01-.01,.02-.05,.02-.11,0-.15-.02-.31-.07-.47-.04-.17-.07-.37-.07-.61,0-.12,0-.23,.02-.34,.01-.11,.02-.22,.02-.34,.03-.15,.08-.28,.16-.4,.07-.12,.13-.26,.16-.41v-.54c0-.15,.02-.27,.05-.36l.18-.77,.18-.54s.03-.11,.09-.23,.12-.25,.18-.4l.09-.72,.23-.86c.03-.06,.07-.1,.11-.11,.05-.02,.08-.04,.11-.07,0-.06-.02-.1-.04-.13-.03-.03-.05-.06-.05-.09,.06-.18,.13-.36,.2-.54,.07-.18,.14-.36,.2-.54,.03-.18,.1-.34,.22-.49,.03-.09,.09-.15,.18-.18,.03-.06,.11-.12,.23-.18,.03,0,.05-.05,.07-.14,.02-.09,.05-.16,.11-.23,.03-.06,.09-.09,.18-.09,.15,0,.39,.11,.72,.32l.5,.54c.33,.39,.5,.74,.5,1.04,0,.15-.02,.24-.05,.27s-.07,.07-.13,.11c-.06,.05-.13,.11-.2,.18s-.17,.2-.29,.38l-.09,.27-.14,.45c-.03,.06-.04,.12-.02,.18,.01,.06,0,.09-.07,.09-.09,0-.13,.06-.13,.18v.41c-.03,.15-.09,.3-.18,.45s-.14,.33-.14,.54v.23l-.13,.14c-.06,.21-.13,.41-.2,.61-.08,.2-.13,.4-.16,.61-.03,.18-.08,.35-.16,.52-.07,.17-.13,.34-.16,.52-.03,.06-.06,.17-.09,.32s-.08,.26-.14,.32c-.03,.06-.05,.09-.07,.09-.02,0-.04,.04-.07,.13,0,.06,0,.12,.02,.18,.02,.06,.02,.12,.02,.18,0,.06-.01,.13-.04,.2-.03,.08-.06,.14-.09,.2-.06,.15-.1,.33-.11,.54-.02,.21-.02,.44-.02,.68s.08,.38,.23,.41c.15,0,.31-.06,.49-.18s.35-.23,.5-.32l.36-.14,.36-.31v.27c.12-.24,.2-.38,.23-.41s.06-.07,.09-.11c.03-.04,.07-.07,.14-.07,.09,0,.16-.06,.22-.18l.59-.36,.31-.32c.09,0,.14-.01,.14-.04l.27-.32,.18-.18,.18-.18c.27-.18,.5-.36,.68-.54l.45-.36Zm-4.46-2.34c.06-.15,.13-.27,.2-.36,.07-.09,.13-.18,.16-.27-.06-.06-.09-.12-.09-.18s.02-.11,.05-.14c0,.03,0,.07,.02,.11,.02,.04,.02,.08,.02,.11,.03,0,.05-.09,.05-.27,0-.09-.03-.16-.09-.22-.03,.06-.05,.11-.07,.13-.01,.03-.02,.08-.02,.14-.03,.06-.05,.11-.05,.16,0,.05-.03,.1-.09,.16-.06,.18-.09,.33-.09,.45v.18Zm.59-1.58s.05,0,.07-.02c.01-.01,.04-.02,.07-.02-.03,0-.04-.03-.04-.09,0-.03-.02-.06-.05-.09,0-.03-.03-.06-.09-.09,0,.06-.03,.18-.09,.36,0,.03,0,.05-.02,.07-.01,.01-.02,.04-.02,.07-.03,.03-.05,.06-.05,.09,0,.06,.02,.11,.05,.13l.18-.4Zm.36-.9s.04-.1,.04-.22c-.03,0-.04-.02-.04-.05v-.04s-.05,.09-.05,.18l-.09,.18c-.03,.06-.04,.12-.04,.18-.06,.06-.09,.14-.09,.23,0,.06,.01,.1,.04,.13,0-.06,.02-.12,.05-.18,0-.03,.01-.07,.04-.13,.03,.03,.08,.04,.14,.04-.03-.03-.05-.09-.05-.18,0-.06,.02-.1,.05-.14Zm.41-6.71c-.12-.06-.18-.1-.18-.13-.03-.15-.04-.36-.04-.63,0-.39,.04-.8,.11-1.22,.07-.42,.17-.8,.29-1.13l.63-1.98c.21-.54,.45-.81,.72-.81,.12,.03,.26,.1,.41,.2,.15,.1,.24,.16,.27,.16,.06,.06,.13,.12,.2,.18,.07,.06,.13,.15,.16,.27,.06,.21,.13,.41,.2,.59,.07,.18,.11,.34,.11,.49-.06,.27-.12,.45-.18,.54-.09,.12-.17,.25-.23,.38-.06,.13-.12,.28-.18,.43s-.14,.27-.23,.36l-.22,.45-.18,.18c-.06,.06-.12,.12-.18,.18-.09,0-.21,.08-.36,.23s-.28,.27-.4,.36c-.15,.15-.27,.3-.36,.45s-.21,.3-.36,.45Z"/>
      <path class="cls-3" d="M74.51,0c.15,0,.29,.07,.43,.2,.14,.13,.25,.31,.34,.52s.16,.42,.2,.63c.05,.21,.07,.38,.07,.5-.06,.27-.14,.49-.25,.65-.1,.17-.22,.38-.34,.65-.12,.39-.24,.77-.36,1.15s-.26,.76-.41,1.15c-.39,1.08-.75,2.16-1.08,3.24-.33,1.08-.66,2.18-.99,3.29-.03,.06-.06,.12-.09,.18l-.09,.18-.04,.04-.05-.13-.04,.22c-.03,.06-.05,.14-.07,.23-.01,.09-.04,.16-.07,.22l-.04,.05h-.09l.04,.04c0,.12,.01,.21,.05,.27v.05h-.05s-.06,.02-.09,.04h-.04v.05s.04,.08,.04,.14c-.06,.12-.11,.23-.16,.34-.05,.11-.1,.2-.16,.29l-.04,.13,.13-.04v.04c-.06,.09-.1,.18-.11,.27-.02,.09-.05,.17-.11,.23-.12,.3-.24,.67-.36,1.1-.12,.44-.24,.8-.36,1.1v.05h-.05v.09c-.06,.21-.13,.42-.2,.63-.07,.21-.14,.44-.2,.68h-.04v.09c0,.06,0,.11-.02,.13-.02,.03-.02,.08-.02,.14h-.04l-.09,.05,.09,.09s.07,.03,.13,.09c-.03,.03-.04,.05-.04,.07s-.02,.04-.05,.07c-.03,0-.06-.01-.09-.04l-.09-.05v.09c-.06,.15-.1,.28-.11,.38-.02,.11-.05,.23-.11,.38l-.05,.13s-.01,.06-.04,.09l-.05,.04v.05c.06,.06,.09,.12,.09,.18v.04h-.04v.18h-.14v.05c-.06,.42-.16,.99-.31,1.71-.15,.72-.3,1.47-.45,2.25-.15,.78-.28,1.53-.38,2.25-.1,.72-.16,1.31-.16,1.76s0,.89,.02,1.33c.01,.43,.14,.85,.38,1.24,.18,.24,.36,.36,.54,.36,.24-.03,.45-.14,.63-.32s.38-.27,.59-.27c.06,0,.09,.05,.09,.14,0,.33-.17,.59-.52,.79-.35,.2-.67,.29-.97,.29-.33,0-.65-.17-.96-.5s-.54-.63-.69-.9c-.16-.24-.28-.49-.37-.74-.09-.26-.14-.5-.14-.74-.03-.54-.04-1.08-.04-1.62s.03-1.08,.09-1.62l.04-.05v-.18c.06,0,.12-.18,.16-.54s.09-.77,.12-1.24c.03-.46,.07-.93,.12-1.4,.05-.46,.1-.8,.16-1.01,0-.03,.02-.12,.05-.27s.05-.24,.05-.27c.06-.33,.16-.65,.3-.95s.26-.62,.35-.95c.12-.57,.22-.95,.29-1.13,.07-.18,.14-.43,.2-.77,.06-.18,.1-.33,.13-.45,.12-.33,.23-.67,.32-1.04,.09-.36,.2-.72,.32-1.08,.06-.15,.1-.23,.11-.25,.02-.02-.05-.05-.2-.11,.03-.03,.04-.06,.04-.09l-.09-.05c.12-.33,.23-.67,.34-1.04,.11-.36,.22-.72,.34-1.08-.6,1.14-1.15,2.21-1.66,3.2-.5,.99-.92,1.79-1.27,2.39-.12,.21-.24,.4-.34,.56-.11,.17-.2,.32-.29,.47-.03,.15-.08,.28-.16,.38-.08,.11-.14,.23-.2,.38s-.14,.29-.23,.43c-.09,.14-.18,.28-.27,.43-.09,.12-.2,.3-.31,.54v.22c-.09,0-.12,.03-.09,.09,.03,.06,.01,.11-.05,.14l-.05-.14h-.04v.23s-.05,.06-.05,.09-.01,.06-.04,.09c0,.09-.02,.15-.05,.18-.06,.15-.12,.26-.18,.32s-.1,.13-.13,.22-.08,.17-.14,.23c-.03,.06-.06,.11-.09,.16-.03,.05-.07,.1-.13,.16-.03,.03-.05,.09-.05,.18-.06,.06-.12,.13-.18,.22s-.12,.14-.18,.14c-.06,.06-.09,.1-.09,.13s-.08,.12-.23,.27c-.06,.06-.13,.15-.2,.27-.08,.12-.17,.26-.29,.41-.15,.24-.32,.45-.5,.63-.15,.18-.35,.36-.59,.54-.21,.21-.43,.31-.67,.31-.06,0-.14,0-.23,.02-.09,.01-.18,.02-.27,.02s-.2-.03-.32-.09c-.42-.18-.71-.5-.86-.97s-.25-1.06-.31-1.78c0-.51,.04-.98,.13-1.4,.03-.33,.13-.73,.29-1.19,.17-.47,.35-.93,.56-1.4s.41-.89,.61-1.26c.19-.37,.35-.65,.47-.83,.12-.18,.22-.33,.31-.45,.03-.06,.05-.1,.05-.13s.03-.08,.09-.14c.12-.21,.28-.42,.49-.63,.06-.12,.13-.22,.2-.29,.08-.07,.14-.16,.2-.25,.06-.06,.13-.11,.2-.14,.07-.03,.14-.07,.2-.13s.11-.11,.16-.14c.05-.03,.1-.07,.16-.14,.09-.09,.17-.15,.23-.18,.03-.03,.1-.07,.23-.13,.06,0,.11-.02,.16-.07,.04-.05,.16-.07,.34-.07,.21,0,.41,.02,.59,.05s.34,.11,.5,.22c.06,.06,.13,.11,.22,.14s.17,.06,.23,.09c.06,.06,.12,.11,.18,.14,.03,.03,.07,.04,.13,.04,.06,.09,.14,.15,.25,.18,.1,.03,.2,.08,.29,.14,.06,.03,.1,.06,.11,.09,.02,.03,.05,.07,.12,.13l.05,.05c.47-.93,1.01-2.06,1.63-3.38,.62-1.32,1.26-2.68,1.92-4.07,.66-1.4,1.31-2.76,1.96-4.1,.64-1.34,1.22-2.49,1.73-3.45,.06-.12,.13-.25,.23-.38,.09-.14,.21-.2,.36-.2Zm-11.98,22.34l.05-.04,.09-.09,.09,.09c0-.09,.03-.2,.09-.32,0-.03,.01-.06,.04-.09,.09-.03,.14-.1,.14-.22l.13-.14c.06-.09,.1-.17,.11-.25,.02-.08,.05-.14,.11-.2,.03-.06,.07-.1,.11-.11,.04-.01,.05-.07,.02-.16,0-.03,0-.05,.02-.05,.02,0,.02-.03,.02-.09l.09,.14v-.18c.06,0,.09-.03,.09-.09,0-.03,.06-.17,.18-.41s.2-.39,.23-.45c.06-.12,.12-.23,.18-.32,.03-.09,.11-.23,.25-.43,.14-.2,.27-.38,.41-.56,.13-.18,.31-.42,.52-.72,0-.03,0-.05,.02-.05,.01,0,.02-.01,.02-.04,.06-.15,.12-.23,.18-.23,0-.12,.06-.24,.18-.36,.03-.03,.04-.06,.04-.09s.03-.06,.09-.09v.09s0,.04-.02,.04c-.02,0-.02,.02-.02,.05,.06-.09,.11-.18,.16-.27,.05-.09,.1-.2,.16-.32-.03-.03-.05-.05-.05-.07,0-.02-.02-.04-.04-.07,0-.06-.03-.15-.09-.27-.03-.03-.05-.06-.07-.09-.01-.03-.04-.06-.07-.09-.24-.06-.44-.1-.59-.13s-.34-.02-.58,.04c-.06,0-.09,.03-.09,.09,0,.03-.07,.08-.22,.14l-.27,.13v.05c-.09,0-.14,.03-.16,.09-.02,.06-.05,.12-.11,.18h-.05c-.15,.06-.26,.15-.34,.27-.08,.12-.14,.24-.2,.36-.03,.03-.05,.06-.05,.09,.03,.12-.01,.2-.13,.23-.06,.06-.1,.16-.11,.29-.02,.13-.07,.23-.16,.29l-.09,.09c-.06,.06-.1,.13-.11,.22-.02,.09-.05,.17-.11,.23l-.09,.09-.04-.27c-.06,.15-.14,.29-.23,.4-.09,.12-.17,.26-.23,.41-.06,.06-.09,.11-.09,.16,0,.05-.01,.1-.04,.16s0,0,.11-.18c.1-.18,.22-.35,.34-.5-.06,.12-.11,.24-.16,.36-.05,.12-.1,.24-.16,.36-.06,.15-.12,.28-.18,.38-.06,.11-.12,.23-.18,.38-.03,.03-.04,.08-.04,.14-.03,.09-.06,.16-.09,.22s-.08,.12-.14,.18c-.03,.09-.06,.17-.09,.25-.03,.07-.04,.16-.04,.25-.03,0-.05,0-.05,.02,0,.01-.01,.02-.04,.02-.03,.06-.05,.14-.07,.23-.01,.09-.04,.17-.07,.23-.06,.15-.11,.29-.16,.43-.05,.14-.1,.28-.16,.43,0,.03,0,.06-.02,.09-.02,.03-.02,.08-.02,.14-.18,.12-.21,.26-.09,.41l.09-.41,.27-.63c.06-.18,.12-.33,.18-.45,.03-.09,.06-.17,.09-.25,.03-.07,.05-.16,.05-.25l.27-.54,.09-.18,.09-.18s.06-.05,.09-.05v.05c-.06,.09-.1,.18-.11,.27s-.05,.18-.11,.27l-.27,.68c-.03,.12-.09,.24-.18,.36-.03,.06-.05,.12-.07,.18-.02,.06-.04,.12-.07,.18-.03,.09-.06,.19-.09,.29-.03,.1-.06,.2-.09,.29-.03,.06-.05,.13-.05,.22s-.02,.17-.04,.23c0,.03-.02,.06-.05,.09-.03,.12-.08,.31-.16,.56-.08,.25-.13,.47-.16,.65,0,.24,.06,.31,.18,.22,.06-.03,.14-.06,.23-.09s.16-.09,.23-.18c.09-.12,.19-.22,.31-.31,.12-.09,.23-.21,.32-.36,.15-.24,.27-.47,.36-.7,.09-.23,.16-.38,.23-.47l.04-.14c.06-.03,.11-.07,.14-.11,.03-.05,.07-.1,.13-.16Zm2.16-1.89c.06-.09,.11-.19,.16-.29,.05-.11,.1-.2,.16-.29,.06-.12,.12-.21,.18-.27-.03-.24,.01-.48,.13-.72,.12-.24,.21-.45,.27-.63-.09,.03-.15,.1-.18,.2-.03,.11-.04,.2-.04,.29-.09-.09-.12-.09-.09,0,0,.06-.03,.15-.09,.27-.03,0-.05,.03-.07,.09-.01,.06-.04,.11-.07,.14-.03,0-.06,.04-.09,.13,0,.12-.06,.2-.18,.23-.03,0-.05,.03-.05,.09-.09,.24-.17,.4-.25,.5-.07,.09-.17,.25-.29,.49-.06-.03-.09,0-.09,.09s-.03,.23-.09,.41c-.03,.03-.07,.11-.13,.22-.03,.03-.06,.05-.09,.07-.03,.01-.06,.05-.09,.11-.06,.12-.12,.19-.18,.22-.03,.03-.11,.14-.23,.32-.06,.03-.1,.07-.11,.11-.01,.04-.04,.1-.07,.16l-.05,.04c-.06-.03-.12,.02-.18,.14s-.12,.21-.18,.27c0,.03-.01,.06-.04,.09-.06,.06-.06,.17,0,.32,.03-.06,.04-.12,.04-.18s.03-.09,.09-.09l.05,.13,.04,.05c.06-.06,.13-.14,.2-.25,.08-.1,.11-.19,.11-.25v-.05c.09-.09,.16-.15,.23-.18,0-.03,0-.05,.02-.07,.02-.01,.02-.04,.02-.07,.06,0,.09-.03,.09-.09,.06-.06,.12-.17,.18-.32l.05,.09c.03-.06,.04-.1,.04-.13s.02-.06,.05-.09c.06-.06,.12-.08,.18-.05,.03-.03,.04-.07,.04-.13-.03-.18,.02-.29,.14-.32l.04,.09s0-.05,.02-.07c.02-.02,.02-.04,.02-.07l.04-.04h.05v-.14l-.09,.05,.13-.27h.05v.09l.09-.09c.03-.06,.04-.12,.02-.18-.02-.06,0-.12,.07-.18Zm2.07,6.53c.03-.06,.04-.12,.04-.18s.02-.12,.05-.18l-.05-.04c0-.09,.02-.17,.05-.23h-.09c0,.12-.03,.33-.09,.63h.09Zm.09-.72c.03-.09,.04-.18,.04-.27s.02-.18,.05-.27h-.09c0,.09,0,.18-.02,.27-.02,.09-.02,.18-.02,.27h.05Zm.13-.95c.03-.15,.05-.28,.07-.4,.01-.12,.04-.24,.07-.36-.06,.09-.12,.25-.18,.49-.06,.18-.09,.33-.09,.45,0,.03,.01,.05,.04,.05,0-.06,0-.1,.02-.11,.01-.01,.02-.05,.02-.11h.04Zm.27-4.55l-.04,.05,.04-.05Zm-.02,3.38c.06-.15,.12-.32,.18-.5h-.18v.5Zm.24-1.53c0,.06,0,.11,.02,.14,.01,.03,.02,.06,.02,.09-.03,.03-.05,.06-.07,.09-.01,.03-.04,.06-.07,.09,.12,0,.18-.06,.18-.18,.06-.24,.11-.46,.14-.65,.03-.2,.09-.41,.18-.65h.04v-.05c0-.18,.02-.3,.05-.36,.24-.27,.27-.58,.09-.94,.06-.03,.12-.08,.18-.14v-.05s.09-.04,.18-.04c-.06-.06-.1-.09-.11-.09s-.04-.02-.07-.05c0-.03,0-.05,.02-.07,.01-.01,.02-.04,.02-.07-.03,0-.04,0-.04-.02,0-.01-.02-.02-.05-.02l-.13,.54-.14,.54c-.09,.33-.16,.63-.22,.9-.06,.24-.11,.46-.16,.65-.04,.2-.07,.31-.07,.34Zm2.57-6.98c.15-.51,.23-.87,.23-1.08-.18,.54-.34,1.03-.47,1.46-.13,.44-.26,.86-.38,1.28-.12,.42-.25,.85-.38,1.29-.13,.43-.28,.92-.43,1.46,0,.24-.02,.41-.05,.5h-.04c-.06,.18-.12,.46-.18,.83-.06,.37-.14,.73-.23,1.06-.15,.6-.28,1.14-.38,1.6-.1,.47-.13,.79-.07,.97l-.04,.04s-.04-.01-.02-.04c.01-.03,0-.08-.07-.14,0,.18,.01,.3,.04,.36h-.09c.06,.18,.1,.33,.14,.45h-.05l-.13-.14c.03,.15,.04,.4,.02,.74-.01,.35,0,.5,.07,.47,.06,0,.1-.02,.13-.07,.03-.05,.03-.32,0-.83l.05,.04c.03-.12,.05-.22,.07-.31,.01-.09,.02-.2,.02-.32,.06,0,.09-.02,.09-.05,0-.09,0-.18,.02-.27,.02-.09,.04-.19,.07-.31v-.14c-.06,0-.14,.02-.23,.05,.09-.18,.19-.48,.29-.9,.1-.42,.22-.87,.34-1.35s.23-.93,.34-1.35c.1-.42,.19-.75,.25-.99,.03-.12,.07-.33,.14-.63,0-.06,.03-.18,.09-.36,0-.09,.01-.15,.04-.18l-.13,.14c.06-.18,.1-.33,.13-.45s.08-.24,.14-.36c0-.06,.01-.13,.04-.2,.03-.07,.06-.17,.09-.29h.09c-.06-.06-.09-.1-.09-.14v-.04c.03-.06,.1-.27,.2-.63s.22-.75,.34-1.17Zm-1.8,3.92s.03,.08,.09,.14h.04s-.04-.08-.04-.14c.06-.18,.11-.36,.16-.54,.05-.18,.1-.36,.16-.54l-.13-.14-.27,1.22Zm.54-1.8c-.03,.06-.08,.18-.14,.36l.05,.04c.06-.09,.11-.18,.16-.27,.05-.09,.1-.19,.16-.31-.06,.06-.11,.1-.14,.11-.03,.02-.06,.04-.09,.07Zm2.88-8.33c.03-.06,.05-.13,.05-.2s.04-.17,.13-.29c-.03,0-.04-.01-.04-.04-.03,.09-.06,.18-.09,.27-.03,.09-.06,.18-.09,.27h.04Zm.45-1.58s0-.05-.02-.07c-.01-.02-.02-.05-.02-.11-.03,.15-.05,.27-.07,.36-.01,.09-.02,.17-.02,.23,0,.03,.03,.04,.09,.04,0-.15,.01-.3,.04-.45Zm.32-.9c.06-.09,.1-.19,.11-.29,.01-.11,.04-.2,.07-.29-.03,0-.05,0-.05-.02,0-.01-.01-.02-.04-.02l-.27,.95c0,.09,.01,.14,.04,.14,.03,.03,.06-.12,.09-.45h.05Z"/>
      <path class="cls-3" d="M74.33,22.65c0,.09,0,.17,.02,.23,.01,.06,.02,.12,.02,.18s-.02,.1-.05,.13c0,.03,0,.05-.02,.07-.01,.02-.02,.04-.02,.07,0,.09,.02,.19,.07,.29,.04,.1,.1,.19,.16,.25,.06,.12,.09,.2,.09,.22,0,.03,.03,.08,.09,.16,.06,.07,.12,.13,.18,.16s.11,.07,.14,.11c.03,.04,.07,.08,.13,.11,.24,.06,.42,.09,.54,.09,.24,0,.48-.06,.72-.18l.22-.14c.06,0,.1,0,.11-.02,.02-.01,.05-.02,.11-.02,.03-.06,.07-.08,.11-.07,.04,.02,.07-.02,.07-.11l.63-.27c.06,0,.1-.01,.11-.04,.01-.03,.04-.06,.07-.09,.09,0,.17-.02,.23-.07,.06-.05,.12-.1,.18-.16l.59-.4c.09-.06,.17-.11,.25-.16,.07-.04,.14-.1,.2-.16,.03-.03,.07-.05,.13-.05l.14-.13c.09,0,.13-.02,.13-.05,.09-.12,.21-.21,.36-.27l.13-.13c.12-.03,.23-.08,.32-.16,.09-.07,.18-.14,.27-.2l.13-.09c.09-.03,.21-.11,.36-.25,.15-.13,.25-.23,.31-.29,.24-.12,.42-.22,.54-.31,.06-.03,.15-.11,.27-.23l.41-.27c.12-.09,.26-.15,.41-.18,0,.03,0,.05-.02,.07-.02,.02-.02,.04-.02,.07,0,.12-.04,.2-.11,.25-.07,.04-.14,.1-.2,.16-.03,.06-.08,.11-.14,.14s-.12,.07-.18,.13l-.14,.14s-.06,.07-.09,.13c0,.12-.04,.2-.11,.23-.08,.03-.16,.09-.25,.18l-.22,.14c-.06,.09-.13,.14-.2,.16-.08,.02-.11,.1-.11,.25l-.13-.09,.04,.14-.09,.18c-.03,.06-.08,.12-.13,.18-.03,.03-.06,.04-.09,.04s-.07,.03-.13,.09c-.06,.03-.11,.07-.14,.11-.03,.05-.07,.1-.13,.16v.18c0,.09-.03,.13-.09,.13-.12,.09-.23,.18-.34,.27-.1,.09-.23,.17-.38,.23-.09,.18-.26,.36-.5,.54-.06,.06-.11,.13-.16,.2-.05,.08-.1,.16-.16,.25l-.04-.13-.23,.27-.36,.04v.18c-.24,.09-.42,.17-.54,.23s-.21,.1-.27,.14c-.09,.03-.12,.04-.09,.04,0-.03,.06-.04,.18-.04l.04,.04s.02,.06,.05,.09h-.32s-.03-.08-.09-.13l-.22,.09c-.09,.09-.12,.13-.09,.13h-.76c-.15,0-.27-.02-.36-.04-.09,0-.17,0-.25-.02-.07-.02-.16-.04-.25-.07-.12-.06-.2-.09-.23-.09s-.08-.02-.16-.05c-.08-.03-.14-.06-.2-.09l-.31-.18s-.06-.04-.09-.02c-.03,.02-.06,0-.09-.07s-.12-.14-.27-.23l-.31-.36c-.06-.06-.11-.1-.16-.13-.04-.03-.08-.09-.11-.18,0-.06-.02-.11-.07-.16-.04-.04-.08-.1-.11-.16-.06-.12-.09-.21-.09-.27,0-.24-.08-.44-.23-.59-.09-.06-.14-.24-.14-.54,0-.06,0-.14,.02-.23,.02-.09,.02-.18,.02-.27v-.72c.03-.09,.05-.17,.07-.25,.02-.08,.02-.16,.02-.25l.23-.77c.06-.18,.11-.35,.16-.52,.04-.16,.1-.32,.16-.47,.03-.06,.05-.09,.07-.09,.02,0,.04-.01,.07-.04,.03-.09,.04-.22,.04-.38s.05-.25,.14-.25c.03-.09,.06-.17,.09-.25,.03-.07,.07-.16,.13-.25l.18-.32c.09-.03,.14-.07,.14-.14,.03-.12,.1-.27,.23-.45,.12-.18,.25-.37,.38-.56,.14-.19,.27-.38,.41-.56,.14-.18,.23-.31,.29-.4,.06-.15,.21-.3,.45-.45s.42-.29,.54-.41c.18-.18,.33-.3,.45-.36,.24-.18,.49-.3,.74-.36,.25-.06,.49-.09,.7-.09,.51,0,.97,.22,1.37,.67,.41,.45,.65,.92,.74,1.4,0,.06,0,.11-.02,.14-.02,.03-.02,.08-.02,.13,0,.03,0,.05,.02,.07,.01,.01,.02,.04,.02,.07,0,.09-.02,.18-.07,.27-.04,.09-.08,.18-.11,.27-.03,.15-.1,.35-.22,.59l-.27,.59c-.06,.27-.15,.46-.27,.58-.03,.09-.08,.17-.16,.23-.07,.06-.11,.12-.11,.18,0,.09-.07,.2-.2,.32-.14,.12-.23,.19-.29,.22-.09,.09-.18,.14-.27,.14-.06,.06-.14,.1-.23,.11-.09,.01-.17,.05-.23,.11-.12,.12-.21,.18-.27,.18s-.13,.02-.2,.05c-.08,.03-.16,.04-.25,.04-.18,0-.31,.05-.4,.14-.33,0-.59-.04-.77-.14-.06-.03-.14-.08-.23-.16-.09-.07-.18-.16-.27-.25-.09-.06-.16-.13-.2-.2-.04-.07-.1-.14-.16-.2l-.09,.14c-.12,0-.18,.04-.18,.13-.06,.12-.09,.2-.09,.23-.09,.09-.14,.2-.14,.31-.09,.33-.16,.54-.22,.63-.06,.15-.1,.29-.11,.43-.02,.14-.05,.23-.11,.29s-.09,.14-.09,.25-.02,.2-.04,.29c-.03,.15-.05,.28-.05,.38v.29Zm-.9-2.39l.09-.5s.07,.04,.13,.04l-.09-.27c-.06,.06-.09,.14-.09,.23s-.03,.16-.09,.22c-.06,.06-.09,.12-.09,.18,0-.03,.05,0,.14,.09Zm1.35,0c-.09,.06-.16,.13-.22,.22-.06,.18-.12,.36-.18,.54-.06,.18-.11,.38-.14,.59-.03,.03-.05,.09-.05,.18,.06-.06,.09-.1,.09-.13,0-.12,.05-.23,.14-.32,.03-.03,.05-.06,.05-.09s.01-.07,.04-.14c0-.18,.05-.33,.14-.45s.13-.25,.13-.4Zm.09-3.11c0-.06,0-.12,.02-.18,.01-.06,.04-.14,.07-.23-.03,.03-.06,.05-.09,.05h-.09s.05,.07,.05,.13c0,.12,.01,.2,.04,.23Zm.14-.54c0-.06,.03-.1,.09-.11s.09-.05,.09-.11-.03-.09-.09-.09c0,.09-.03,.2-.09,.32Zm.36-.32c.09-.03,.13-.1,.13-.23,0-.06-.01-.1-.04-.13l-.09,.36Zm.72,2.48c1.05-.24,1.83-.72,2.34-1.44s.78-1.34,.81-1.85c0-.42-.12-.63-.36-.63-.09,0-.18,.03-.27,.09s-.2,.12-.32,.18c-.09,.06-.27,.24-.54,.54s-.56,.65-.88,1.06c-.32,.41-.59,.8-.83,1.17-.24,.38-.36,.65-.36,.83,0,.03,.06,.04,.18,.04h.22Zm-.04-3.47c-.06,0-.14,.04-.23,.13l-.14,.09v.14s.02,.04,.05,.04c.06-.06,.09-.1,.09-.13,0-.06,.03-.11,.09-.16,.06-.04,.11-.08,.14-.11Zm.49,1.53c-.06,0-.1,.02-.11,.05-.02,.03-.04,.06-.07,.09-.03,.15-.1,.27-.2,.36-.1,.09-.16,.23-.16,.41,0-.09,.09-.23,.27-.41s.27-.35,.27-.5Zm-.13-1.98c.12,0,.2-.04,.25-.11,.05-.08,.1-.13,.16-.16-.09,0-.16,.03-.22,.09-.06,.06-.12,.12-.18,.18Zm3.24,9.05c-.12,.03-.21,.08-.27,.14-.03,.03-.05,.08-.05,.13,.21-.06,.32-.15,.32-.27Zm.63-.63c-.06,0-.1,0-.11,.02-.01,.02-.04,.02-.07,.02,0,.06-.02,.1-.04,.13l-.36,.18c0,.09,.02,.14,.05,.14l.59-.41s.07-.03,.13-.09h-.18Z"/>
      <path class="cls-3" d="M104.32,20.49c.03,.06,.04,.12,.04,.18,0,.12-.07,.23-.22,.32l-.14,.18c-.15,.15-.24,.26-.27,.34-.03,.08-.11,.17-.23,.29-.03,.06-.13,.18-.31,.36-.27,.3-.54,.56-.81,.77-.09,.06-.18,.11-.27,.16-.09,.05-.18,.1-.27,.16-.12,.09-.23,.18-.34,.27-.11,.09-.22,.16-.34,.22l-.27,.09-.36,.32c-.21,.12-.45,.18-.72,.18-.06,0-.14,0-.23-.02-.09-.01-.22-.04-.4-.07-.06,0-.12-.03-.18-.09l-.23-.14c-.06,0-.11-.01-.14-.04,.03,0,0-.05-.09-.14-.06-.06-.11-.1-.16-.11-.04-.02-.07-.05-.07-.11-.06-.12-.12-.2-.18-.23l-.27-.54v-.45c0-.12,0-.24-.02-.36-.02-.12-.02-.23-.02-.32v-.68c0-.12,.02-.19,.05-.22,0-.06,0-.12-.02-.18-.02-.06-.02-.12-.02-.18l.09-.32c0-.09,.02-.15,.05-.18,0-.12,.01-.21,.04-.27-.06,0-.11,.02-.16,.07-.05,.05-.1,.08-.16,.11l-.9,1.13c.06,0,.11-.04,.16-.11,.04-.07,.11-.11,.2-.11l-.04,.18-.27,.54c-.09,.21-.2,.35-.32,.41s-.2,.16-.25,.29c-.05,.14-.11,.26-.2,.38s-.19,.22-.29,.29c-.11,.07-.19,.17-.25,.29-.09,.12-.17,.24-.23,.36s-.12,.22-.18,.31l-.22,.32c-.06,.09-.14,.17-.23,.23-.12,0-.21,.07-.27,.22l-.23,.27c-.09,.09-.19,.17-.29,.23-.1,.06-.19,.13-.25,.22-.03,.03-.09,.08-.18,.14-.12,.06-.26,.09-.41,.09-.09,0-.19-.03-.31-.09-.18-.06-.3-.12-.36-.18-.06-.06-.11-.11-.14-.14l-.13-.13c-.09-.09-.14-.15-.14-.18l-.14-.23c-.15-.15-.22-.31-.22-.5-.03-.03-.05-.09-.05-.18-.09-.21-.13-.49-.13-.85,0-.12,.01-.2,.04-.23s.05-.1,.05-.23v-.27c.03-.06,.06-.13,.09-.22s.04-.2,.04-.32c0-.09,.03-.19,.09-.32,.03-.06,.06-.13,.09-.22,.03-.09,.05-.18,.05-.27,.03-.3,.09-.53,.18-.68s.18-.33,.27-.54c.06-.15,.12-.29,.18-.41s.12-.25,.18-.4l.18-.41c.03-.12,.09-.23,.18-.32,.06-.09,.11-.19,.14-.31s.09-.23,.18-.32c.06-.06,.13-.15,.2-.27,.07-.12,.14-.24,.2-.36s.12-.26,.18-.41c.12-.09,.19-.18,.22-.27l.18-.36c.06-.09,.13-.16,.2-.23,.08-.06,.14-.12,.2-.18l.27-.45,.41-.22c.06-.03,.13-.07,.2-.11,.07-.05,.16-.08,.25-.11,.06,0,.15-.03,.27-.09,.09-.03,.27-.05,.54-.05h.23s.07,.05,.13,.05,.11,0,.16-.02c.04-.01,.08-.02,.11-.02s.05,0,.07,.02c.01,.02,.04,.02,.07,.02,.33,.06,.62,.21,.86,.45s.42,.5,.54,.77l.14-.41c.03-.09,.06-.16,.09-.22l.09-.18c0-.09,.02-.17,.07-.23,.04-.06,.08-.12,.11-.18,.12-.21,.19-.42,.22-.63l.23-.41c.15-.27,.36-.41,.63-.41,.09,0,.21,.05,.36,.16,.15,.1,.3,.23,.45,.38s.29,.31,.41,.47c.12,.17,.18,.32,.18,.47,0,.09-.01,.15-.04,.18-.09,.06-.14,.14-.14,.23s-.02,.17-.04,.23c0,.06-.02,.12-.05,.18l-.09,.18-.54,1.35c-.06,.06-.11,.14-.14,.23-.06,.06-.09,.14-.09,.25s-.03,.19-.09,.25l-.4,.99c0,.06-.05,.13-.14,.23,0,.21-.04,.33-.14,.36,0,.24-.04,.46-.13,.67-.09,.21-.18,.39-.27,.54v.31c-.06,.12-.11,.27-.16,.45-.05,.18-.07,.29-.07,.32-.03,.06-.04,.17-.04,.32v.27c0,.06-.02,.11-.07,.16-.04,.05-.07,.1-.07,.16,0,.15,.03,.29,.09,.41,.03,.27,.15,.42,.36,.45,.09,0,.17,0,.25-.02,.07-.01,.16-.04,.25-.07,.06-.03,.11-.06,.16-.09,.05-.03,.1-.04,.16-.04l.31-.14,.23-.18c.09-.06,.18-.1,.27-.11,.09-.01,.16-.05,.23-.11,0-.09,.04-.13,.13-.13l.27-.14c.09-.06,.19-.13,.29-.2,.11-.07,.19-.14,.25-.2l.23-.18,.14-.09,.13-.09,.27-.22,.32-.36,.36-.27c.12-.06,.22-.14,.29-.23,.07-.09,.17-.15,.29-.18,.06-.03,.1-.04,.13-.04h.09l-.31,.31Zm-7.57-.86s.04-.05,.13-.07c.09-.01,.15-.11,.18-.29,.03-.15,.08-.21,.16-.18,.07,.03,.13,.02,.16-.04s.05-.11,.05-.16c0-.04,.03-.08,.09-.11,.15-.15,.24-.27,.27-.36,0-.06,.01-.1,.04-.13l.14-.14,.4-.4c0-.09,.03-.23,.09-.41-.09-.42-.21-.77-.36-1.04-.12-.18-.27-.3-.45-.36-.27,0-.48,.09-.63,.27-.06,.06-.11,.11-.14,.16-.03,.05-.07,.1-.13,.16l-.23,.13c-.12,.12-.21,.23-.27,.34-.06,.1-.12,.2-.18,.29-.09,.12-.17,.23-.25,.34-.08,.1-.14,.22-.2,.34-.06,.06-.1,.11-.11,.16-.02,.05-.04,.1-.07,.16l-.14,.13-.86,1.35c-.03,.06-.04,.12-.04,.18s-.03,.11-.09,.13c-.09,.06-.17,.17-.23,.34-.06,.16-.09,.26-.09,.29,0,.06-.03,.12-.09,.18s-.09,.13-.09,.22l-.18,.54,.18-.23-.09,.32c-.06,.15-.14,.35-.25,.61-.11,.26-.19,.46-.25,.61s-.12,.29-.18,.43-.09,.28-.09,.43c0,.03,0,.06,.02,.09,.02,.03,.02,.06,.02,.09l.27-.13,.36-.32c.09-.06,.19-.13,.29-.2,.1-.07,.2-.16,.29-.25,.06-.06,.1-.13,.11-.22,.01-.09,.07-.15,.16-.18,.06-.03,.12-.1,.18-.2,.06-.11,.12-.19,.18-.25l.18-.18,.18-.18c.06-.06,.11-.13,.14-.22s.07-.15,.13-.18l1.26-1.85Zm.09,.99c-.06,.09-.14,.16-.25,.2-.1,.05-.17,.13-.2,.25l-.32,.36c.06-.03,.11-.05,.16-.07,.05-.02,.1-.05,.16-.11,.12-.18,.22-.32,.31-.41l.14-.22Zm1.35-2.12l-.54,.59c-.06,.06-.12,.14-.18,.23l-.18,.27-.63,.59-.09,.18c.06,0,.12-.03,.18-.09s.11-.14,.16-.23c.05-.09,.13-.14,.25-.14-.03,.03-.06,.05-.09,.07-.03,.01-.06,.05-.09,.11-.03,.03-.04,.11-.04,.23l.45-.59,.09-.13-.27,.13,.41-.45c0,.06-.02,.11-.05,.16-.03,.05-.04,.1-.04,.16,.18-.12,.33-.27,.45-.45,.06-.03,.08-.07,.07-.11-.02-.05,0-.08,.07-.11l.09-.41Z"/>
    </g>
    <g>
      <path class="cls-1" d="M22.49,26.69c3.74,1.88,6.74,4.44,9.03,7.7,2.28,3.26,3.43,6.88,3.43,10.88,0,6.11-2.22,10.66-6.65,13.66s-10.41,4.5-17.91,4.5c-3,0-5.97-.17-8.91-.51l.41-37.1c1.57-.68,3.05-1.18,4.43-1.49,1.38-.31,2.86-.46,4.42-.46,4.09,0,8.01,.94,11.75,2.82Zm1.36,16.99c0-1.74-.49-3.26-1.46-4.55-.97-1.3-2.24-2.3-3.79-3s-3.15-1.05-4.78-1.05c-.85,0-1.57,.07-2.15,.21v17.35c8.12,.17,12.18-2.82,12.18-8.96Z"/>
      <path class="cls-1" d="M42.52,61.28c-2.22-1.33-3.97-3.11-5.25-5.35-1.28-2.23-1.92-4.61-1.92-7.14,0-2.8,.73-5.22,2.18-7.27,1.45-2.05,3.28-3.6,5.48-4.65,2.2-1.06,4.42-1.59,6.68-1.59,2.94,0,5.49,.55,7.68,1.66s3.87,2.69,5.07,4.73c1.19,2.05,1.79,4.43,1.79,7.16s-.63,5.14-1.89,7.34c-1.26,2.2-3,3.93-5.19,5.19-2.2,1.26-4.63,1.89-7.29,1.89s-5.1-.66-7.32-2Zm11.18-8.08c.94-.92,1.41-2.19,1.41-3.79s-.44-2.83-1.33-3.89c-.89-1.06-2.2-1.59-3.94-1.59-1.54,0-2.81,.51-3.81,1.54s-1.51,2.29-1.51,3.79,.53,2.81,1.59,3.81c1.06,1.01,2.41,1.51,4.04,1.51,1.43,0,2.62-.46,3.56-1.38Z"/>
      <path class="cls-1" d="M106.6,63.08h-9.93l-.05-14.23c0-1.88-.21-3.17-.64-3.89-.43-.72-1.2-1.08-2.33-1.08-.85,0-1.55,.52-2.07,1.56-.53,1.04-.79,2.37-.79,3.97l.05,.97-.05-.15v12.69l-9.62,.1-.1-14.18c0-1.57-.29-2.79-.87-3.66s-1.4-1.31-2.46-1.31-1.93,.46-2.51,1.38c-.58,.92-.87,2.24-.87,3.94l.05,1.08-.05-.1,.41,12.95h-9.62v-26.97l8.8-.31,.05,2.05c.89-.68,1.97-1.21,3.25-1.59s2.67-.56,4.17-.56c3.14,0,5.51,.8,7.11,2.41,.85-.96,1.98-1.64,3.38-2.05,1.4-.41,3.22-.61,5.47-.61,3.17,0,5.48,1.25,6.93,3.76s2.19,6.56,2.23,12.15l.05,11.67Z"/>
      <path class="cls-1" d="M110.05,33.06c-.94-.53-1.71-1.25-2.3-2.17-.6-.92-.9-1.91-.9-2.97,0-1.64,.62-3,1.87-4.09s2.74-1.64,4.48-1.64c1.64,0,2.96,.5,3.96,1.49s1.51,2.3,1.51,3.94c0,1.81-.55,3.3-1.64,4.48-1.09,1.18-2.46,1.76-4.09,1.76-.99,0-1.95-.26-2.89-.79Zm-2.69,2.74h10.7v27.12h-9.88l-.82-27.12Z"/>
      <path class="cls-1" d="M126.35,61.46c-2.15-1.31-3.86-3.07-5.12-5.27-1.26-2.2-1.9-4.56-1.9-7.09s.61-4.84,1.82-6.94c1.21-2.1,2.85-3.76,4.91-4.99,2.07-1.23,4.34-1.84,6.83-1.84,2.22,0,4.39,.51,6.52,1.54,2.13,1.02,3.86,2.41,5.19,4.14s2,3.62,2,5.63l-8.6,.77c-.31-.99-.86-1.78-1.67-2.38-.8-.6-1.7-.9-2.69-.9-1.37,0-2.59,.5-3.66,1.51-1.08,1.01-1.61,2.16-1.61,3.46,0,.85,.26,1.69,.77,2.51,.51,.82,1.19,1.49,2.02,2,.84,.51,1.7,.77,2.59,.77s1.73-.26,2.53-.77c.8-.51,1.37-1.16,1.72-1.94l8.49,.82c0,1.88-.64,3.66-1.92,5.35-1.28,1.69-2.94,3.05-4.99,4.07-2.05,1.02-4.14,1.54-6.29,1.54-2.49,0-4.81-.66-6.96-1.97Z"/>
      <path class="cls-1" d="M150.23,33.06c-.94-.53-1.71-1.25-2.3-2.17-.6-.92-.9-1.91-.9-2.97,0-1.64,.62-3,1.87-4.09s2.74-1.64,4.48-1.64c1.64,0,2.96,.5,3.96,1.49s1.51,2.3,1.51,3.94c0,1.81-.55,3.3-1.64,4.48-1.09,1.18-2.46,1.76-4.09,1.76-.99,0-1.95-.26-2.89-.79Zm-2.69,2.74h10.7v27.12h-9.88l-.82-27.12Z"/>
      <path class="cls-1" d="M170.11,63.49c-3.11,0-5.61-1.01-7.52-3.02-1.91-2.01-2.85-4.84-2.82-8.5l.1-25.18,9.67-2.87,.05,25.18c0,1.4,.38,2.43,1.13,3.1s1.62,1,2.61,1c.72,0,1.3-.16,1.74-.46l2.25,9.06c-2.56,1.13-4.96,1.69-7.22,1.69Z"/>
      <path class="cls-1" d="M180.22,33.06c-.94-.53-1.71-1.25-2.3-2.17-.6-.92-.9-1.91-.9-2.97,0-1.64,.62-3,1.87-4.09s2.74-1.64,4.48-1.64c1.64,0,2.96,.5,3.96,1.49s1.51,2.3,1.51,3.94c0,1.81-.55,3.3-1.64,4.48-1.09,1.18-2.46,1.76-4.09,1.76-.99,0-1.95-.26-2.89-.79Zm-2.69,2.74h10.7v27.12h-9.88l-.82-27.12Z"/>
      <path class="cls-1" d="M196.68,61.28c-2.22-1.33-3.97-3.11-5.25-5.35-1.28-2.23-1.92-4.61-1.92-7.14,0-2.8,.73-5.22,2.18-7.27,1.45-2.05,3.28-3.6,5.48-4.65,2.2-1.06,4.42-1.59,6.68-1.59,2.94,0,5.49,.55,7.68,1.66s3.87,2.69,5.07,4.73c1.19,2.05,1.79,4.43,1.79,7.16s-.63,5.14-1.89,7.34c-1.26,2.2-3,3.93-5.19,5.19-2.2,1.26-4.63,1.89-7.29,1.89s-5.1-.66-7.32-2Zm11.18-8.08c.94-.92,1.41-2.19,1.41-3.79s-.44-2.83-1.33-3.89c-.89-1.06-2.2-1.59-3.94-1.59-1.54,0-2.81,.51-3.81,1.54s-1.51,2.29-1.51,3.79,.53,2.81,1.59,3.81c1.06,1.01,2.41,1.51,4.04,1.51,1.43,0,2.62-.46,3.56-1.38Z"/>
    </g>
    <rect class="cls-3" x="0" y="87.46" width="141.57" height="25.64" rx="12.81" ry="12.81"/>
    <rect class="cls-1" x="3.58" y="91.42" width="17.62" height="17.62" rx="8.8" ry="8.8"/>
    <g>
      <path class="cls-2" d="M33.55,95.33c.72,.35,1.3,.82,1.73,1.43s.65,1.29,.65,2.05-.19,1.38-.57,1.99c-.38,.61-.91,1.09-1.58,1.44-.67,.36-1.4,.53-2.2,.53-.25,0-.53-.02-.84-.07l.07,2.82h-2.81l-.28-9.75c1.27-.65,2.44-.97,3.51-.97,.82,0,1.6,.17,2.32,.52Zm-2.2,4.94c.3,0,.59-.07,.86-.2,.28-.13,.5-.31,.67-.53,.17-.22,.25-.47,.25-.73,0-.46-.17-.84-.51-1.14-.34-.3-.73-.46-1.18-.46-.28,0-.55,.07-.81,.21l.06,2.72c.21,.08,.43,.13,.66,.13Z"/>
      <path class="cls-2" d="M37.06,97.3c-.26-.14-.47-.34-.63-.6s-.24-.52-.24-.81c0-.45,.17-.82,.51-1.12,.34-.3,.75-.45,1.23-.45,.45,0,.81,.14,1.09,.41,.28,.27,.41,.63,.41,1.08,0,.5-.15,.9-.45,1.23-.3,.32-.67,.48-1.12,.48-.27,0-.54-.07-.79-.22Zm-.74,.75h2.93v7.43h-2.71l-.22-7.43Z"/>
      <path class="cls-2" d="M47.87,94.44v11.11h-2.74v-.79c-.29,.25-.65,.46-1.09,.62-.44,.16-.88,.24-1.33,.24-.55,0-1.07-.18-1.54-.53s-.86-.83-1.14-1.42-.42-1.24-.42-1.94c0-.64,.14-1.25,.43-1.84,.29-.59,.67-1.07,1.14-1.44s.97-.56,1.48-.57c.98-.03,1.79,.2,2.43,.67l-.03-4.35,2.81,.23Zm-3.55,8.58c.23-.14,.42-.34,.57-.57,.14-.24,.22-.48,.22-.74,0-.39-.15-.74-.46-1.03s-.66-.44-1.06-.44-.72,.15-1.02,.44c-.29,.29-.44,.64-.44,1.05,0,.25,.07,.5,.2,.73,.13,.23,.32,.42,.55,.57,.23,.15,.46,.22,.71,.22s.5-.07,.73-.22Z"/>
      <path class="cls-2" d="M54.67,99.02c.65,.68,.97,1.61,.97,2.79,0,.2,0,.35-.01,.45l-4.97,.06c.11,.31,.27,.56,.47,.76,.2,.2,.44,.31,.71,.33,.75,.06,1.29-.16,1.63-.66l2.01,.57c-.12,.44-.35,.83-.7,1.19-.35,.35-.76,.62-1.24,.82s-.98,.29-1.49,.29c-.12,0-.22,0-.28-.01-.64-.05-1.24-.26-1.79-.63s-.98-.87-1.3-1.47c-.32-.61-.48-1.27-.48-1.99,0-.14,0-.25,.01-.32,.04-.62,.23-1.17,.57-1.66,.34-.49,.79-.86,1.35-1.14,.56-.27,1.17-.41,1.85-.41,1.17,0,2.08,.34,2.72,1.02Zm-4,1.59h2.37c-.04-.26-.15-.47-.33-.62-.18-.15-.39-.23-.62-.25-.69-.06-1.16,.23-1.42,.87Z"/>
      <path class="cls-2" d="M65.28,105.53v-.66c-.27,.21-.58,.39-.95,.52s-.76,.2-1.15,.2c-.62,0-1.19-.17-1.71-.51-.52-.34-.94-.8-1.25-1.38-.31-.58-.46-1.22-.46-1.91s.16-1.34,.48-1.92c.32-.58,.76-1.04,1.31-1.37,.56-.33,1.17-.5,1.85-.5,.36,0,.71,.06,1.03,.18s.58,.29,.78,.51v-.6h2.33l.32,7.45h-2.57Zm-.93-2.48c.22-.15,.4-.35,.53-.6s.2-.51,.2-.79c0-.38-.12-.7-.37-.96-.25-.26-.56-.39-.93-.39-.41,0-.77,.15-1.08,.43-.31,.29-.46,.64-.46,1.04,0,.24,.07,.48,.2,.72,.14,.23,.31,.42,.53,.56,.22,.14,.45,.21,.68,.21s.48-.07,.7-.22Z"/>
      <path class="cls-2" d="M80.22,94.44v11.11h-2.74v-.79c-.29,.25-.65,.46-1.09,.62-.44,.16-.88,.24-1.33,.24-.55,0-1.07-.18-1.54-.53s-.86-.83-1.14-1.42-.42-1.24-.42-1.94c0-.64,.14-1.25,.43-1.84,.29-.59,.67-1.07,1.14-1.44s.97-.56,1.48-.57c.98-.03,1.79,.2,2.43,.67l-.03-4.35,2.81,.23Zm-3.55,8.58c.23-.14,.42-.34,.57-.57,.14-.24,.22-.48,.22-.74,0-.39-.15-.74-.46-1.03s-.66-.44-1.06-.44-.72,.15-1.02,.44c-.29,.29-.44,.64-.44,1.05,0,.25,.07,.5,.2,.73,.13,.23,.32,.42,.55,.57,.23,.15,.46,.22,.71,.22s.5-.07,.73-.22Z"/>
      <path class="cls-2" d="M82.49,105.04c-.61-.37-1.09-.85-1.44-1.47-.35-.61-.53-1.26-.53-1.96,0-.77,.2-1.43,.6-1.99,.4-.56,.9-.99,1.5-1.28,.6-.29,1.21-.43,1.83-.43,.8,0,1.51,.15,2.1,.46,.6,.3,1.06,.74,1.39,1.3s.49,1.22,.49,1.96-.17,1.41-.52,2.01-.82,1.08-1.42,1.42-1.27,.52-2,.52-1.4-.18-2.01-.55Zm3.06-2.22c.26-.25,.39-.6,.39-1.04s-.12-.78-.36-1.07c-.24-.29-.6-.43-1.08-.43-.42,0-.77,.14-1.05,.42-.28,.28-.41,.63-.41,1.04s.15,.77,.43,1.05c.29,.28,.66,.41,1.11,.41,.39,0,.72-.13,.97-.38Z"/>
      <path class="cls-2" d="M100.06,105.53h-2.72v-3.9c-.01-.51-.07-.87-.19-1.07-.12-.2-.33-.29-.64-.29-.23,0-.42,.14-.57,.43-.15,.29-.22,.65-.22,1.09v.27s0-.04,0-.04v3.48l-2.64,.03-.03-3.89c0-.43-.08-.76-.24-1-.16-.24-.38-.36-.67-.36s-.53,.13-.69,.38c-.16,.25-.24,.61-.24,1.08v.29s0-.03,0-.03l.11,3.55h-2.64v-7.39l2.41-.08v.56c.26-.19,.55-.33,.9-.43s.73-.15,1.14-.15c.86,0,1.51,.22,1.95,.66,.23-.26,.54-.45,.93-.56,.38-.11,.88-.17,1.5-.17,.87,0,1.5,.34,1.9,1.03s.6,1.8,.61,3.33v3.2Z"/>
      <path class="cls-2" d="M101,97.3c-.26-.14-.47-.34-.63-.6s-.24-.52-.24-.81c0-.45,.17-.82,.51-1.12,.34-.3,.75-.45,1.23-.45,.45,0,.81,.14,1.09,.41,.28,.27,.41,.63,.41,1.08,0,.5-.15,.9-.45,1.23-.3,.32-.67,.48-1.12,.48-.27,0-.54-.07-.79-.22Zm-.74,.75h2.93v7.43h-2.71l-.22-7.43Z"/>
      <path class="cls-2" d="M105.47,105.08c-.59-.36-1.06-.84-1.4-1.44-.35-.6-.52-1.25-.52-1.94s.17-1.33,.5-1.9c.33-.57,.78-1.03,1.35-1.37,.57-.34,1.19-.5,1.87-.5,.61,0,1.2,.14,1.79,.42,.58,.28,1.06,.66,1.42,1.14,.36,.48,.55,.99,.55,1.54l-2.36,.21c-.08-.27-.24-.49-.46-.65-.22-.16-.46-.24-.74-.24-.37,0-.71,.14-1,.41-.29,.28-.44,.59-.44,.95,0,.23,.07,.46,.21,.69,.14,.23,.32,.41,.55,.55,.23,.14,.46,.21,.71,.21s.48-.07,.69-.21c.22-.14,.38-.32,.47-.53l2.33,.22c0,.51-.18,1-.53,1.47-.35,.46-.81,.83-1.37,1.11-.56,.28-1.14,.42-1.72,.42-.68,0-1.32-.18-1.91-.54Z"/>
      <path class="cls-2" d="M112.02,97.3c-.26-.14-.47-.34-.63-.6s-.24-.52-.24-.81c0-.45,.17-.82,.51-1.12,.34-.3,.75-.45,1.23-.45,.45,0,.81,.14,1.09,.41,.28,.27,.41,.63,.41,1.08,0,.5-.15,.9-.45,1.23-.3,.32-.67,.48-1.12,.48-.27,0-.54-.07-.79-.22Zm-.74,.75h2.93v7.43h-2.71l-.22-7.43Z"/>
      <path class="cls-2" d="M117.47,105.64c-.85,0-1.54-.28-2.06-.83-.52-.55-.78-1.33-.77-2.33l.03-6.9,2.65-.79v6.9c.01,.38,.12,.67,.32,.85,.21,.18,.44,.27,.72,.27,.2,0,.35-.04,.48-.13l.62,2.48c-.7,.31-1.36,.46-1.98,.46Z"/>
      <path class="cls-2" d="M120.23,97.3c-.26-.14-.47-.34-.63-.6s-.24-.52-.24-.81c0-.45,.17-.82,.51-1.12,.34-.3,.75-.45,1.23-.45,.45,0,.81,.14,1.09,.41,.28,.27,.41,.63,.41,1.08,0,.5-.15,.9-.45,1.23-.3,.32-.67,.48-1.12,.48-.27,0-.54-.07-.79-.22Zm-.74,.75h2.93v7.43h-2.71l-.22-7.43Z"/>
      <path class="cls-2" d="M124.75,105.04c-.61-.37-1.09-.85-1.44-1.47-.35-.61-.53-1.26-.53-1.96,0-.77,.2-1.43,.6-1.99,.4-.56,.9-.99,1.5-1.28,.6-.29,1.21-.43,1.83-.43,.8,0,1.51,.15,2.1,.46,.6,.3,1.06,.74,1.39,1.3s.49,1.22,.49,1.96-.17,1.41-.52,2.01-.82,1.08-1.42,1.42-1.27,.52-2,.52-1.4-.18-2.01-.55Zm3.06-2.22c.26-.25,.39-.6,.39-1.04s-.12-.78-.36-1.07c-.24-.29-.6-.43-1.08-.43-.42,0-.77,.14-1.05,.42-.28,.28-.41,.63-.41,1.04s.15,.77,.43,1.05c.29,.28,.66,.41,1.11,.41,.39,0,.72-.13,.97-.38Z"/>
    </g>
  </g>
</svg>